<?xml version="1.0" encoding="UTF-8"?>
<svg version="1.1" xmlns="http://www.w3.org/2000/svg" width="677" height="369">
<path d="M0 0 C1.07607513 -0.01004562 2.15215027 -0.02009125 3.26083374 -0.03044128 C4.42657928 -0.03627228 5.59232483 -0.04210327 6.793396 -0.04811096 C8.65328659 -0.06278664 8.65328659 -0.06278664 10.55075073 -0.07775879 C14.65213086 -0.10765495 18.75347623 -0.12940893 22.85491943 -0.14796448 C23.55606212 -0.1512618 24.2572048 -0.15455912 24.97959423 -0.15795636 C31.61109399 -0.18875231 38.24259879 -0.21541986 44.87414932 -0.23237514 C53.3078701 -0.25420198 61.74094797 -0.29601444 70.17441201 -0.36581272 C76.12975023 -0.41339478 82.08491726 -0.43735439 88.04043937 -0.44457203 C91.58362999 -0.44948053 95.12609457 -0.46409052 98.66907501 -0.50431633 C135.9994637 -0.90814269 135.9994637 -0.90814269 149.64788818 11.32469177 C150.24730225 11.93055115 150.84671631 12.53641052 151.46429443 13.16062927 C152.094646 13.76648865 152.72499756 14.37234802 153.37445068 14.99656677 C164.60565779 26.68083743 165.77244472 41.70524917 165.73895264 57.17430115 C165.74406357 58.41498856 165.7491745 59.65567596 165.75444031 60.93395996 C165.76586607 64.29973238 165.76842517 67.66525655 165.76587701 71.03103065 C165.76479807 73.85632886 165.76971377 76.68160499 165.77448243 79.5068984 C165.78552794 86.17843919 165.7860425 92.84992364 165.77996826 99.52146912 C165.77392639 106.37208984 165.78625625 113.2225053 165.80753833 120.07309103 C165.82522503 125.98686057 165.83114479 131.90056517 165.82790059 137.81436014 C165.82609951 141.33242297 165.82860536 144.85033917 165.84261513 148.36837769 C165.85766996 152.29465116 165.84816181 156.22066812 165.83660889 160.1469574 C165.84425262 161.29120682 165.85189636 162.43545624 165.85977173 163.61437988 C165.7603599 178.98581836 161.43041371 191.77240934 150.77679443 202.96922302 C142.12163314 211.17115796 129.82146877 215.2638001 117.97050476 215.30107117 C116.87871918 215.30678131 115.78693359 215.31249146 114.6620636 215.31837463 C113.47394577 215.31949249 112.28582794 215.32061035 111.06170654 215.32176208 C109.172948 215.32920944 109.172948 215.32920944 107.24603271 215.33680725 C103.79728645 215.34989419 100.34855963 215.35636956 96.89979243 215.36081791 C94.74030153 215.36375609 92.58081585 215.3678624 90.42132759 215.37232208 C83.65101203 215.38599048 76.88070851 215.39565899 70.11038011 215.39952397 C62.32137389 215.40399598 54.53254392 215.42150662 46.74359125 215.45052457 C40.7068312 215.47222566 34.67012042 215.48223281 28.63332182 215.48356509 C25.03577704 215.48460759 21.43839806 215.49039524 17.8408947 215.5083847 C13.81803796 215.52810984 9.79554404 215.52354309 5.77264404 215.51707458 C4.01172173 215.53089676 4.01172173 215.53089676 2.21522522 215.54499817 C-14.04714891 215.46351759 -27.0025718 210.67003231 -38.53570557 199.16062927 C-48.67666124 188.73798039 -49.83974036 174.04381846 -49.81036377 160.29808044 C-49.8154747 159.04953781 -49.82058563 157.80099518 -49.82585144 156.51461792 C-49.83730312 153.11767018 -49.8398317 149.72096788 -49.83728814 146.32401824 C-49.83621112 143.47406142 -49.84112046 140.62412658 -49.84589356 137.77417451 C-49.85695342 131.04221725 -49.8574464 124.31031581 -49.85137939 117.57835388 C-49.84534533 110.66644732 -49.85764422 103.75474461 -49.87894946 96.8428728 C-49.89664689 90.87902232 -49.90255399 84.91523625 -49.89931172 78.95136052 C-49.89751128 75.4024963 -49.90000937 71.85377746 -49.91402626 68.30493736 C-49.929102 64.3403329 -49.91956373 60.37598185 -49.90802002 56.41136169 C-49.91566376 55.25821472 -49.9233075 54.10506775 -49.93118286 52.91697693 C-49.8681905 43.06299166 -48.68600587 32.79774384 -43.59820557 24.16062927 C-43.11480713 23.31500427 -42.63140869 22.46937927 -42.13336182 21.59812927 C-34.7405737 10.3191567 -24.33003175 4.73078257 -11.53570557 1.16062927 C-7.64867478 0.41685831 -3.95489725 0.02922766 0 0 Z " fill="#F5F8F9" transform="translate(280.53570556640625,76.83937072753906)"/>
<path d="M0 0 C-0.55187986 13.11190414 -2.18498036 26.00971832 -4 39 C-7.40212299 37.38617243 -10.10324519 35.41396234 -13 33 C-16.72913668 34.52209661 -18.80631179 36.74032197 -21.4375 39.75 C-22.23671875 40.63945312 -23.0359375 41.52890625 -23.859375 42.4453125 C-25.56122168 44.4763485 -26.83268702 46.37773085 -28.1875 48.625 C-32.98752611 52.67835538 -38.98176217 51.43976298 -45 51 C-44.96648437 52.01320312 -44.93296875 53.02640625 -44.8984375 54.0703125 C-45.28467815 69.01485458 -52.6108005 78.99969504 -62.828125 89.03125 C-65 91 -65 91 -67 92 C-67.33 103.88 -67.66 115.76 -68 128 C-74.27 128 -80.54 128 -87 128 C-87 119.09 -87 110.18 -87 101 C-94.86762942 104.80794772 -94.86762942 104.80794772 -99.1640625 112.00390625 C-100.85356325 117.34588883 -102.07646099 122.45876595 -103 128 C-111.91 128 -120.82 128 -130 128 C-128.02 125.36 -126.04 122.72 -124 120 C-122.54202469 117.12674275 -122.54202469 117.12674275 -121.5625 114.3125 C-115.95857428 100.2672178 -109.1904138 88.58840641 -95 82 C-92.51201454 81.20482837 -90.01020268 80.48527397 -87.49609375 79.77734375 C-81.64316881 77.95460187 -77.18621518 75.50823173 -73 71 C-72.34 71 -71.68 71 -71 71 C-70.7525 70.34 -70.505 69.68 -70.25 69 C-68.983523 65.9604552 -67.49736654 63.13487248 -65.90234375 60.2578125 C-63.57343188 54.43049188 -63.74259516 47.76943592 -63.4375 41.5625 C-63.37272461 40.32209961 -63.37272461 40.32209961 -63.30664062 39.05664062 C-63.20161967 37.03790451 -63.10041441 35.01897049 -63 33 C-62.0867395 33.04882324 -62.0867395 33.04882324 -61.1550293 33.09863281 C-48.41711121 34.02176993 -48.41711121 34.02176993 -37.0546875 29.40234375 C-34.15012726 26.52597444 -31.87358144 23.63751308 -30 20 C-30.06575319 17.32760237 -30.53929611 16.46198008 -32.41015625 14.5859375 C-33.22806641 13.98652344 -33.22806641 13.98652344 -34.0625 13.375 C-35.031875 12.59125 -36.00125 11.8075 -37 11 C-37 10.34 -37 9.68 -37 9 C-32.37532112 7.71172923 -27.7488519 6.43017987 -23.12060547 5.15478516 C-21.54685457 4.72009928 -19.9736059 4.28359083 -18.40087891 3.84521484 C-16.13834571 3.21490711 -13.87407903 2.59120627 -11.609375 1.96875 C-10.55759064 1.67345398 -10.55759064 1.67345398 -9.48455811 1.37219238 C-6.15398897 0.46343978 -3.48704496 0 0 0 Z " fill="#36C0C2" transform="translate(419,120)"/>
<path d="M0 0 C6.27 0 12.54 0 19 0 C19 13.86 19 27.72 19 42 C23.95 39.525 23.95 39.525 29 37 C39.38777476 33.03375873 49.98826803 34.58914651 60 39 C65.08513661 42.33358956 69.22870831 46.57790757 72 52 C71.3601737 56.39990137 69.02072425 59.83071555 66 63 C58.7625 68 58.7625 68 55 68 C54.38125 66.39125 54.38125 66.39125 53.75 64.75 C51.68164339 59.94325576 48.86559292 56.99897611 44 55 C38.62369276 54.34786682 32.936836 54.06730957 28 56.5625 C23.67262895 60.07848897 21.77150885 63.68547345 20 69 C19.88203695 71.57473538 19.8148901 74.12741893 19.7890625 76.703125 C19.7609826 78.25652075 19.73231807 79.80990602 19.703125 81.36328125 C19.6619777 83.80321837 19.62507627 86.24296226 19.59863281 88.68310547 C19.57084779 91.04435299 19.52496962 93.40472175 19.4765625 95.765625 C19.47330963 96.48566711 19.47005676 97.20570923 19.46670532 97.9475708 C19.3245275 103.8737499 18.09128942 108.6424684 14.09765625 113.14453125 C13.09025391 113.97017578 13.09025391 113.97017578 12.0625 114.8125 C11.05896484 115.65748047 11.05896484 115.65748047 10.03515625 116.51953125 C6.40346817 119.16139264 4.60263804 120 0 120 C0 80.4 0 40.8 0 0 Z " fill="#30C4C4" transform="translate(276,128)"/>
<path d="M0 0 C-0.55187986 13.11190414 -2.18498036 26.00971832 -4 39 C-7.40212299 37.38617243 -10.10324519 35.41396234 -13 33 C-16.72913668 34.52209661 -18.80631179 36.74032197 -21.4375 39.75 C-22.23671875 40.63945312 -23.0359375 41.52890625 -23.859375 42.4453125 C-25.56122168 44.4763485 -26.83268702 46.37773085 -28.1875 48.625 C-32.98752611 52.67835538 -38.98176217 51.43976298 -45 51 C-44.96132813 52.00546875 -44.92265625 53.0109375 -44.8828125 54.046875 C-45.00332475 58.11215502 -45.72157944 61.36036279 -46.875 65.25 C-47.22304688 66.45140625 -47.57109375 67.6528125 -47.9296875 68.890625 C-49 72 -49 72 -51 75 C-53.3828125 75.51171875 -53.3828125 75.51171875 -56.125 75.6875 C-57.03507812 75.75324219 -57.94515625 75.81898438 -58.8828125 75.88671875 C-59.93082031 75.94279297 -59.93082031 75.94279297 -61 76 C-60.97679687 75.18015625 -60.95359375 74.3603125 -60.9296875 73.515625 C-60.91164063 72.43796875 -60.89359375 71.3603125 -60.875 70.25 C-60.85179687 69.18265625 -60.82859375 68.1153125 -60.8046875 67.015625 C-60.77700707 64.09824964 -60.77700707 64.09824964 -62 62.20507812 C-63.33125031 59.26956719 -63.22565216 56.91912912 -63.1953125 53.703125 C-63.18886719 52.49785156 -63.18242187 51.29257813 -63.17578125 50.05078125 C-63.15064453 48.16939453 -63.15064453 48.16939453 -63.125 46.25 C-63.11597656 44.98027344 -63.10695313 43.71054688 -63.09765625 42.40234375 C-63.07409005 39.26803907 -63.04118832 36.13411459 -63 33 C-62.0867395 33.04882324 -62.0867395 33.04882324 -61.1550293 33.09863281 C-48.41711121 34.02176993 -48.41711121 34.02176993 -37.0546875 29.40234375 C-34.15012726 26.52597444 -31.87358144 23.63751308 -30 20 C-30.06575319 17.32760237 -30.53929611 16.46198008 -32.41015625 14.5859375 C-33.22806641 13.98652344 -33.22806641 13.98652344 -34.0625 13.375 C-35.031875 12.59125 -36.00125 11.8075 -37 11 C-37 10.34 -37 9.68 -37 9 C-32.37532112 7.71172923 -27.7488519 6.43017987 -23.12060547 5.15478516 C-21.54685457 4.72009928 -19.9736059 4.28359083 -18.40087891 3.84521484 C-16.13834571 3.21490711 -13.87407903 2.59120627 -11.609375 1.96875 C-10.90818542 1.77188599 -10.20699585 1.57502197 -9.48455811 1.37219238 C-6.15398897 0.46343978 -3.48704496 0 0 0 Z " fill="#F98707" transform="translate(419,120)"/>
<path d="M0 0 C-1.6396875 0.61875 -1.6396875 0.61875 -3.3125 1.25 C-6.50504948 2.62654462 -8.36005642 3.81658012 -10 7 C-10 8.32 -10 9.64 -10 11 C-10.66 11 -11.32 11 -12 11 C-11.505 12.485 -11.505 12.485 -11 14 C-11.66 14.99 -12.32 15.98 -13 17 C-11.35 17.33 -9.7 17.66 -8 18 C-11.84183519 23.89996118 -15.9341707 29.071085 -21 34 C-21.33 34.33 -21.66 34.66 -22 35 C-23.41570123 35.08651611 -24.835595 35.10704904 -26.25390625 35.09765625 C-27.10791016 35.09443359 -27.96191406 35.09121094 -28.84179688 35.08789062 C-29.73962891 35.07951172 -30.63746094 35.07113281 -31.5625 35.0625 C-32.46419922 35.05798828 -33.36589844 35.05347656 -34.29492188 35.04882812 C-36.52997589 35.03700244 -38.76499602 35.01906638 -41 35 C-40.67 40.28 -40.34 45.56 -40 51 C-37.03 50.505 -37.03 50.505 -34 50 C-34 49.01 -34 48.02 -34 47 C-32.515 46.505 -32.515 46.505 -31 46 C-30.80243107 51.1367921 -31.41536943 55.32774216 -32.875 60.25 C-33.39707031 62.05210937 -33.39707031 62.05210937 -33.9296875 63.890625 C-35 67 -35 67 -37 70 C-39.3828125 70.51171875 -39.3828125 70.51171875 -42.125 70.6875 C-43.03507812 70.75324219 -43.94515625 70.81898438 -44.8828125 70.88671875 C-45.93082031 70.94279297 -45.93082031 70.94279297 -47 71 C-46.97679687 70.18015625 -46.95359375 69.3603125 -46.9296875 68.515625 C-46.91164063 67.43796875 -46.89359375 66.3603125 -46.875 65.25 C-46.85179687 64.18265625 -46.82859375 63.1153125 -46.8046875 62.015625 C-46.77700707 59.09824964 -46.77700707 59.09824964 -48 57.20507812 C-49.33125031 54.26956719 -49.22565216 51.91912912 -49.1953125 48.703125 C-49.18886719 47.49785156 -49.18242187 46.29257813 -49.17578125 45.05078125 C-49.15064453 43.16939453 -49.15064453 43.16939453 -49.125 41.25 C-49.11597656 39.98027344 -49.10695313 38.71054688 -49.09765625 37.40234375 C-49.07409005 34.26803907 -49.04118832 31.13411459 -49 28 C-48.39115967 28.03254883 -47.78231934 28.06509766 -47.1550293 28.09863281 C-34.41711121 29.02176993 -34.41711121 29.02176993 -23.0546875 24.40234375 C-20.15012726 21.52597444 -17.87358144 18.63751308 -16 15 C-16.06575319 12.32760237 -16.53929611 11.46198008 -18.41015625 9.5859375 C-19.22806641 8.98652344 -19.22806641 8.98652344 -20.0625 8.375 C-21.031875 7.59125 -22.00125 6.8075 -23 6 C-23 5.34 -23 4.68 -23 4 C-19.92090233 3.13003414 -16.83621369 2.28184148 -13.75 1.4375 C-12.87730469 1.19064453 -12.00460937 0.94378906 -11.10546875 0.68945312 C-9.83896484 0.34624023 -9.83896484 0.34624023 -8.546875 -0.00390625 C-7.77182617 -0.21861572 -6.99677734 -0.4333252 -6.19824219 -0.65454102 C-3.80975982 -1.0298967 -2.279036 -0.74681558 0 0 Z " fill="#FAA846" transform="translate(405,125)"/>
<path d="M0 0 C-0.33 1.32 -0.66 2.64 -1 4 C-1.66 4 -2.32 4 -3 4 C-2.505 5.98 -2.505 5.98 -2 8 C-2.66 8 -3.32 8 -4 8 C-4.04125 8.5775 -4.0825 9.155 -4.125 9.75 C-5.4391917 13.12935009 -7.98378574 14.10747341 -11 16 C-14.67884211 19.07963677 -15.87894321 21.7923807 -17.1875 26.375 C-17.67283203 28.02628906 -17.67283203 28.02628906 -18.16796875 29.7109375 C-18.94195819 32.77055773 -19.48115681 35.88694083 -20 39 C-28.91 39 -37.82 39 -47 39 C-45.02 36.36 -43.04 33.72 -41 31 C-39.47374271 28.02615019 -39.47374271 28.02615019 -38.4375 25.125 C-36.26185877 19.5728766 -33.74952844 14.2884547 -31 9 C-30.01 9 -29.02 9 -28 9 C-28 8.34 -28 7.68 -28 7 C-26.02 6.67 -24.04 6.34 -22 6 C-21.67 4.68 -21.34 3.36 -21 2 C-18 3 -18 3 -16 5 C-15.34 5 -14.68 5 -14 5 C-13.67 4.01 -13.34 3.02 -13 2 C-10.8203125 1.015625 -10.8203125 1.015625 -8.125 0.25 C-7.24070312 -0.01296875 -6.35640625 -0.2759375 -5.4453125 -0.546875 C-3 -1 -3 -1 0 0 Z " fill="#0BB8BF" transform="translate(336,209)"/>
<path d="M0 0 C9.98462283 -0.60820038 16.93921098 0.53633511 24.8125 6.875 C27.83609803 9.66601356 30.09193359 12.34287271 32 16 C31.37032105 20.39900714 29.01808179 23.83348796 26 27 C18.7625 32 18.7625 32 15 32 C14.38125 30.39125 14.38125 30.39125 13.75 28.75 C11.68164339 23.94325576 8.86559292 20.99897611 4 19 C-3.41736353 18.10029159 -8.969573 18.50925649 -15 23 C-16.85859339 24.60172474 -16.85859339 24.60172474 -18 26 C-17.84010608 19.60424315 -14.39324563 16.21525041 -10 12 C-7.07947736 9.55157452 -4.0841996 7.23796796 -1 5 C-0.34 5.33 0.32 5.66 1 6 C1.66 5.67 2.32 5.34 3 5 C3.33 4.01 3.66 3.02 4 2 C2.68 1.34 1.36 0.68 0 0 Z " fill="#ED8B13" transform="translate(316,164)"/>
<path d="M0 0 C0 11.55 0 23.1 0 35 C-6.27 35 -12.54 35 -19 35 C-19.18862194 31.04913506 -19.37096189 27.09877135 -19.53710938 23.14697266 C-19.59555475 21.80240434 -19.65771076 20.45799202 -19.72363281 19.11376953 C-19.81767443 17.18306663 -19.89732692 15.2516797 -19.9765625 13.3203125 C-20.05511475 11.57645264 -20.05511475 11.57645264 -20.13525391 9.79736328 C-20 7 -20 7 -18 5 C-15.33836432 4.05351317 -12.70176932 3.18742014 -10 2.375 C-9.26265625 2.14554688 -8.5253125 1.91609375 -7.765625 1.6796875 C-2.28664435 0 -2.28664435 0 0 0 Z " fill="#F18711" transform="translate(351,213)"/>
<path d="M0 0 C0.33 0 0.66 0 1 0 C1.04898437 0.59167969 1.09796875 1.18335938 1.1484375 1.79296875 C1.22320312 2.58316406 1.29796875 3.37335938 1.375 4.1875 C1.44460938 4.96480469 1.51421875 5.74210938 1.5859375 6.54296875 C1.90770526 9.05632081 1.90770526 9.05632081 3.0625 11.4375 C4.18709525 14.51139369 4.0143455 16.58093232 3.625 19.8125 C3.51414062 20.78832031 3.40328125 21.76414063 3.2890625 22.76953125 C3.14597656 23.87361328 3.14597656 23.87361328 3 25 C5.97 24.67 8.94 24.34 12 24 C10.58419794 28.55374932 8.04489128 31.37907589 4.6875 34.625 C4.21376953 35.10195312 3.74003906 35.57890625 3.25195312 36.0703125 C0.4002813 38.87907271 -2.38783671 41.24676412 -6 43 C-6.66 42.67 -7.32 42.34 -8 42 C-7.62875 41.0925 -7.2575 40.185 -6.875 39.25 C-5.76243382 36.17978039 -5.76243382 36.17978039 -6.5625 33.8125 C-8.39337048 31.50401114 -10.42280932 30.38771806 -13 29 C-13.33 28.67 -13.66 28.34 -14 28 C-15.66617115 27.95936168 -17.33388095 27.957279 -19 28 C-18.46375 27.608125 -17.9275 27.21625 -17.375 26.8125 C-15.47612374 25.36335759 -13.68140509 23.87096714 -11.875 22.3125 C-9 20 -9 20 -7 20 C-6.7525 19.34 -6.505 18.68 -6.25 18 C-5.24923656 15.59816773 -4.16079293 13.41144569 -2.9375 11.125 C-1.01476884 7.36531007 -0.34937346 4.19248148 0 0 Z " fill="#96BFA2" transform="translate(355,171)"/>
<path d="M0 0 C10.21858404 -0.62245182 17.1567963 0.57758608 25.0625 7.25 C26.05151293 8.15603452 27.03464992 9.06879414 28 10 C24.79604584 10 22.90600261 9.25664978 20 8 C19.67 8.99 19.34 9.98 19 11 C17.75863281 10.97679687 16.51726562 10.95359375 15.23828125 10.9296875 C13.5963602 10.91092269 11.95443262 10.89272325 10.3125 10.875 C9.49587891 10.85824219 8.67925781 10.84148437 7.83789062 10.82421875 C3.3642096 10.78799461 0.11492689 11.06086933 -4 13 C-4.99 13 -5.98 13 -7 13 C-7.33 13.99 -7.66 14.98 -8 16 C-6.081875 15.938125 -6.081875 15.938125 -4.125 15.875 C-1.9453125 15.8046875 -1.9453125 15.8046875 0 16 C0.66 16.66 1.32 17.32 2 18 C1.11957031 18.09796875 0.23914063 18.1959375 -0.66796875 18.296875 C-1.82941406 18.44640625 -2.99085938 18.5959375 -4.1875 18.75 C-5.33605469 18.88921875 -6.48460937 19.0284375 -7.66796875 19.171875 C-12.26686278 20.31485921 -14.71930593 22.71930593 -18 26 C-17.84010608 19.60424315 -14.39324563 16.21525041 -10 12 C-7.07947736 9.55157452 -4.0841996 7.23796796 -1 5 C-0.34 5.33 0.32 5.66 1 6 C1.66 5.67 2.32 5.34 3 5 C3.33 4.01 3.66 3.02 4 2 C2.68 1.34 1.36 0.68 0 0 Z " fill="#A9A261" transform="translate(316,164)"/>
<path d="M0 0 C0 7.59 0 15.18 0 23 C-10.05859375 23.09765625 -10.05859375 23.09765625 -13 23 C-15.04225211 20.95774789 -14.23055064 16.92084523 -14.25 14.125 C-14.270625 13.39152344 -14.29125 12.65804687 -14.3125 11.90234375 C-14.3517562 6.51443024 -14.3517562 6.51443024 -12.69921875 4.09765625 C-8.53470401 1.40747546 -4.95706324 0 0 0 Z " fill="#FC8502" transform="translate(349,222)"/>
<path d="M0 0 C6.93 0 13.86 0 21 0 C22.61301773 3.22603545 22.12053599 6.74710038 22.09765625 10.2890625 C22.0962413 11.10748627 22.09482635 11.92591003 22.09336853 12.76913452 C22.0877629 15.38779325 22.07520948 18.00636704 22.0625 20.625 C22.05748572 22.39843627 22.05292269 24.17187387 22.04882812 25.9453125 C22.03779164 30.29690782 22.02052325 34.6484395 22 39 C23.1612439 38.57231323 23.1612439 38.57231323 24.34594727 38.13598633 C30.42929825 35.98529719 35.48406213 34.48776713 41.9375 34.6875 C43.16339844 34.71199219 44.38929688 34.73648438 45.65234375 34.76171875 C48.53143783 34.96664843 51.1941519 35.34512464 54 36 C53.505 36.99 53.505 36.99 53 38 C52.27941406 37.84144531 51.55882812 37.68289062 50.81640625 37.51953125 C39.45462959 35.42366954 30.44931122 38.82027551 20 43 C20 29.14 20 15.28 20 1 C13.73 1 7.46 1 1 1 C1 40.27 1 79.54 1 120 C0.67 120 0.34 120 0 120 C0 80.4 0 40.8 0 0 Z " fill="#DEFEFE" transform="translate(275,127)"/>
<path d="M0 0 C0.33 0 0.66 0 1 0 C1.68373765 9.88977676 2.1362989 19.77376744 2.25 29.6875 C2.27126953 30.6067627 2.29253906 31.52602539 2.31445312 32.47314453 C2.34856356 39.11858902 1.55602509 43.89943043 -2.796875 49.1796875 C-3.44140625 49.73914063 -4.0859375 50.29859375 -4.75 50.875 C-5.38421875 51.44992188 -6.0184375 52.02484375 -6.671875 52.6171875 C-9.71071882 54.42213836 -12.5222403 54.57122817 -16 55 C-16.05058526 47.91588378 -16.08568494 40.83181388 -16.10986328 33.74755859 C-16.11993954 31.33608256 -16.13360081 28.92461878 -16.15087891 26.51318359 C-16.1750559 23.05302915 -16.18646669 19.5930358 -16.1953125 16.1328125 C-16.20563507 15.04944611 -16.21595764 13.96607971 -16.22659302 12.84988403 C-16.22674408 11.8489975 -16.22689514 10.84811096 -16.22705078 9.81689453 C-16.231492 8.93309113 -16.23593323 8.04928772 -16.24050903 7.13870239 C-16 5 -16 5 -14 3 C-12.98741548 18.00794906 -12.8855519 32.96152009 -13 48 C-9.58357241 48.25015873 -9.58357241 48.25015873 -6 48 C-3.71687177 45.17623287 -3.71687177 45.17623287 -4 41.9375 C-4 39 -4 39 -2 37 C-1.34 37.33 -0.68 37.66 0 38 C0 25.46 0 12.92 0 0 Z " fill="#2AB1B4" transform="translate(293,192)"/>
<path d="M0 0 C6.27 0 12.54 0 19 0 C19 13.2 19 26.4 19 40 C18.67 40 18.34 40 18 40 C17.85615173 35.57092712 17.71378867 31.14180964 17.57275391 26.71264648 C17.52465165 25.20840186 17.47615577 23.70416976 17.42724609 22.19995117 C17.35669107 20.02786446 17.28758938 17.85573543 17.21875 15.68359375 C17.17685547 14.37962646 17.13496094 13.07565918 17.09179688 11.73217773 C17.00376194 8.15294897 16.98379114 4.58013262 17 1 C10.565 1.495 10.565 1.495 4 2 C3.02467515 10.07326186 3.02467515 10.07326186 3.5625 18.125 C3.95382052 21.59098173 3.89520247 22.8274606 3.05322266 25.99169922 C1.25262172 34.53090982 1.63920834 43.32095336 1.5859375 52.0078125 C1.56720247 53.9440898 1.54762736 55.88035914 1.5272522 57.81661987 C1.47617157 62.88321208 1.4364178 67.94983069 1.39910889 73.01654053 C1.35891744 78.19859214 1.30789455 83.38053621 1.2578125 88.5625 C1.16133861 98.70825753 1.07684349 108.85407612 1 119 C1.99 119.33 2.98 119.66 4 120 C2.68 120 1.36 120 0 120 C0 80.4 0 40.8 0 0 Z " fill="#7BD2D2" transform="translate(276,128)"/>
<path d="M0 0 C0.66 0.33 1.32 0.66 2 1 C2 2.32 2 3.64 2 5 C3.98 4.67 5.96 4.34 8 4 C8 3.01 8 2.02 8 1 C8.99 0.67 9.98 0.34 11 0 C11.19756893 5.1367921 10.58463057 9.32774216 9.125 14.25 C8.77695312 15.45140625 8.42890625 16.6528125 8.0703125 17.890625 C7 21 7 21 5 24 C2.6171875 24.51171875 2.6171875 24.51171875 -0.125 24.6875 C-1.49011719 24.78611328 -1.49011719 24.78611328 -2.8828125 24.88671875 C-3.58148438 24.92410156 -4.28015625 24.96148437 -5 25 C-5.5162147 19.19258459 -4.06310236 15.0633806 -1.95703125 9.66796875 C-0.78531881 6.4015214 -0.3061473 3.44415717 0 0 Z " fill="#D4912A" transform="translate(363,171)"/>
<path d="M0 0 C0.33 0 0.66 0 1 0 C1.33 7.26 1.66 14.52 2 22 C7.56850227 20.88629955 7.84158146 20.24752838 11 16 C11.66 16 12.32 16 13 16 C13 15.34 13 14.68 13 14 C13.66 14 14.32 14 15 14 C13.60295488 16.91929712 11.99811164 19.59164882 10.25 22.3125 C7.64677801 26.56317165 5.83319203 30.89988049 4.125 35.5625 C1.67537647 42.13719711 -1.54725848 47.46832968 -7 52 C-7.66 52 -8.32 52 -9 52 C-9 51.34 -9 50.68 -9 50 C-11.475 50.495 -11.475 50.495 -14 51 C-13.29875 50.484375 -12.5975 49.96875 -11.875 49.4375 C-7.42902839 45.66808929 -3.08837092 41.90459323 -2 36 C-1.86110161 33.32316312 -1.767766 30.6666528 -1.71875 27.98828125 C-1.70034058 27.21945114 -1.68193115 26.45062103 -1.66296387 25.65849304 C-1.58440354 22.37557635 -1.51627939 19.09246543 -1.44775391 15.80932617 C-1.39617721 13.41053664 -1.33890023 11.01193123 -1.28125 8.61328125 C-1.26767456 7.86540848 -1.25409912 7.11753571 -1.2401123 6.34700012 C-1.11288178 1.11288178 -1.11288178 1.11288178 0 0 Z " fill="#E1F9FC" transform="translate(296,196)"/>
<path d="M0 0 C0 3.50481678 -0.49237247 3.92840405 -2.75 6.4375 C-3.2965625 7.04722656 -3.843125 7.65695313 -4.40625 8.28515625 C-10.57040521 14.91766639 -10.57040521 14.91766639 -13.97119141 15.11352539 C-14.75671387 15.10828857 -15.54223633 15.10305176 -16.3515625 15.09765625 C-17.20234375 15.09443359 -18.053125 15.09121094 -18.9296875 15.08789062 C-19.81914062 15.07951172 -20.70859375 15.07113281 -21.625 15.0625 C-22.97078125 15.05573242 -22.97078125 15.05573242 -24.34375 15.04882812 C-26.56256648 15.03702591 -28.78125018 15.02056155 -31 15 C-30.67 15.99 -30.34 16.98 -30 18 C-27.98491642 18.73323796 -27.98491642 18.73323796 -26 19 C-25.23404255 39.53191489 -25.23404255 39.53191489 -30 49 C-30.12375 48.443125 -30.2475 47.88625 -30.375 47.3125 C-30.94127175 44.96588543 -30.94127175 44.96588543 -32.02685547 42.75512695 C-33.1622238 39.54071863 -33.227582 37.00990096 -33.1953125 33.60546875 C-33.18886719 32.40341797 -33.18242187 31.20136719 -33.17578125 29.96289062 C-33.15902344 28.71701172 -33.14226562 27.47113281 -33.125 26.1875 C-33.11597656 24.92228516 -33.10695313 23.65707031 -33.09765625 22.35351562 C-33.07412394 19.23548436 -33.04124545 16.11783903 -33 13 C-32.39115967 13.03254883 -31.78231934 13.06509766 -31.1550293 13.09863281 C-18.36862682 14.06589607 -18.36862682 14.06589607 -7.08984375 9.26171875 C-4.34231518 6.42153847 -2.10447189 3.33795421 0 0 Z " fill="#E8AC5A" transform="translate(389,140)"/>
<path d="M0 0 C0 0.33 0 0.66 0 1 C-1.65 1.33 -3.3 1.66 -5 2 C-4.34 2.33 -3.68 2.66 -3 3 C-3.3125 4.9375 -3.3125 4.9375 -4 7 C-7 8 -7 8 -9 8 C-19.13160474 15.23686053 -24.64879929 21.71806995 -27 34 C-27.48831698 38.32911786 -27.79937826 42.6485836 -28 47 C-28.33 47 -28.66 47 -29 47 C-29.11709643 43.47945086 -29.1875469 39.95940888 -29.25 36.4375 C-29.28351563 35.44685547 -29.31703125 34.45621094 -29.3515625 33.43554688 C-29.43674332 27.02569005 -28.82681304 23.20559127 -25 18 C-23.66666667 17 -22.33333333 16 -21 15 C-21 13.68 -21 12.36 -21 11 C-19 7.75 -19 7.75 -17 5 C-19.64 5.66 -22.28 6.32 -25 7 C-19.18301162 -0.66784832 -8.75729681 -0.44951904 0 0 Z " fill="#66BBAA" transform="translate(323,163)"/>
<path d="M0 0 C0.33 0 0.66 0 1 0 C1 1.98 1 3.96 1 6 C5.455 5.505 5.455 5.505 10 5 C8.58419794 9.55374932 6.04489128 12.37907589 2.6875 15.625 C2.21376953 16.10195312 1.74003906 16.57890625 1.25195312 17.0703125 C-1.5997187 19.87907271 -4.38783671 22.24676412 -8 24 C-8.66 23.67 -9.32 23.34 -10 23 C-9.62875 22.13375 -9.2575 21.2675 -8.875 20.375 C-7.85559952 16.44302674 -8.42687504 14.67062491 -10 11 C-9.21625 10.7525 -8.4325 10.505 -7.625 10.25 C-4.55162986 8.78649041 -4.22881579 8.07203947 -3 5 C-2.0398183 3.31008021 -1.04644066 1.63790712 0 0 Z " fill="#9DA267" transform="translate(357,190)"/>
<path d="M0 0 C0.99386719 0.10183594 1.98773438 0.20367187 3.01171875 0.30859375 C3.77097656 0.39238281 4.53023438 0.47617188 5.3125 0.5625 C3.77843371 3.87717895 2.44938367 5.60194771 -0.6875 7.5625 C-1.3475 7.5625 -2.0075 7.5625 -2.6875 7.5625 C-2.94273437 8.28824219 -3.19796875 9.01398438 -3.4609375 9.76171875 C-4.75551074 12.7177984 -6.29205104 14.86814666 -8.3125 17.375 C-8.94414062 18.16519531 -9.57578125 18.95539063 -10.2265625 19.76953125 C-10.70867187 20.36121094 -11.19078125 20.95289063 -11.6875 21.5625 C-11.6875 20.5725 -11.6875 19.5825 -11.6875 18.5625 C-13.0075 17.9025 -14.3275 17.2425 -15.6875 16.5625 C-15.43029326 14.97689607 -15.15611201 13.39404076 -14.875 11.8125 C-14.64876953 10.48992187 -14.64876953 10.48992187 -14.41796875 9.140625 C-13.36222358 5.41446557 -11.38706987 3.26206987 -8.6875 0.5625 C-5.3763987 -0.54120043 -3.44001051 -0.36423641 0 0 Z " fill="#FD9A25" transform="translate(407.6875,125.4375)"/>
<path d="M0 0 C-0.33 1.32 -0.66 2.64 -1 4 C-1.66 4 -2.32 4 -3 4 C-2.67 5.32 -2.34 6.64 -2 8 C-2.66 8 -3.32 8 -4 8 C-4.04125 8.5775 -4.0825 9.155 -4.125 9.75 C-5.4391917 13.12935009 -7.98378574 14.10747341 -11 16 C-13.45711727 18.25235749 -15.14154812 20.21232218 -17 23 C-16.40075776 18.80530429 -15.42500059 14.99000166 -14 11 C-14.66 10.67 -15.32 10.34 -16 10 C-15.34 8.68 -14.68 7.36 -14 6 C-14.66 5.67 -15.32 5.34 -16 5 C-15.34 5 -14.68 5 -14 5 C-13.67 4.01 -13.34 3.02 -13 2 C-10.8203125 1.015625 -10.8203125 1.015625 -8.125 0.25 C-7.24070312 -0.01296875 -6.35640625 -0.2759375 -5.4453125 -0.546875 C-3 -1 -3 -1 0 0 Z " fill="#20B7BA" transform="translate(336,209)"/>
<path d="M0 0 C0 0.99 0 1.98 0 3 C0.66 3.33 1.32 3.66 2 4 C1.37266587 7.19940408 1.06895781 8.55164895 -1 11 C-5.53659447 13.15875638 -10.17756413 14.61761085 -15 16 C-15.33 15.34 -15.66 14.68 -16 14 C-15.34 14 -14.68 14 -14 14 C-14.33 12.68 -14.66 11.36 -15 10 C-14.34 9.67 -13.68 9.34 -13 9 C-12.88398438 8.21367187 -12.76796875 7.42734375 -12.6484375 6.6171875 C-12 4 -12 4 -10.0390625 2.3828125 C-9.24242187 1.96773437 -8.44578125 1.55265625 -7.625 1.125 C-6.83351563 0.69445312 -6.04203125 0.26390625 -5.2265625 -0.1796875 C-3 -1 -3 -1 0 0 Z " fill="#40B3A3" transform="translate(348,203)"/>
<path d="M0 0 C4.98232221 1.27454754 7.70268484 3.04322181 11 7 C11.8125 9.3125 11.8125 9.3125 12 11 C11.34 11.33 10.68 11.66 10 12 C9.505 10.02 9.505 10.02 9 8 C8.31035156 7.87882813 7.62070312 7.75765625 6.91015625 7.6328125 C1.54519207 6.67609735 -3.75153989 5.64025412 -9.02734375 4.26953125 C-11.36063686 3.95072486 -12.80959036 4.13572563 -15 5 C-15.99 6.485 -15.99 6.485 -17 8 C-16.01 8.33 -15.02 8.66 -14 9 C-14 9.66 -14 10.32 -14 11 C-14.804375 10.67 -15.60875 10.34 -16.4375 10 C-20.73804795 8.79282865 -24.56966181 8.82278647 -29 9 C-28.5 7.1875 -28.5 7.1875 -27 5 C-21.04666116 2.06942944 -16.05590821 1.60429119 -9.5 1.8125 C-8.67757813 1.82603516 -7.85515625 1.83957031 -7.0078125 1.85351562 C-5.00491779 1.88844984 -3.00236644 1.94223943 -1 2 C-0.67 1.34 -0.34 0.68 0 0 Z " fill="#BF9842" transform="translate(336,172)"/>
<path d="M0 0 C0.33 0 0.66 0 1 0 C1.27855323 14.34549132 1.19030158 25.71454763 -7 38 C-8.9453125 38.51171875 -8.9453125 38.51171875 -11.125 38.6875 C-13.043125 38.8421875 -13.043125 38.8421875 -15 39 C-14.401875 38.2575 -13.80375 37.515 -13.1875 36.75 C-12.1046875 35.38875 -12.1046875 35.38875 -11 34 C-10.1028125 32.9790625 -10.1028125 32.9790625 -9.1875 31.9375 C-7.79155211 30.11430251 -7.79155211 30.11430251 -8.234375 28.17578125 C-9.15940922 25.54698502 -10.47930479 23.54058031 -12.0625 21.25 C-12.61035156 20.45078125 -13.15820312 19.6515625 -13.72265625 18.828125 C-14.14417969 18.22484375 -14.56570313 17.6215625 -15 17 C-10.48235513 18.57933926 -9.40905409 19.9150822 -7 24 C-4.91466367 24.87822312 -4.91466367 24.87822312 -3 25 C-3 24.34 -3 23.68 -3 23 C-3.66 23 -4.32 23 -5 23 C-4.42655063 20.13275314 -4.1385485 19.1385485 -2 17 C-1.5326333 14.1092504 -1.16300658 11.28339431 -0.875 8.375 C-0.74544922 7.17230469 -0.74544922 7.17230469 -0.61328125 5.9453125 C-0.40103673 3.96436365 -0.19950069 1.98227282 0 0 Z " fill="#FAF5E6" transform="translate(355,153)"/>
<path d="M0 0 C0 11.55 0 23.1 0 35 C-6.27 35 -12.54 35 -19 35 C-19.18862194 31.04913506 -19.37096189 27.09877135 -19.53710938 23.14697266 C-19.59555475 21.80240434 -19.65771076 20.45799202 -19.72363281 19.11376953 C-19.81767443 17.18306663 -19.89732692 15.2516797 -19.9765625 13.3203125 C-20.05511475 11.57645264 -20.05511475 11.57645264 -20.13525391 9.79736328 C-20 7 -20 7 -18 5 C-15.33836432 4.05351317 -12.70176932 3.18742014 -10 2.375 C-9.26265625 2.14554688 -8.5253125 1.91609375 -7.765625 1.6796875 C-2.28664435 0 -2.28664435 0 0 0 Z M-18 8 C-18 16.25 -18 24.5 -18 33 C-12.39 33 -6.78 33 -1 33 C-0.97708513 29.0306345 -0.95715985 25.0614368 -0.94506836 21.09204102 C-0.94002943 19.74079614 -0.93319823 18.38955674 -0.92456055 17.03833008 C-0.91247581 15.09979566 -0.90730172 13.161222 -0.90234375 11.22265625 C-0.89710693 10.05484619 -0.89187012 8.88703613 -0.88647461 7.68383789 C-0.69338505 5.08108449 -0.69338505 5.08108449 -2 4 C-8.48153261 3.16903428 -11.21120601 5.28448241 -18 8 Z " fill="#E19744" transform="translate(351,213)"/>
<path d="M0 0 C0.99 0.495 0.99 0.495 2 1 C2 13.21 2 25.42 2 38 C5.96 36.68 9.92 35.36 14 34 C18.27734375 33.57421875 18.27734375 33.57421875 21.9375 33.6875 C23.16339844 33.71199219 24.38929688 33.73648438 25.65234375 33.76171875 C28.53143783 33.96664843 31.1941519 34.34512464 34 35 C33.505 35.99 33.505 35.99 33 37 C32.27941406 36.84144531 31.55882812 36.68289062 30.81640625 36.51953125 C19.45462959 34.42366954 10.44931122 37.82027551 0 42 C0 28.14 0 14.28 0 0 Z " fill="#D4F9F6" transform="translate(295,128)"/>
<path d="M0 0 C5.94 0 11.88 0 18 0 C18 13.2 18 26.4 18 40 C17.67 40 17.34 40 17 40 C16.85615173 35.57092712 16.71378867 31.14180964 16.57275391 26.71264648 C16.52465165 25.20840186 16.47615577 23.70416976 16.42724609 22.19995117 C16.35669107 20.02786446 16.28758938 17.85573543 16.21875 15.68359375 C16.17685547 14.37962646 16.13496094 13.07565918 16.09179688 11.73217773 C16.00376194 8.15294897 15.98379114 4.58013262 16 1 C9.565 1.495 9.565 1.495 3 2 C2.02467515 10.07326186 2.02467515 10.07326186 2.5625 18.125 C3.12024548 23.06503139 2.18650834 27.21474322 1 32 C0.67 32 0.34 32 0 32 C0 21.44 0 10.88 0 0 Z " fill="#6EC9C2" transform="translate(277,128)"/>
<path d="M0 0 C2.4375 2.4375 2.4375 2.4375 4 5 C2.56705502 5.84114171 1.12845595 6.67265687 -0.3125 7.5 C-1.11300781 7.9640625 -1.91351563 8.428125 -2.73828125 8.90625 C-5 10 -5 10 -8 10 C-8 9.34 -8 8.68 -8 8 C-12.29 7.67 -16.58 7.34 -21 7 C-16.38955339 3.54216504 -12.49417631 2.40529009 -7 1 C-6.31808594 0.80664062 -5.63617188 0.61328125 -4.93359375 0.4140625 C-3.125 0 -3.125 0 0 0 Z " fill="#6CC2B4" transform="translate(341,198)"/>
<path d="M0 0 C0.33 0 0.66 0 1 0 C0.29065136 7.5190956 -0.75219011 15.62828516 -5 22 C-7.3828125 22.51171875 -7.3828125 22.51171875 -10.125 22.6875 C-11.49011719 22.78611328 -11.49011719 22.78611328 -12.8828125 22.88671875 C-13.58148438 22.92410156 -14.28015625 22.96148437 -15 23 C-15.34615998 17.34605369 -14.43425238 13.96993194 -12 9 C-11.67 10.32 -11.34 11.64 -11 13 C-9.68 13.33 -8.36 13.66 -7 14 C-7 15.32 -7 16.64 -7 18 C-6.34 18 -5.68 18 -5 18 C-4.87753906 17.48953125 -4.75507813 16.9790625 -4.62890625 16.453125 C-3.79491426 13.20003824 -2.86402726 9.97790141 -1.9375 6.75 C-1.57527344 5.48671875 -1.21304687 4.2234375 -0.83984375 2.921875 C-0.56269531 1.95765625 -0.28554688 0.9934375 0 0 Z " fill="#B59A50" transform="translate(373,173)"/>
<path d="M0 0 C-1.6396875 0.61875 -1.6396875 0.61875 -3.3125 1.25 C-6.50504948 2.62654462 -8.36005642 3.81658012 -10 7 C-10 8.32 -10 9.64 -10 11 C-10.66 11 -11.32 11 -12 11 C-11.67 11.99 -11.34 12.98 -11 14 C-11.99 14.495 -11.99 14.495 -13 15 C-13.33 14.01 -13.66 13.02 -14 12 C-15.98246398 10.96567096 -17.98413316 9.96761608 -20 9 C-21.875 7.4375 -21.875 7.4375 -23 6 C-23 5.34 -23 4.68 -23 4 C-19.92090233 3.13003414 -16.83621369 2.28184148 -13.75 1.4375 C-12.87730469 1.19064453 -12.00460937 0.94378906 -11.10546875 0.68945312 C-9.83896484 0.34624023 -9.83896484 0.34624023 -8.546875 -0.00390625 C-7.77182617 -0.21861572 -6.99677734 -0.4333252 -6.19824219 -0.65454102 C-3.80975982 -1.0298967 -2.279036 -0.74681558 0 0 Z " fill="#F7A23A" transform="translate(405,125)"/>
<path d="M0 0 C0.33 0 0.66 0 1 0 C1.33 11.55 1.66 23.1 2 35 C2.99 34.505 2.99 34.505 4 34 C2.29645445 41.00887312 -0.54466067 46.17563968 -6 51 C-6.66 51 -7.32 51 -8 51 C-8 50.34 -8 49.68 -8 49 C-10.475 49.495 -10.475 49.495 -13 50 C-12.29875 49.484375 -11.5975 48.96875 -10.875 48.4375 C-6.42673807 44.66614749 -2.09295547 40.90545601 -1 35 C-0.84947591 32.31168621 -0.74394884 29.64337245 -0.68359375 26.953125 C-0.66281265 26.18192322 -0.64203156 25.41072144 -0.62062073 24.6161499 C-0.55541428 22.16085428 -0.49637516 19.70545479 -0.4375 17.25 C-0.39428726 15.58202065 -0.3506721 13.91405168 -0.30664062 12.24609375 C-0.19976264 8.16416804 -0.09841434 4.08213818 0 0 Z " fill="#B8F2F2" transform="translate(295,197)"/>
<path d="M0 0 C1.89551022 -0.05441656 3.7914792 -0.09298035 5.6875 -0.125 C6.74324219 -0.14820313 7.79898437 -0.17140625 8.88671875 -0.1953125 C12.02251859 0.00141271 14.17645373 0.66942346 17 2 C16.13375 2.37125 16.13375 2.37125 15.25 2.75 C12.90701081 3.871761 12.90701081 3.871761 11.40625 5.9375 C8.00420867 8.85353543 4.57047709 9.37587362 0.25 10.25 C-0.54277344 10.42273438 -1.33554687 10.59546875 -2.15234375 10.7734375 C-4.09873515 11.19554648 -6.04903064 11.59958271 -8 12 C-5.42215154 9.35247996 -3.08351902 7.05567935 0 5 C0.99 5 1.98 5 3 5 C3.33 4.01 3.66 3.02 4 2 C2.68 1.34 1.36 0.68 0 0 Z " fill="#82B18F" transform="translate(316,164)"/>
<path d="M0 0 C0.33 0 0.66 0 1 0 C1.33 7.59 1.66 15.18 2 23 C4.97 22.01 7.94 21.02 11 20 C11.99 20.33 12.98 20.66 14 21 C12.68 22.65 11.36 24.3 10 26 C10.33 26.66 10.66 27.32 11 28 C8.59016393 32.70491803 8.59016393 32.70491803 6 34 C6.66 32.68 7.32 31.36 8 30 C7.34 29.67 6.68 29.34 6 29 C3.88316159 29.89163577 3.88316159 29.89163577 2 31 C2.3079248 30.12214844 2.3079248 30.12214844 2.62207031 29.2265625 C3.09257623 26.45458966 2.52937465 25.7073007 1.046875 23.375 C-1.58486619 18.49201032 -1.27284439 14.40272533 -0.75 9 C-0.68425781 8.12988281 -0.61851562 7.25976562 -0.55078125 6.36328125 C-0.38749252 4.24052781 -0.19660615 2.11992721 0 0 Z " fill="#49C4BF" transform="translate(293,147)"/>
<path d="M0 0 C3.95294182 2.31623393 6.77267007 4.71663525 8.55078125 9.05078125 C8.55078125 10.37078125 8.55078125 11.69078125 8.55078125 13.05078125 C11.52078125 11.73078125 14.49078125 10.41078125 17.55078125 9.05078125 C17.22078125 10.04078125 16.89078125 11.03078125 16.55078125 12.05078125 C15.89078125 12.05078125 15.23078125 12.05078125 14.55078125 12.05078125 C14.55078125 12.71078125 14.55078125 13.37078125 14.55078125 14.05078125 C12.24078125 14.71078125 9.93078125 15.37078125 7.55078125 16.05078125 C7.41542969 15.27992188 7.28007812 14.5090625 7.140625 13.71484375 C6.48638908 10.66696623 5.79497103 7.91198423 4.55078125 5.05078125 C1.15814403 3.2472427 1.15814403 3.2472427 -2.44921875 3.05078125 C-3.43921875 2.72078125 -4.42921875 2.39078125 -5.44921875 2.05078125 C-10.28027267 1.77732537 -13.94224129 2.29196078 -18.44921875 4.05078125 C-19.10921875 3.39078125 -19.76921875 2.73078125 -20.44921875 2.05078125 C-14.4149435 -1.97206892 -6.79757114 -2.63446537 0 0 Z " fill="#F9F4DF" transform="translate(322.44921875,182.94921875)"/>
<path d="M0 0 C1 3 1 3 -2 16 C-10.91 16 -19.82 16 -29 16 C-27.02 13.36 -25.04 10.72 -23 8 C-21.15687558 4.20588037 -21.15687558 4.20588037 -20 1 C-19.3125 2.625 -19.3125 2.625 -19 5 C-20.375 8.125 -20.375 8.125 -22 11 C-22.33 11.66 -22.66 12.32 -23 13 C-16.4 13 -9.8 13 -3 13 C-2.67 10.03 -2.34 7.06 -2 4 C-1.34 2.68 -0.68 1.36 0 0 Z " fill="#41B7BD" transform="translate(318,232)"/>
<path d="M0 0 C-0.55187986 13.11190414 -2.18498036 26.00971832 -4 39 C-6.57965997 37.79215074 -8.3208165 36.71928556 -10.5 34.8125 C-12.80218605 32.71713914 -12.80218605 32.71713914 -15.3125 33.25 C-15.869375 33.4975 -16.42625 33.745 -17 34 C-16.67 33.01 -16.34 32.02 -16 31 C-11.46574028 31.53344232 -8.70961252 33.43101626 -5 36 C-4.95101563 34.97003906 -4.90203125 33.94007813 -4.8515625 32.87890625 C-4.32072388 22.52081037 -3.32589507 12.28534137 -2 2 C-3.85625 2.5259375 -3.85625 2.5259375 -5.75 3.0625 C-8.903292 3.95593273 -10.86774164 4.00881294 -14 3 C-12.4188708 2.49307308 -10.83498617 1.99473557 -9.25 1.5 C-8.36828125 1.2215625 -7.4865625 0.943125 -6.578125 0.65625 C-4 0 -4 0 0 0 Z " fill="#E19538" transform="translate(419,120)"/>
<path d="M0 0 C0.33 0 0.66 0 1 0 C1.04898437 0.59167969 1.09796875 1.18335938 1.1484375 1.79296875 C1.56314107 6.81212907 1.56314107 6.81212907 3.25 11.5 C4.46726693 15.55755645 2.89378087 19.30676451 1 23 C0.01 23.66 -0.98 24.32 -2 25 C-4.22189008 19.77202334 -4.05488103 16.45021863 -3 11 C-2.34964186 9.65863633 -1.6837045 8.32467746 -1 7 C-0.61250787 4.67504723 -0.27017161 2.34148732 0 0 Z " fill="#ADBA90" transform="translate(355,171)"/>
<path d="M0 0 C0.33 0.99 0.66 1.98 1 3 C-0.328125 4.90234375 -0.328125 4.90234375 -2.25 6.9375 C-5.02874602 9.90099108 -5.02874602 9.90099108 -7.31640625 13.23828125 C-9 15 -9 15 -12.13671875 15.390625 C-13.30847656 15.34421875 -14.48023438 15.2978125 -15.6875 15.25 C-16.86699219 15.21390625 -18.04648437 15.1778125 -19.26171875 15.140625 C-20.16535156 15.09421875 -21.06898438 15.0478125 -22 15 C-22.03738281 15.65226563 -22.07476562 16.30453125 -22.11328125 16.9765625 C-22.51197346 22.27682361 -23.06228462 26.41716401 -26 31 C-26.66 31.33 -27.32 31.66 -28 32 C-27.79503906 31.21496094 -27.59007812 30.42992187 -27.37890625 29.62109375 C-25.96045756 24.08982255 -24.64503363 18.67629598 -24 13 C-19.38 13 -14.76 13 -10 13 C-9.67 12.01 -9.34 11.02 -9 10 C-7.35570171 8.31126121 -5.68615782 6.64694485 -4 5 C-2.64444707 3.35135455 -1.30368347 1.68996005 0 0 Z " fill="#FCECC7" transform="translate(398,158)"/>
<path d="M0 0 C2.19909405 2.19909405 4.07423885 4.56070254 6 7 C3.37347975 10.59930552 1.06036357 13.07666989 -3 15 C-3.66 14.67 -4.32 14.34 -5 14 C-4.62875 13.13375 -4.2575 12.2675 -3.875 11.375 C-2.85559952 7.44302674 -3.42687504 5.67062491 -5 2 C-2 0 -2 0 0 0 Z " fill="#74A883" transform="translate(352,199)"/>
<path d="M0 0 C0 0.99 0 1.98 0 3 C-1.21562622 4.07834106 -1.21562622 4.07834106 -2.45581055 5.1784668 C-5.68936287 8.76451077 -5.73150838 11.54010324 -5.70703125 16.14453125 C-5.72215256 16.91431808 -5.73727386 17.68410492 -5.75285339 18.47721863 C-5.79565263 20.92261218 -5.8045601 23.3667696 -5.8125 25.8125 C-5.83565061 27.47594414 -5.86101713 29.13935902 -5.88867188 30.80273438 C-5.95144647 34.86859846 -5.98384249 38.93369425 -6 43 C-6.66 43 -7.32 43 -8 43 C-8.19870375 38.00145423 -8.3433522 33.00523473 -8.43945312 28.00366211 C-8.47953163 26.30501236 -8.53401432 24.606636 -8.60351562 22.90893555 C-9.16852951 8.74619773 -9.16852951 8.74619773 -6.18359375 4.28564453 C-4.19555478 2.54611043 -2.3486201 1.19714753 0 0 Z " fill="#F6E9CA" transform="translate(359,205)"/>
<path d="M0 0 C0 1.32 0 2.64 0 4 C-1.72078041 4.8709379 -3.45206323 5.72114558 -5.1875 6.5625 C-6.15042969 7.03816406 -7.11335938 7.51382813 -8.10546875 8.00390625 C-11.27718777 9.0953885 -12.83698225 8.96567452 -16 8 C-16 6.68 -16 5.36 -16 4 C-5.62642369 -0.59225513 -5.62642369 -0.59225513 0 0 Z " fill="#CE7609" transform="translate(349,217)"/>
<path d="M0 0 C0.99 0.33 1.98 0.66 3 1 C3.33 2.65 3.66 4.3 4 6 C2.90554162 6.86657116 1.79902219 7.71792724 0.6875 8.5625 C0.07261719 9.03816406 -0.54226563 9.51382813 -1.17578125 10.00390625 C-1.77777344 10.33261719 -2.37976563 10.66132813 -3 11 C-3.99 10.67 -4.98 10.34 -6 10 C-6.99 11.485 -6.99 11.485 -8 13 C-9.32 13 -10.64 13 -12 13 C-11.34 11.02 -10.68 9.04 -10 7 C-9.01 7 -8.02 7 -7 7 C-7 6.34 -7 5.68 -7 5 C-5.02 4.67 -3.04 4.34 -1 4 C-0.67 2.68 -0.34 1.36 0 0 Z " fill="#1BC1C6" transform="translate(315,211)"/>
<path d="M0 0 C0.33 0 0.66 0 1 0 C2.01258452 15.00794906 2.1144481 29.96152009 2 45 C4.31 45.33 6.62 45.66 9 46 C7.515 46.495 7.515 46.495 6 47 C5.67 47.99 5.34 48.98 5 50 C3.35 50 1.7 50 0 50 C0 33.5 0 17 0 0 Z " fill="#12B7BE" transform="translate(278,195)"/>
<path d="M0 0 C0 0.99 0 1.98 0 3 C0.66 3.33 1.32 3.66 2 4 C0.8125 7.4375 0.8125 7.4375 -1 11 C-3.6875 11.9375 -3.6875 11.9375 -6 12 C-5.34 10.68 -4.68 9.36 -4 8 C-5.32 7.34 -6.64 6.68 -8 6 C-8 5.34 -8 4.68 -8 4 C-8.66 3.67 -9.32 3.34 -10 3 C-3.375 -1.125 -3.375 -1.125 0 0 Z " fill="#63AE8F" transform="translate(348,203)"/>
<path d="M0 0 C2.5 2.3125 2.5 2.3125 5 5 C5 8 5 8 3.3125 9.75 C1 11 1 11 -1.625 11 C-4 10 -4 10 -5.375 7.625 C-6 5 -6 5 -5 2 C-2.4375 0.8125 -2.4375 0.8125 0 0 Z " fill="#F98607" transform="translate(335,182)"/>
<path d="M0 0 C4.42689381 1.58154934 5.90995079 2.72037542 8 7 C8.69822617 8.65369357 9.37498605 10.31727014 10 12 C10.66 12 11.32 12 12 12 C11.34317889 15.54683401 10.33005823 18.21896276 8 21 C5.27084716 21.74431441 2.85501309 21.85958952 0 22 C0.598125 21.2575 1.19625 20.515 1.8125 19.75 C2.534375 18.8425 3.25625 17.935 4 17 C4.598125 16.319375 5.19625 15.63875 5.8125 14.9375 C7.20844789 13.11430251 7.20844789 13.11430251 6.765625 11.17578125 C5.84059078 8.54698502 4.52069521 6.54058031 2.9375 4.25 C2.38964844 3.45078125 1.84179688 2.6515625 1.27734375 1.828125 C0.64505859 0.92320312 0.64505859 0.92320312 0 0 Z " fill="#F9F1DA" transform="translate(340,170)"/>
<path d="M0 0 C1.64869317 0.03780073 3.29594032 0.15470302 4.9375 0.3125 C5.83339844 0.39113281 6.72929687 0.46976563 7.65234375 0.55078125 C10 1 10 1 12 3 C9.02588876 4.23921302 6.14737182 5.30058404 3 6 C3.33 7.32 3.66 8.64 4 10 C4.66 10 5.32 10 6 10 C5.67 10.66 5.34 11.32 5 12 C0.125 9.375 0.125 9.375 -1 6 C-1.66 5.67 -2.32 5.34 -3 5 C-1.125 1.125 -1.125 1.125 0 0 Z " fill="#D89029" transform="translate(322,175)"/>
<path d="M0 0 C0.33 0 0.66 0 1 0 C1.33 7.59 1.66 15.18 2 23 C2.99 22.67 3.98 22.34 5 22 C6.32854177 27.9180497 5.66464729 30.77729131 3 36 C2.87625 35.443125 2.7525 34.88625 2.625 34.3125 C2.05872825 31.96588543 2.05872825 31.96588543 0.97314453 29.75512695 C-0.1622238 26.54071863 -0.227582 24.00990096 -0.1953125 20.60546875 C-0.18886719 19.40341797 -0.18242187 18.20136719 -0.17578125 16.96289062 C-0.15902344 15.71701172 -0.14226562 14.47113281 -0.125 13.1875 C-0.11597656 11.92228516 -0.10695313 10.65707031 -0.09765625 9.35351562 C-0.07412394 6.23548436 -0.04124545 3.11783903 0 0 Z " fill="#D1B26F" transform="translate(356,153)"/>
<path d="M0 0 C-0.33 1.32 -0.66 2.64 -1 4 C-1.66 4 -2.32 4 -3 4 C-2.67 5.32 -2.34 6.64 -2 8 C-2.66 8 -3.32 8 -4 8 C-4.33 9.32 -4.66 10.64 -5 12 C-5.33 12 -5.66 12 -6 12 C-6 9.36 -6 6.72 -6 4 C-8.64 4 -11.28 4 -14 4 C-11.61605071 0.72206973 -8.67917602 0.16979401 -4.9375 -0.765625 C-3 -1 -3 -1 0 0 Z " fill="#2BB6B2" transform="translate(336,209)"/>
<path d="M0 0 C0 2.31 0 4.62 0 7 C-0.66 6.34 -1.32 5.68 -2 5 C-7.49520213 4.31309973 -12.93331494 5.91989201 -18 8 C-18.33 8.66 -18.66 9.32 -19 10 C-19.33 9.01 -19.66 8.02 -20 7 C-17.16556078 4.16556078 -13.74786481 3.50198033 -10 2.375 C-9.26265625 2.14554688 -8.5253125 1.91609375 -7.765625 1.6796875 C-2.28664435 0 -2.28664435 0 0 0 Z " fill="#A98338" transform="translate(351,213)"/>
<path d="M0 0 C8.57142857 -0.28571429 8.57142857 -0.28571429 12 2 C11.50769231 8.4 11.50769231 8.4 8.9375 11.4375 C8.298125 11.953125 7.65875 12.46875 7 13 C7 12.01 7 11.02 7 10 C7.66 10 8.32 10 9 10 C9 8.68 9 7.36 9 6 C8.360625 5.896875 7.72125 5.79375 7.0625 5.6875 C6.381875 5.460625 5.70125 5.23375 5 5 C4.67 4.01 4.34 3.02 4 2 C2.68 2 1.36 2 0 2 C0 1.34 0 0.68 0 0 Z " fill="#DA932A" transform="translate(334,178)"/>
<path d="M0 0 C0.9590625 0.01546875 1.918125 0.0309375 2.90625 0.046875 C5.5 0.25 5.5 0.25 8.5 1.25 C8.5 2.24 8.5 3.23 8.5 4.25 C4.045 4.745 4.045 4.745 -0.5 5.25 C-0.5 4.59 -0.5 3.93 -0.5 3.25 C-3.14 3.25 -5.78 3.25 -8.5 3.25 C-5.94493071 -0.03015652 -4.05218785 -0.10892978 0 0 Z " fill="#4BC2BB" transform="translate(324.5,204.75)"/>
<path d="M0 0 C0.185625 0.9590625 0.185625 0.9590625 0.375 1.9375 C0.684375 2.9584375 0.684375 2.9584375 1 4 C1.66 4.33 2.32 4.66 3 5 C3 5.66 3 6.32 3 7 C4.98 6.67 6.96 6.34 9 6 C7.35 7.98 5.7 9.96 4 12 C1.15425032 10.72431911 -1.18089981 9.58503711 -3 7 C-2.75546876 3.65807308 -2.39456443 2.39456443 0 0 Z " fill="#8CA478" transform="translate(355,194)"/>
<path d="M0 0 C0.33 0.99 0.66 1.98 1 3 C0.01 3.33 -0.98 3.66 -2 4 C-1.979375 5.051875 -1.95875 6.10375 -1.9375 7.1875 C-1.98968547 10.37081347 -2.29116542 12.9283835 -3 16 C-3.33944795 17.99897128 -3.67421616 19.99875639 -4 22 C-4.99 22 -5.98 22 -7 22 C-6.67452746 14.35139528 -5.65420636 5.65420636 0 0 Z " fill="#D2F7F8" transform="translate(323,226)"/>
<path d="M0 0 C-2.69077384 1.79384923 -4.27386232 2.48899989 -7.30859375 3.2890625 C-8.13810547 3.50820312 -8.96761719 3.72734375 -9.82226562 3.953125 C-11.11680664 4.28570312 -11.11680664 4.28570312 -12.4375 4.625 C-13.72624023 4.96917969 -13.72624023 4.96917969 -15.04101562 5.3203125 C-18.89508952 6.32494309 -21.97386519 7 -26 7 C-26.33 7.66 -26.66 8.32 -27 9 C-27 7.68 -27 6.36 -27 5 C-18.31550534 1.76171385 -9.31514155 -0.22425341 0 0 Z " fill="#FDEDCB" transform="translate(408,122)"/>
<path d="M0 0 C0.08097324 2.27024968 0.13917704 4.54132075 0.1875 6.8125 C0.22230469 8.07707031 0.25710938 9.34164062 0.29296875 10.64453125 C0 14 0 14 -3 17 C-2.67 11.72 -2.34 6.44 -2 1 C-4.64 1.33 -7.28 1.66 -10 2 C-10 1.34 -10 0.68 -10 0 C-6.26940301 -0.95929637 -3.73201925 -0.84676067 0 0 Z " fill="#FDF1D3" transform="translate(421,119)"/>
<path d="M0 0 C0.33 0 0.66 0 1 0 C1.1419852 3.54963005 1.19559111 6.43215485 0.03125 9.8125 C-1.07966794 13.24624636 -1.404858 16.27934729 -1.625 19.875 C-1.69976562 21.02742188 -1.77453125 22.17984375 -1.8515625 23.3671875 C-1.92503906 24.67042969 -1.92503906 24.67042969 -2 26 C-2.33 26 -2.66 26 -3 26 C-3.08720919 22.41682042 -3.14046112 18.83391433 -3.1875 15.25 C-3.21263672 14.23421875 -3.23777344 13.2184375 -3.26367188 12.171875 C-3.27333984 11.1921875 -3.28300781 10.2125 -3.29296875 9.203125 C-3.3086792 8.30239258 -3.32438965 7.40166016 -3.34057617 6.47363281 C-2.9356151 3.53236715 -1.99365809 2.16229162 0 0 Z " fill="#40B6B0" transform="translate(297,184)"/>
<path d="M0 0 C0.66 0.99 1.32 1.98 2 3 C0.640625 4.984375 0.640625 4.984375 -2 7 C-5.42513915 7.51270905 -8.79637621 7.37576221 -12.25 7.25 C-13.18585938 7.23195312 -14.12171875 7.21390625 -15.0859375 7.1953125 C-17.39167015 7.14825673 -19.69530945 7.08253713 -22 7 C-22 9.31 -22 11.62 -22 14 C-22.33 14 -22.66 14 -23 14 C-23 11.36 -23 8.72 -23 6 C-22.16807129 5.99383667 -22.16807129 5.99383667 -21.31933594 5.98754883 C-18.795156 5.95455819 -16.27337304 5.88391622 -13.75 5.8125 C-12.44095703 5.80379883 -12.44095703 5.80379883 -11.10546875 5.79492188 C-5.66247232 5.66612003 -5.66247232 5.66612003 -1.390625 2.44921875 C-0.93171875 1.64097656 -0.4728125 0.83273438 0 0 Z " fill="#F9901A" transform="translate(387,154)"/>
<path d="M0 0 C0.66 0.33 1.32 0.66 2 1 C0.515 3.475 0.515 3.475 -1 6 C-0.01 6.33 0.98 6.66 2 7 C0.906875 7.598125 -0.18625 8.19625 -1.3125 8.8125 C-3.91074129 10.29044697 -6.04349493 11.69822933 -8 14 C-7.84036991 7.61479646 -4.21875117 4.33991635 0 0 Z " fill="#97A675" transform="translate(306,176)"/>
<path d="M0 0 C0.33 0.99 0.66 1.98 1 3 C-0.328125 4.9375 -0.328125 4.9375 -2.25 7 C-2.87390625 7.680625 -3.4978125 8.36125 -4.140625 9.0625 C-5.74068213 10.72978642 -7.35592507 12.3762223 -9 14 C-7.65070536 10.16336928 -5.92248975 7.34827431 -3.375 4.1875 C-2.42753906 3.00220703 -2.42753906 3.00220703 -1.4609375 1.79296875 C-0.97882813 1.20128906 -0.49671875 0.60960937 0 0 Z M-23 14 C-18.38 14 -13.76 14 -9 14 C-9 14.33 -9 14.66 -9 15 C-13.29 15 -17.58 15 -22 15 C-22.33 15.66 -22.66 16.32 -23 17 C-23 16.01 -23 15.02 -23 14 Z " fill="#FDF8E6" transform="translate(398,158)"/>
<path d="M0 0 C3.67230705 3.07999946 4.56802365 5.2482602 5 10 C7.97 8.68 10.94 7.36 14 6 C13.67 6.99 13.34 7.98 13 9 C12.34 9 11.68 9 11 9 C11 9.66 11 10.32 11 11 C8.69 11.66 6.38 12.32 4 13 C3.32942113 11.2097939 2.6636531 9.41778511 2 7.625 C1.62875 6.62726563 1.2575 5.62953125 0.875 4.6015625 C0 2 0 2 0 0 Z " fill="#FCE8C9" transform="translate(326,186)"/>
<path d="M0 0 C0.33 0 0.66 0 1 0 C0.67 7.92 0.34 15.84 0 24 C-1.32 24.33 -2.64 24.66 -4 25 C-4.66 23.68 -5.32 22.36 -6 21 C-4.02 21.99 -4.02 21.99 -2 23 C-1.90912109 21.515 -1.90912109 21.515 -1.81640625 20 C-1.39539534 13.30533362 -0.94925871 6.64481097 0 0 Z " fill="#FBE7C3" transform="translate(417,136)"/>
<path d="M0 0 C1.65 0 3.3 0 5 0 C3.84826645 2.46800047 2.95216435 4.04783565 1 6 C-0.78759766 6.59423828 -0.78759766 6.59423828 -2.9140625 7.0703125 C-4.05488281 7.33134766 -4.05488281 7.33134766 -5.21875 7.59765625 C-6.0128125 7.77167969 -6.806875 7.94570312 -7.625 8.125 C-8.42679687 8.30675781 -9.22859375 8.48851562 -10.0546875 8.67578125 C-12.03499476 9.12370789 -14.0173177 9.56270604 -16 10 C-15 8 -15 8 -12.890625 7.1484375 C-11.58351563 6.76558594 -11.58351563 6.76558594 -10.25 6.375 C-9.38890625 6.11460937 -8.5278125 5.85421875 -7.640625 5.5859375 C-5.00270994 5.00060132 -2.69198424 4.89348264 0 5 C0 3.35 0 1.7 0 0 Z " fill="#8EAB7A" transform="translate(324,166)"/>
<path d="M0 0 C-0.969375 0.28875 -1.93875 0.5775 -2.9375 0.875 C-6.10664203 1.64214682 -6.10664203 1.64214682 -7 4 C-7.66 4 -8.32 4 -9 4 C-9 4.99 -9 5.98 -9 7 C-8.34 7 -7.68 7 -7 7 C-7.33 7.66 -7.66 8.32 -8 9 C-10.04119788 7.38405168 -12.04072937 5.7143618 -14 4 C-14 3.34 -14 2.68 -14 2 C-12.04396149 1.47061343 -10.08507711 0.95173199 -8.125 0.4375 C-7.03445313 0.14746094 -5.94390625 -0.14257812 -4.8203125 -0.44140625 C-2 -1 -2 -1 0 0 Z " fill="#E7AA5B" transform="translate(396,127)"/>
<path d="M0 0 C0.33 0 0.66 0 1 0 C2.07421875 5.95703125 2.07421875 5.95703125 2 8 C1.52304687 8.47566406 1.04609375 8.95132813 0.5546875 9.44140625 C-1.5880154 11.58949282 -1.42779078 13.14401531 -1.5625 16.125 C-1.69140625 18.8203125 -1.69140625 18.8203125 -2 21 C-2.66 21.33 -3.32 21.66 -4 22 C-3.88597936 19.72858891 -3.75841495 17.45785448 -3.625 15.1875 C-3.55539062 13.92292969 -3.48578125 12.65835938 -3.4140625 11.35546875 C-3 8 -3 8 -1 5 C-0.61500109 3.34450469 -0.27206865 1.6777567 0 0 Z " fill="#FCFBEF" transform="translate(421,128)"/>
<path d="M0 0 C2.86724686 0.57344937 3.8614515 0.8614515 6 3 C3.69 4.65 1.38 6.3 -1 8 C-1.66 7.67 -2.32 7.34 -3 7 C-2.01 4.69 -1.02 2.38 0 0 Z " fill="#6FAA8E" transform="translate(350,206)"/>
<path d="M0 0 C0.99 0.66 1.98 1.32 3 2 C2.4352699 5.90829085 0.57868029 7.89920223 -2.0625 10.75 C-3.16271484 11.94882813 -3.16271484 11.94882813 -4.28515625 13.171875 C-4.85105469 13.77515625 -5.41695313 14.3784375 -6 15 C-6.33 14.01 -6.66 13.02 -7 12 C-6.34 12 -5.68 12 -5 12 C-4.896875 11.401875 -4.79375 10.80375 -4.6875 10.1875 C-4 8 -4 8 -2.5 6.5625 C-0.53426922 4.51486377 -0.37331439 2.76252651 0 0 Z " fill="#FEF0CF" transform="translate(387,135)"/>
<path d="M0 0 C2.90721313 2.90721313 2.96753239 6.05193821 3 10 C2.52399839 13.38490037 1.82234819 16.68342218 1 20 C0.67 20 0.34 20 0 20 C0 13.4 0 6.8 0 0 Z " fill="#5AC9C1" transform="translate(277,140)"/>
<path d="M0 0 C-0.33 0.99 -0.66 1.98 -1 3 C-5.62 3 -10.24 3 -15 3 C-15 2.34 -15 1.68 -15 1 C-13.43784452 0.83013455 -11.8752548 0.66426036 -10.3125 0.5 C-9.44238281 0.4071875 -8.57226562 0.314375 -7.67578125 0.21875 C-5.10276661 0.00840136 -2.58015636 -0.03719144 0 0 Z " fill="#E28F30" transform="translate(389,168)"/>
<path d="M0 0 C2.2477975 2.05233685 3.0022242 3.00667261 4 6 C3.54451823 8.73812607 2.74685247 11.3201176 2 14 C1.67 14 1.34 14 1 14 C1 11.69 1 9.38 1 7 C0.01 6.67 -0.98 6.34 -2 6 C-1.67 5.34 -1.34 4.68 -1 4 C-0.34 4 0.32 4 1 4 C0.67 2.68 0.34 1.36 0 0 Z " fill="#BAB97F" transform="translate(355,179)"/>
<path d="M0 0 C-0.33 1.32 -0.66 2.64 -1 4 C-4.3 3.34 -7.6 2.68 -11 2 C-4.2 -1.4 -4.2 -1.4 0 0 Z " fill="#3AB5AF" transform="translate(336,209)"/>
<path d="M0 0 C-1.32494247 2.64988494 -2.42639631 2.73938232 -5.1875 3.6875 C-9.13721423 4.94938953 -11.93436766 5.14671681 -16 4 C-10.70848182 1.15072098 -6.04551009 -0.28788143 0 0 Z " fill="#7EC4B8" transform="translate(340,199)"/>
<path d="M0 0 C1.125 1.75 1.125 1.75 2 4 C1.125 6.25 1.125 6.25 0 8 C-1.32 8 -2.64 8 -4 8 C-6.20067421 8.93283296 -6.20067421 8.93283296 -8 10 C-6.71937515 8.2925002 -5.38232443 6.62626404 -4 5 C-3.34 5 -2.68 5 -2 5 C-1.34 3.35 -0.68 1.7 0 0 Z " fill="#ADC1A7" transform="translate(350,186)"/>
<path d="M0 0 C0.99 0.33 1.98 0.66 3 1 C3.08226668 4.04386724 2.97608217 6.07175348 2 9 C-0.0625 10.1875 -0.0625 10.1875 -2 11 C-1.85892253 9.54119891 -1.71197585 8.08296449 -1.5625 6.625 C-1.48128906 5.81289062 -1.40007812 5.00078125 -1.31640625 4.1640625 C-1 2 -1 2 0 0 Z " fill="#0DB4BD" transform="translate(290,229)"/>
<path d="M0 0 C2.0625 0.4375 2.0625 0.4375 4 1 C3.34 1.66 2.68 2.32 2 3 C1.83318891 6.08347826 1.83318891 6.08347826 2 9 C1.34 9 0.68 9 0 9 C-0.33 8.01 -0.66 7.02 -1 6 C-1.66 5.67 -2.32 5.34 -3 5 C-1.125 1.125 -1.125 1.125 0 0 Z " fill="#D09434" transform="translate(322,175)"/>
<path d="M0 0 C-0.33 0.66 -0.66 1.32 -1 2 C-3.04243528 2.63385922 -5.09132519 3.01826504 -7.1875 3.4375 C-8.0846875 3.7159375 -8.0846875 3.7159375 -9 4 C-9.33 4.66 -9.66 5.32 -10 6 C-10.33 5.01 -10.66 4.02 -11 3 C-8.15930939 0.15930939 -3.81147953 -1.90573977 0 0 Z " fill="#87925C" transform="translate(342,217)"/>
<path d="M0 0 C0.33 0.99 0.66 1.98 1 3 C0.01 4.485 0.01 4.485 -1 6 C-1.70164642 7.98799818 -2.37372872 9.98698517 -3 12 C-4.25 10.4375 -4.25 10.4375 -5 8 C-3.82082734 5.08075093 -2.24085809 2.24085809 0 0 Z " fill="#E9F3E6" transform="translate(301,186)"/>
<path d="M0 0 C0.33 0.66 0.66 1.32 1 2 C-1.12081604 6.32018082 -2.79664822 9.44796499 -7 12 C-6.41980487 8.63486826 -5.36548527 7.36548527 -3 5 C-2.64830932 3.67139075 -2.31229724 2.33841672 -2 1 C-1.34 0.67 -0.68 0.34 0 0 Z " fill="#DFE3E7" transform="translate(439,266)"/>
<path d="M0 0 C2.82928932 2.55071314 4.67893264 5.46621272 6.6875 8.6875 C7.31011719 9.68136719 7.93273437 10.67523438 8.57421875 11.69921875 C9.04472656 12.45847656 9.51523438 13.21773438 10 14 C5.7412 12.03097322 2.98289706 9.66155272 1.3046875 5.1171875 C0.81838338 3.42539712 0.40317731 1.71350356 0 0 Z " fill="#DDE1EA" transform="translate(236,264)"/>
<path d="M0 0 C0.6875 1.625 0.6875 1.625 1 4 C-0.375 7.125 -0.375 7.125 -2 10 C-2.33 10.66 -2.66 11.32 -3 12 C-3.66 12 -4.32 12 -5 12 C-5 12.66 -5 13.32 -5 14 C-5.99 13.67 -6.98 13.34 -8 13 C-7.59007812 12.56429687 -7.18015625 12.12859375 -6.7578125 11.6796875 C-3.38909998 7.95637366 -1.21759521 4.99214035 0 0 Z " fill="#37B2B3" transform="translate(298,233)"/>
<path d="M0 0 C0.93065133 2.60582371 1.14917407 3.64198224 0.0625 6.25 C-0.4634375 7.11625 -0.4634375 7.11625 -1 8 C-2.32 8 -3.64 8 -5 8 C-4.34 6.02 -3.68 4.04 -3 2 C-2.01 2 -1.02 2 0 2 C0 1.34 0 0.68 0 0 Z " fill="#1FB2B6" transform="translate(308,216)"/>
<path d="M0 0 C1.09054687 0.02320313 2.18109375 0.04640625 3.3046875 0.0703125 C4.40039062 0.08835938 5.49609375 0.10640625 6.625 0.125 C7.46804688 0.14820313 8.31109375 0.17140625 9.1796875 0.1953125 C8.1896875 1.6803125 8.1896875 1.6803125 7.1796875 3.1953125 C3.2196875 2.8653125 -0.7403125 2.5353125 -4.8203125 2.1953125 C-2.8203125 0.1953125 -2.8203125 0.1953125 0 0 Z " fill="#63C1BD" transform="translate(324.8203125,202.8046875)"/>
<path d="M0 0 C0.33 1.32 0.66 2.64 1 4 C2.32 4.33 3.64 4.66 5 5 C5 6.98 5 8.96 5 11 C4.34 10.67 3.68 10.34 3 10 C3 9.01 3 8.02 3 7 C2.34 7 1.68 7 1 7 C-0.0625 4.625 -0.0625 4.625 -1 2 C-0.67 1.34 -0.34 0.68 0 0 Z " fill="#BD9943" transform="translate(361,182)"/>
<path d="M0 0 C4.75481646 0.57634139 7.97048212 2.55068521 12 5 C12 5.99 12 6.98 12 8 C9.41496565 6.85109585 7.65507437 5.69819007 5.5 3.8125 C3.19781395 1.71713914 3.19781395 1.71713914 0.6875 2.25 C-0.1478125 2.62125 -0.1478125 2.62125 -1 3 C-0.67 2.01 -0.34 1.02 0 0 Z " fill="#DE9E49" transform="translate(403,151)"/>
<path d="M0 0 C1.32 0 2.64 0 4 0 C3.67 1.65 3.34 3.3 3 5 C1.35 5.33 -0.3 5.66 -2 6 C-1.34 4.02 -0.68 2.04 0 0 Z " fill="#56B19A" transform="translate(344,209)"/>
<path d="M0 0 C2.71928517 0.37507382 3.84218661 0.84218661 5.8125 2.8125 C7 5 7 5 6.6875 7.25 C6.460625 7.8275 6.23375 8.405 6 9 C5.731875 8.360625 5.46375 7.72125 5.1875 7.0625 C4.11332248 4.66868314 4.11332248 4.66868314 1 4 C0.3125 1.9375 0.3125 1.9375 0 0 Z " fill="#CD9D51" transform="translate(341,175)"/>
<path d="M0 0 C-0.33 1.65 -0.66 3.3 -1 5 C-3.31 5.33 -5.62 5.66 -8 6 C-3.375 0 -3.375 0 0 0 Z " fill="#D2FBFC" transform="translate(295,238)"/>
<path d="M0 0 C0 0.99 0 1.98 0 3 C0.33 3.33 0.66 3.66 1 4 C1 4.66 1 5.32 1 6 C-0.98 6.33 -2.96 6.66 -5 7 C-5 7.66 -5 8.32 -5 9 C-5.66 8.67 -6.32 8.34 -7 8 C-4.69 5.36 -2.38 2.72 0 0 Z " fill="#46BCBE" transform="translate(313,209)"/>
<path d="M0 0 C0.33 0 0.66 0 1 0 C1 3.96 1 7.92 1 12 C0.34 12 -0.32 12 -1 12 C-1.33 12.66 -1.66 13.32 -2 14 C-2.33 13.01 -2.66 12.02 -3 11 C-2.33333333 9.66666667 -1.66666667 8.33333333 -1 7 C-0.61250787 4.67504723 -0.27017161 2.34148732 0 0 Z " fill="#C7BB8F" transform="translate(355,171)"/>
<path d="M0 0 C2.475 0.99 2.475 0.99 5 2 C4.67 2.66 4.34 3.32 4 4 C0.93090555 4.66719444 -1.85786017 5 -5 5 C-3.35 3.35 -1.7 1.7 0 0 Z " fill="#FEF0CB" transform="translate(404,152)"/>
<path d="M0 0 C1.9375 0.8125 1.9375 0.8125 4 2 C4.33 2.99 4.66 3.98 5 5 C2.3333581 6.33332095 0.83319697 5.67102033 -2 5 C-2 4.01 -2 3.02 -2 2 C-1.34 2 -0.68 2 0 2 C0 1.34 0 0.68 0 0 Z " fill="#7AA677" transform="translate(351,199)"/>
<path d="M0 0 C0.33 0.99 0.66 1.98 1 3 C0.01 3.33 -0.98 3.66 -2 4 C-2.33 6.31 -2.66 8.62 -3 11 C-3.66 11 -4.32 11 -5 11 C-4.54917531 9.53932801 -4.08906463 8.08151968 -3.625 6.625 C-3.36976563 5.81289062 -3.11453125 5.00078125 -2.8515625 4.1640625 C-2 2 -2 2 0 0 Z " fill="#C0F8F9" transform="translate(323,226)"/>
<path d="M0 0 C0.33 0.99 0.66 1.98 1 3 C3.00016466 4.20882096 3.00016466 4.20882096 5 5 C5 5.99 5 6.98 5 8 C0.125 5.375 0.125 5.375 -1 2 C-0.67 1.34 -0.34 0.68 0 0 Z " fill="#FEF6E3" transform="translate(380,128)"/>
<path d="M0 0 C0.66 0.33 1.32 0.66 2 1 C1.67 2.65 1.34 4.3 1 6 C0.01 5.67 -0.98 5.34 -2 5 C-2 4.34 -2 3.68 -2 3 C-2.66 2.67 -3.32 2.34 -4 2 C-2.125 0.9375 -2.125 0.9375 0 0 Z " fill="#5CB0A0" transform="translate(342,204)"/>
<path d="M0 0 C-2.64 1.65 -5.28 3.3 -8 5 C-8 4.01 -8 3.02 -8 2 C-4.90310319 -1.09689681 -4.48560889 -1.12140222 0 0 Z " fill="#CCF5F8" transform="translate(322,204)"/>
<path d="M0 0 C0.33 0 0.66 0 1 0 C0.25 7.625 0.25 7.625 -2 11 C-2.28571429 3.57142857 -2.28571429 3.57142857 0 0 Z " fill="#6AB09D" transform="translate(297,186)"/>
<path d="M0 0 C-6.75 4 -6.75 4 -9 4 C-8.67 2.68 -8.34 1.36 -8 0 C-4.71303767 -0.79953138 -3.28976808 -1.09658936 0 0 Z " fill="#DB9644" transform="translate(340,192)"/>
<path d="M0 0 C0.33 0.99 0.66 1.98 1 3 C-1.3125 6.1875 -1.3125 6.1875 -4 9 C-4.66 9 -5.32 9 -6 9 C-4.47291037 5.56404834 -2.40072955 2.88087546 0 0 Z " fill="#F9E5BC" transform="translate(398,158)"/>
<path d="M0 0 C1.65 0 3.3 0 5 0 C5 1.32 5 2.64 5 4 C3.0625 3.6875 3.0625 3.6875 1 3 C0.67 2.01 0.34 1.02 0 0 Z " fill="#83C1AC" transform="translate(342,198)"/>
<path d="M0 0 C1 2 1 2 0.0625 5.125 C-0.288125 6.07375 -0.63875 7.0225 -1 8 C-2.32 6.68 -3.64 5.36 -5 4 C-4.01 4 -3.02 4 -2 4 C-2 3.01 -2 2.02 -2 1 C-1.34 0.67 -0.68 0.34 0 0 Z " fill="#E08C1E" transform="translate(373,171)"/>
<path d="" fill="#FFFFFF" transform="translate(0,0)"/>
<path d="" fill="#FFFFFF" transform="translate(0,0)"/>
<path d="" fill="#FFFFFF" transform="translate(0,0)"/>
<path d="" fill="#FFFFFF" transform="translate(0,0)"/>
<path d="" fill="#FFFFFF" transform="translate(0,0)"/>
<path d="" fill="#FFFFFF" transform="translate(0,0)"/>
<path d="" fill="#FFFFFF" transform="translate(0,0)"/>
<path d="" fill="#FFFFFF" transform="translate(0,0)"/>
<path d="" fill="#FFFFFF" transform="translate(0,0)"/>
<path d="" fill="#FFFFFF" transform="translate(0,0)"/>
<path d="" fill="#FFFFFF" transform="translate(0,0)"/>
<path d="" fill="#FFFFFF" transform="translate(0,0)"/>
<path d="" fill="#FFFFFF" transform="translate(0,0)"/>
<path d="" fill="#FFFFFF" transform="translate(0,0)"/>
<path d="" fill="#FFFFFF" transform="translate(0,0)"/>
<path d="" fill="#FFFFFF" transform="translate(0,0)"/>
<path d="" fill="#FFFFFF" transform="translate(0,0)"/>
<path d="" fill="#FFFFFF" transform="translate(0,0)"/>
<path d="" fill="#FFFFFF" transform="translate(0,0)"/>
<path d="" fill="#FFFFFF" transform="translate(0,0)"/>
<path d="" fill="#FFFFFF" transform="translate(0,0)"/>
<path d="" fill="#FFFFFF" transform="translate(0,0)"/>
<path d="" fill="#FFFFFF" transform="translate(0,0)"/>
<path d="" fill="#FFFFFF" transform="translate(0,0)"/>
<path d="" fill="#FFFFFF" transform="translate(0,0)"/>
<path d="" fill="#FFFFFF" transform="translate(0,0)"/>
<path d="" fill="#FFFFFF" transform="translate(0,0)"/>
<path d="" fill="#FFFFFF" transform="translate(0,0)"/>
<path d="" fill="#FFFFFF" transform="translate(0,0)"/>
<path d="" fill="#FFFFFF" transform="translate(0,0)"/>
<path d="" fill="#FFFFFF" transform="translate(0,0)"/>
<path d="" fill="#FFFFFF" transform="translate(0,0)"/>
<path d="" fill="#FFFFFF" transform="translate(0,0)"/>
<path d="" fill="#FFFFFF" transform="translate(0,0)"/>
<path d="" fill="#FFFFFF" transform="translate(0,0)"/>
<path d="" fill="#FFFFFF" transform="translate(0,0)"/>
<path d="" fill="#FFFFFF" transform="translate(0,0)"/>
<path d="" fill="#FFFFFF" transform="translate(0,0)"/>
<path d="" fill="#FFFFFF" transform="translate(0,0)"/>
<path d="" fill="#FFFFFF" transform="translate(0,0)"/>
<path d="" fill="#FFFFFF" transform="translate(0,0)"/>
<path d="" fill="#FFFFFF" transform="translate(0,0)"/>
<path d="" fill="#FFFFFF" transform="translate(0,0)"/>
<path d="" fill="#FFFFFF" transform="translate(0,0)"/>
<path d="" fill="#FFFFFF" transform="translate(0,0)"/>
<path d="" fill="#FFFFFF" transform="translate(0,0)"/>
<path d="" fill="#FFFFFF" transform="translate(0,0)"/>
<path d="" fill="#FFFFFF" transform="translate(0,0)"/>
<path d="" fill="#FFFFFF" transform="translate(0,0)"/>
<path d="" fill="#FFFFFF" transform="translate(0,0)"/>
<path d="" fill="#FFFFFF" transform="translate(0,0)"/>
<path d="" fill="#FFFFFF" transform="translate(0,0)"/>
<path d="" fill="#FFFFFF" transform="translate(0,0)"/>
<path d="" fill="#FFFFFF" transform="translate(0,0)"/>
<path d="" fill="#FFFFFF" transform="translate(0,0)"/>
<path d="" fill="#FFFFFF" transform="translate(0,0)"/>
<path d="" fill="#FFFFFF" transform="translate(0,0)"/>
<path d="" fill="#FFFFFF" transform="translate(0,0)"/>
<path d="" fill="#FFFFFF" transform="translate(0,0)"/>
<path d="" fill="#FFFFFF" transform="translate(0,0)"/>
<path d="" fill="#FFFFFF" transform="translate(0,0)"/>
<path d="" fill="#FFFFFF" transform="translate(0,0)"/>
<path d="" fill="#FFFFFF" transform="translate(0,0)"/>
<path d="" fill="#FFFFFF" transform="translate(0,0)"/>
<path d="" fill="#FFFFFF" transform="translate(0,0)"/>
<path d="" fill="#FFFFFF" transform="translate(0,0)"/>
<path d="" fill="#FFFFFF" transform="translate(0,0)"/>
<path d="" fill="#FFFFFF" transform="translate(0,0)"/>
<path d="" fill="#FFFFFF" transform="translate(0,0)"/>
<path d="" fill="#FFFFFF" transform="translate(0,0)"/>
</svg>
