<?xml version="1.0" encoding="UTF-8"?>
<svg version="1.1" xmlns="http://www.w3.org/2000/svg" width="677" height="369">
<path d="M0 0 C1.87500435 -0.0076664 1.87500435 -0.0076664 3.78788757 -0.01548767 C7.19309127 -0.02695107 10.59805038 -0.02946601 14.00325608 -0.02692437 C16.85822765 -0.02584848 19.71317721 -0.03075386 22.56814402 -0.03552979 C29.31107137 -0.04659551 36.05394299 -0.04707933 42.796875 -0.04101562 C49.72411742 -0.03498136 56.65115645 -0.0472796 63.57836419 -0.06858569 C69.55152062 -0.0862734 75.52461272 -0.09219172 81.49779433 -0.08894795 C85.05390728 -0.08714593 88.60987519 -0.08966175 92.16596413 -0.10366249 C96.13806581 -0.11871808 100.10991395 -0.10920834 104.08203125 -0.09765625 C105.24034454 -0.10529999 106.39865784 -0.11294373 107.59207153 -0.12081909 C122.89131159 -0.02302381 135.78498018 4.22640196 146.97338867 14.81762695 C158.15751585 26.96756823 159.38652169 41.09850311 159.38037109 56.8659668 C159.38372971 58.10928268 159.38708832 59.35259857 159.39054871 60.6335907 C159.39838949 64.02419494 159.4017244 67.41473792 159.40236449 70.80534697 C159.4030781 72.92882388 159.40521825 75.05229447 159.40786171 77.17576981 C159.41709578 84.59838515 159.42119895 92.02098261 159.42041016 99.44360352 C159.41980958 106.33957615 159.43036247 113.23547052 159.44615382 120.13142335 C159.45926849 126.07224752 159.46459242 132.01304621 159.46395475 137.95388472 C159.46370096 141.49315312 159.46648621 145.03235183 159.4771328 148.57160568 C159.48869523 152.52262121 159.48404298 156.4735309 159.47802734 160.42456055 C159.48364685 161.5822847 159.48926636 162.74000885 159.49505615 163.93281555 C159.43511137 179.47621604 155.46273951 191.73612305 144.52026367 203.15356445 C136.1541711 210.91901448 125.03328347 215.37143556 113.63415527 215.42182922 C112.51857239 215.42898453 111.4029895 215.43613983 110.25360107 215.44351196 C109.03900208 215.44620087 107.82440308 215.44888977 106.57299805 215.45166016 C105.28617126 215.45823135 103.99934448 215.46480255 102.67352295 215.47157288 C98.41281365 215.49255088 94.15210427 215.502973 89.89135742 215.51293945 C88.41908246 215.51699008 86.94680768 215.52110709 85.47453308 215.52528954 C78.55204696 215.5443316 71.62957141 215.55856174 64.70706415 215.5669015 C56.74482708 215.57665471 48.78286942 215.60292791 40.82073069 215.6434024 C34.64892561 215.67368699 28.47720004 215.68838221 22.30532217 215.69168252 C18.62776354 215.69401997 14.9505037 215.70280754 11.27302551 215.72814369 C7.15929979 215.75602765 3.04618764 215.75155586 -1.06762695 215.74462891 C-2.86523468 215.76384399 -2.86523468 215.76384399 -4.69915771 215.78344727 C-18.4280493 215.69968711 -31.67095723 211.62924006 -41.88208008 202.2590332 C-45.05245275 198.91764458 -47.44749154 195.24044867 -49.76489258 191.2746582 C-50.15676758 190.62625977 -50.54864258 189.97786133 -50.95239258 189.30981445 C-56.08357511 180.08500469 -56.06159733 169.58060395 -56.03955078 159.28271484 C-56.04466171 158.03241989 -56.04977264 156.78212494 -56.05503845 155.49394226 C-56.06647749 152.09712076 -56.06902101 148.70054496 -56.06647515 145.30372167 C-56.06539731 142.45362042 -56.07030931 139.60354111 -56.07508057 136.75344461 C-56.08613319 130.02294992 -56.08663692 123.29251107 -56.08056641 116.56201172 C-56.07452706 109.64949646 -56.08684632 102.73718478 -56.10813648 95.82470423 C-56.12582291 89.85999997 -56.13174288 83.8953601 -56.12849873 77.93063062 C-56.12669724 74.38125427 -56.12920753 70.83202325 -56.14321327 67.28267097 C-56.1582671 63.3203665 -56.14876019 59.35831623 -56.13720703 55.39599609 C-56.14485077 54.24082489 -56.15249451 53.08565369 -56.16036987 51.89547729 C-56.07658629 38.82277298 -53.09052827 26.59907848 -44.38989258 16.5246582 C-43.52364258 15.7821582 -42.65739258 15.0396582 -41.76489258 14.2746582 C-41.21446289 13.72293945 -40.6640332 13.1712207 -40.09692383 12.6027832 C-29.03916829 1.93261909 -14.71587619 -0.03131037 0 0 Z " fill="#F5F8F9" transform="translate(286.764892578125,76.725341796875)"/>
<path d="M0 0 C-0.40645304 4.71416706 -0.81547596 9.42810173 -1.22680664 14.1418457 C-1.3661728 15.7430224 -1.50485571 17.34425874 -1.64282227 18.94555664 C-1.84208291 21.25683629 -2.0438589 23.56788517 -2.24609375 25.87890625 C-2.3065538 26.58648575 -2.36701385 27.29406525 -2.42930603 28.02308655 C-2.81340453 32.37829859 -3.34609927 36.67932011 -4 41 C-7.51005335 39.3619751 -10.45543849 37.96865509 -13 35 C-16.32958555 36.10986185 -16.70254288 36.62060237 -18.625 39.375 C-21.9359027 43.97857253 -25.52005786 48.32060561 -29.14453125 52.6796875 C-31.01130791 54.84817558 -31.01130791 54.84817558 -32 57 C-36.62 57 -41.24 57 -46 57 C-45.9175 58.216875 -45.835 59.43375 -45.75 60.6875 C-45.79177153 73.99173355 -52.67168117 86.61409747 -61.19140625 96.44140625 C-63 98 -63 98 -68 100 C-68 112.54 -68 125.08 -68 138 C-74.6 138 -81.2 138 -88 138 C-88 128.76 -88 119.52 -88 110 C-89.98 110.495 -89.98 110.495 -92 111 C-92 111.66 -92 112.32 -92 113 C-93.65788785 114.34423339 -95.32576317 115.67618483 -97 117 C-98.76323505 119.12603185 -98.76323505 119.12603185 -100 121 C-104.19283118 120.35155914 -108.26499921 119.48783354 -112.375 118.4375 C-113.43460937 118.16808594 -114.49421875 117.89867187 -115.5859375 117.62109375 C-116.38257813 117.41613281 -117.17921875 117.21117187 -118 117 C-117.09528524 109.60262635 -113.55987058 103.88094915 -107.8125 99.125 C-106.884375 98.42375 -105.95625 97.7225 -105 97 C-104.51917969 96.50113281 -104.03835938 96.00226563 -103.54296875 95.48828125 C-99.49751291 91.58620865 -93.71278691 89.85801549 -88.5 88.0625 C-79.44233221 84.80524741 -73.26769614 80.92565358 -69 72 C-66.09078929 64.50187139 -65.48235036 57.36281971 -65.3125 49.375 C-65.27833984 48.27542969 -65.24417969 47.17585938 -65.20898438 46.04296875 C-65.12739215 43.36208137 -65.057959 40.68148452 -65 38 C-64.33991943 38.01683838 -63.67983887 38.03367676 -62.99975586 38.05102539 C-59.97771893 38.10162669 -56.95986042 38.0826125 -53.9375 38.0625 C-52.37999023 38.10407227 -52.37999023 38.10407227 -50.79101562 38.14648438 C-44.76647741 38.0785139 -44.76647741 38.0785139 -39.77758789 35.02636719 C-38.01647671 32.75541834 -36.49544767 30.45120321 -35 28 C-34.195625 27.05125 -33.39125 26.1025 -32.5625 25.125 C-30.70380477 23.03677757 -30.70380477 23.03677757 -31 20 C-32.5442809 18.64625488 -32.5442809 18.64625488 -34.5 17.5 C-36.46875 16.28125 -36.46875 16.28125 -38 15 C-38 14.01 -38 13.02 -38 12 C-36.97003906 11.63648437 -35.94007813 11.27296875 -34.87890625 10.8984375 C-34.19852295 10.65818848 -33.51813965 10.41793945 -32.81713867 10.17041016 C-31.30066184 9.63541486 -29.78389206 9.1012493 -28.2668457 8.56787109 C-24.24622761 7.15292519 -20.23141753 5.72464282 -16.2265625 4.265625 C-15.46529053 3.99057129 -14.70401855 3.71551758 -13.91967773 3.43212891 C-12.45640584 2.9030272 -10.99489776 2.3690161 -9.53540039 1.82958984 C-6.11310402 0.59840541 -3.68840045 0 0 0 Z " fill="#F6820F" transform="translate(420,102)"/>
<path d="M0 0 C6.6 0 13.2 0 20 0 C20.33 13.86 20.66 27.72 21 42 C23.97 40.35 26.94 38.7 30 37 C39.03093893 34.74226527 49.92504589 34.72726224 58.26953125 39.22265625 C64.36903356 43.01587908 69.2975585 47.27084244 72.3125 53.875 C71.79457611 59.05423893 68.50724189 62.32745777 65 66 C62.2108911 68.25785007 60.9763809 68.95237166 57.4375 69.125 C54.31588991 67.68425688 53.67878955 65.74295773 52.12890625 62.7890625 C50.09311212 59.56278668 47.54900301 58.04563347 44 57 C38.05989941 56.20598908 32.06317465 55.71405113 26.875 59.125 C23.48724616 61.81062869 21.30862068 65.66773318 20.73956299 69.96813965 C20.65775645 72.22709346 20.66354221 74.47033297 20.69921875 76.73046875 C20.69157247 78.4381549 20.68308185 80.14583743 20.67382812 81.85351562 C20.67602873 84.51502084 20.6873781 87.17579202 20.71508789 89.8371582 C20.87264103 109.3139858 20.87264103 109.3139858 14 118 C11.3125 120.5625 11.3125 120.5625 9 122 C7.515 122.99 7.515 122.99 6 124 C4.02 124 2.04 124 0 124 C0 83.08 0 42.16 0 0 Z " fill="#46BEBB" transform="translate(276,116)"/>
<path d="M0 0 C0.33 0 0.66 0 1 0 C1.02468447 4.80549747 1.04285255 9.61095818 1.05493164 14.41650391 C1.05996621 16.05192711 1.06679427 17.6873458 1.07543945 19.32275391 C1.08754335 21.67090975 1.093237 24.01900619 1.09765625 26.3671875 C1.10281754 27.10057343 1.10797882 27.83395935 1.11329651 28.58956909 C1.11387171 33.77225659 1.11387171 33.77225659 0 36 C0.99 36 1.98 36 3 36 C4.49821059 39.37097383 5 41.20442119 5 45 C5.99 45.33 6.98 45.66 8 46 C8.66 44.68 9.32 43.36 10 42 C11.32 42 12.64 42 14 42 C11.62746064 48.72219485 7.28493636 55.17516398 2 60 C0.35 60.66 -1.3 61.32 -3 62 C-3 74.54 -3 87.08 -3 100 C-9.6 100 -16.2 100 -23 100 C-23 90.76 -23 81.52 -23 72 C-24.98 72.495 -24.98 72.495 -27 73 C-27 73.66 -27 74.32 -27 75 C-28.65788785 76.34423339 -30.32576317 77.67618483 -32 79 C-33.76323505 81.12603185 -33.76323505 81.12603185 -35 83 C-39.19283118 82.35155914 -43.26499921 81.48783354 -47.375 80.4375 C-48.43460937 80.16808594 -49.49421875 79.89867187 -50.5859375 79.62109375 C-51.38257813 79.41613281 -52.17921875 79.21117187 -53 79 C-52.09528524 71.60262635 -48.55987058 65.88094915 -42.8125 61.125 C-41.884375 60.42375 -40.95625 59.7225 -40 59 C-39.51917969 58.50113281 -39.03835938 58.00226563 -38.54296875 57.48828125 C-34.49751291 53.58620865 -28.71278691 51.85801549 -23.5 50.0625 C-14.44233221 46.80524741 -8.26769614 42.92565358 -4 34 C-1.09078929 26.50187139 -0.48235036 19.36281971 -0.3125 11.375 C-0.27833984 10.27542969 -0.24417969 9.17585937 -0.20898438 8.04296875 C-0.12739215 5.36208137 -0.057959 2.68148452 0 0 Z " fill="#51B6AE" transform="translate(355,140)"/>
<path d="M0 0 C0.66 0 1.32 0 2 0 C2 0.66 2 1.32 2 2 C2.556875 2.103125 3.11375 2.20625 3.6875 2.3125 C6.44176578 3.13133577 8.58727657 4.45853781 11 6 C10.67 6.99 10.34 7.98 10 9 C10.24211911 12.41134978 10.54545088 15.79952473 10.94726562 19.1953125 C11.41774618 24.45305397 11.41774618 24.45305397 9.484375 26.984375 C6.07187868 28.37942066 3.24049341 28.32290373 -0.4375 28.25 C-1.73558594 28.23453125 -3.03367187 28.2190625 -4.37109375 28.203125 C-7.38508532 28.03441934 -10.06360872 27.62995245 -13 27 C-14.216875 27 -15.43375 27 -16.6875 27 C-20 27 -20 27 -22 26 C-22 25.01 -22 24.02 -22 23 C-24.64 23 -27.28 23 -30 23 C-30.66 24.98 -31.32 26.96 -32 29 C-33.3921875 28.938125 -33.3921875 28.938125 -34.8125 28.875 C-38.15809719 28.72863661 -38.15809719 28.72863661 -41 31 C-41.66 30.67 -42.32 30.34 -43 30 C-43 29.34 -43 28.68 -43 28 C-44.32 27.67 -45.64 27.34 -47 27 C-47 24.03 -47 21.06 -47 18 C-49.31 18.33 -51.62 18.66 -54 19 C-53.979375 20.299375 -53.95875 21.59875 -53.9375 22.9375 C-53.91600546 24.29165633 -53.92851801 25.64756083 -54 27 C-55 28 -55 28 -58.0625 28.0625 C-59.031875 28.041875 -60.00125 28.02125 -61 28 C-62.25248502 25.49502996 -62.11374406 23.79146726 -62.09765625 20.9921875 C-62.09443359 20.00605469 -62.09121094 19.01992188 -62.08789062 18.00390625 C-62.07951172 16.97136719 -62.07113281 15.93882812 -62.0625 14.875 C-62.05798828 13.83472656 -62.05347656 12.79445313 -62.04882812 11.72265625 C-62.03701952 9.14838038 -62.02055075 6.57421854 -62 4 C-60.02 4 -58.04 4 -56 4 C-56 6.64 -56 9.28 -56 12 C-52.7 12 -49.4 12 -46 12 C-46 9.36 -46 6.72 -46 4 C-44.02 4 -42.04 4 -40 4 C-39.505 10.93 -39.505 10.93 -39 18 C-37.68 18.33 -36.36 18.66 -35 19 C-34.81824219 18.33613281 -34.63648438 17.67226563 -34.44921875 16.98828125 C-31.56227758 6.84697509 -31.56227758 6.84697509 -29 4 C-25.89453125 3.8828125 -25.89453125 3.8828125 -23 4 C-21.68504458 6.60295276 -20.37295014 9.20728033 -19.0625 11.8125 C-18.68931641 12.55048828 -18.31613281 13.28847656 -17.93164062 14.04882812 C-17.57392578 14.76103516 -17.21621094 15.47324219 -16.84765625 16.20703125 C-16.51773682 16.8616333 -16.18781738 17.51623535 -15.84790039 18.19067383 C-15 20 -15 20 -14 23 C-13.34 23 -12.68 23 -12 23 C-12.01571045 22.15236084 -12.01571045 22.15236084 -12.03173828 21.28759766 C-12.07324788 18.73344347 -12.0993096 16.17936018 -12.125 13.625 C-12.14175781 12.73554688 -12.15851563 11.84609375 -12.17578125 10.9296875 C-12.18544922 9.65351563 -12.18544922 9.65351563 -12.1953125 8.3515625 C-12.21102295 7.17327881 -12.21102295 7.17327881 -12.22705078 5.97119141 C-12 4 -12 4 -10 2 C-7.6171875 1.5859375 -7.6171875 1.5859375 -4.875 1.375 C-3.96492188 1.30023438 -3.05484375 1.22546875 -2.1171875 1.1484375 C-1.41851562 1.09945312 -0.71984375 1.05046875 0 1 C0 0.67 0 0.34 0 0 Z " fill="#CBEEF1" transform="translate(318,248)"/>
<path d="M0 0 C0.66 2.31 1.32 4.62 2 7 C0.37660195 8.70884005 -1.29319053 10.37446717 -3 12 C-3.66 12 -4.32 12 -5 12 C-5 12.66 -5 13.32 -5 14 C-5.99 14 -6.98 14 -8 14 C-8.33 17.63 -8.66 21.26 -9 25 C-10.65 25 -12.3 25 -14 25 C-14 22.36 -14 19.72 -14 17 C-14.66 17 -15.32 17 -16 17 C-16.10957031 17.69867188 -16.21914063 18.39734375 -16.33203125 19.1171875 C-16.49058594 20.02726562 -16.64914062 20.93734375 -16.8125 21.875 C-16.96332031 22.77992188 -17.11414063 23.68484375 -17.26953125 24.6171875 C-18 27 -18 27 -21 29 C-21 28.34 -21 27.68 -21 27 C-22.05960937 27.03480469 -23.11921875 27.06960938 -24.2109375 27.10546875 C-25.59894252 27.13360399 -26.98696463 27.16090443 -28.375 27.1875 C-29.07367188 27.21263672 -29.77234375 27.23777344 -30.4921875 27.26367188 C-32.5234375 27.29296875 -32.5234375 27.29296875 -36 27 C-38.52775351 23.20836973 -38.22443035 20.19125969 -38.125 15.8125 C-38.11597656 15.06291016 -38.10695313 14.31332031 -38.09765625 13.54101562 C-38.07412578 11.69387346 -38.03825561 9.84689588 -38 8 C-39.98 8.33 -41.96 8.66 -44 9 C-44.06058594 10.14339844 -44.12117188 11.28679687 -44.18359375 12.46484375 C-44.26798428 13.95574305 -44.35263302 15.44662775 -44.4375 16.9375 C-44.49647461 18.06961914 -44.49647461 18.06961914 -44.55664062 19.22460938 C-44.88671875 24.88671875 -44.88671875 24.88671875 -46 26 C-47.98 26 -49.96 26 -52 26 C-52 19.73 -52 13.46 -52 7 C-54.31 7 -56.62 7 -59 7 C-59 4.69 -59 2.38 -59 0 C-54.79168132 -0.02914348 -50.58338878 -0.04684712 -46.375 -0.0625 C-44.59029297 -0.07506836 -44.59029297 -0.07506836 -42.76953125 -0.08789062 C-41.61582031 -0.09111328 -40.46210938 -0.09433594 -39.2734375 -0.09765625 C-37.68668213 -0.10551147 -37.68668213 -0.10551147 -36.06787109 -0.11352539 C-33 0 -33 0 -29.67041016 0.56860352 C-28.7891748 0.71096436 -27.90793945 0.8533252 -27 1 C-26.67 0.67 -26.34 0.34 -26 0 C-25.01 0 -24.02 0 -23 0 C-22.505 0.99 -22.505 0.99 -22 2 C-21.37351562 1.9278125 -20.74703125 1.855625 -20.1015625 1.78125 C-18.87566406 1.64203125 -18.87566406 1.64203125 -17.625 1.5 C-16.81289063 1.4071875 -16.00078125 1.314375 -15.1640625 1.21875 C-13 1 -13 1 -11 1 C-10.443125 0.649375 -9.88625 0.29875 -9.3125 -0.0625 C-6.00982327 -1.401423 -3.43364375 -0.66031611 0 0 Z " fill="#E4F4F7" transform="translate(421,249)"/>
<path d="M0 0 C4.20401364 0.30028669 6.38579035 3.01026852 9 6 C9.82371094 6.89332031 9.82371094 6.89332031 10.6640625 7.8046875 C15.50435177 13.45524546 18.07931268 19.59072377 20.66015625 26.46484375 C23.05977003 32.79618623 25.72114732 37.65143415 30 43 C21.42 43 12.84 43 4 43 C3.01 39.04 2.02 35.08 1 31 C-1.78003551 24.0491605 -1.78003551 24.0491605 -6.8125 18.9375 C-9.35487914 16.68567848 -9.50377008 15.97326843 -9.8125 12.6875 C-9.66830388 9.57183389 -9.25730813 8.30683426 -7.234375 5.89453125 C-5.22326714 4.14023752 -3.17456973 2.54472606 -1 1 C-0.67 0.67 -0.34 0.34 0 0 Z " fill="#E5932E" transform="translate(364,197)"/>
<path d="M0 0 C0.66 0.33 1.32 0.66 2 1 C0.5839401 1.79275148 -0.83287553 2.58415312 -2.25 3.375 C-3.03890625 3.81585938 -3.8278125 4.25671875 -4.640625 4.7109375 C-6.73914197 5.85747823 -8.8536077 6.94649552 -11 8 C-10.505 9.60875 -10.505 9.60875 -10 11.25 C-9 15 -9 15 -9 19 C-9.680625 19.845625 -10.36125 20.69125 -11.0625 21.5625 C-12.0215625 22.7690625 -12.0215625 22.7690625 -13 24 C-12.505 25.485 -12.505 25.485 -12 27 C-11.34 27.33 -10.68 27.66 -10 28 C-9.855625 27.401875 -9.71125 26.80375 -9.5625 26.1875 C-9.1127561 24.43849596 -8.57107659 22.71322977 -8 21 C-7.01 21.33 -6.02 21.66 -5 22 C-8.41472138 27.91675224 -12.33459535 33.01398697 -17 38 C-17.44174561 38.52529297 -17.88349121 39.05058594 -18.33862305 39.59179688 C-20.44548265 41.37759646 -21.50129653 41.35103624 -24.23046875 41.29296875 C-25.03291016 41.28330078 -25.83535156 41.27363281 -26.66210938 41.26367188 C-27.49548828 41.23853516 -28.32886719 41.21339844 -29.1875 41.1875 C-30.4549707 41.16719727 -30.4549707 41.16719727 -31.74804688 41.14648438 C-33.83230384 41.11115799 -35.91623277 41.05735139 -38 41 C-37.96970703 41.79172607 -37.93941406 42.58345215 -37.90820312 43.39916992 C-37.77115965 46.99524353 -37.63556474 50.59137036 -37.5 54.1875 C-37.45230469 55.43337891 -37.40460938 56.67925781 -37.35546875 57.96289062 C-37.31035156 59.16494141 -37.26523437 60.36699219 -37.21875 61.60546875 C-37.17685547 62.71043701 -37.13496094 63.81540527 -37.09179688 64.95385742 C-37.01089133 67.63858739 -36.98251809 70.31434141 -37 73 C-35.515 72.505 -35.515 72.505 -34 72 C-33.896875 71.319375 -33.79375 70.63875 -33.6875 69.9375 C-33 67 -33 67 -31.4375 63.75 C-29.52768761 59.55026693 -29.72255776 55.53155664 -30 51 C-26.99686252 49.49843126 -24.20932478 49.90718796 -20.875 49.9375 C-19.59367187 49.94652344 -18.31234375 49.95554688 -16.9921875 49.96484375 C-16.00476563 49.97644531 -15.01734375 49.98804688 -14 50 C-14 50.66 -14 51.32 -14 52 C-18.62 52 -23.24 52 -28 52 C-27.87625 53.8253125 -27.87625 53.8253125 -27.75 55.6875 C-27.76002649 61.98413682 -29.17861628 68.36531675 -32 74 C-34.5625 75.24609375 -34.5625 75.24609375 -37 76 C-38.34410262 78.01735205 -38.34410262 78.01735205 -39 80 C-40.953125 79.2890625 -40.953125 79.2890625 -43 78 C-43.609375 75.8359375 -43.609375 75.8359375 -43.75 73.375 C-43.80671875 72.55773437 -43.8634375 71.74046875 -43.921875 70.8984375 C-43.96054687 69.95871094 -43.96054687 69.95871094 -44 69 C-44.99 69 -45.98 69 -47 69 C-46.67 57.12 -46.34 45.24 -46 33 C-42.514375 33.020625 -39.02875 33.04125 -35.4375 33.0625 C-27.88740902 32.99716412 -27.88740902 32.99716412 -21.12109375 30.10546875 C-19.41706349 27.80674337 -18.19126925 25.59510698 -17 23 C-16.195625 22.05125 -15.39125 21.1025 -14.5625 20.125 C-12.70380477 18.03677757 -12.70380477 18.03677757 -13 15 C-14.5442809 13.64625488 -14.5442809 13.64625488 -16.5 12.5 C-18.46875 11.28125 -18.46875 11.28125 -20 10 C-20 9.01 -20 8.02 -20 7 C-17.22927957 6.02051288 -14.45842883 5.04139725 -11.6875 4.0625 C-10.90181641 3.78470703 -10.11613281 3.50691406 -9.30664062 3.22070312 C-8.54931641 2.95322266 -7.79199219 2.68574219 -7.01171875 2.41015625 C-5.96697388 2.04096069 -5.96697388 2.04096069 -4.90112305 1.66430664 C-3.27236434 1.09517187 -1.63679332 0.54559777 0 0 Z M-8 6 C-7.67 6 -7.34 6 -7 6 C-7 7.65 -7 9.3 -7 11 C-7.33 11 -7.66 11 -8 11 C-8 9.35 -8 7.7 -8 6 Z " fill="#ECA044" transform="translate(402,107)"/>
<path d="M0 0 C0.33 0 0.66 0 1 0 C1 12.21 1 24.42 1 37 C-5.6 37 -12.2 37 -19 37 C-19 27.43 -19 17.86 -19 8 C-14.71 6.68 -10.42 5.36 -6 4 C-5.67 3.67 -5.34 3.34 -5 3 C-3.33382885 2.95936168 -1.66611905 2.957279 0 3 C0 2.01 0 1.02 0 0 Z " fill="#FB7C02" transform="translate(351,203)"/>
<path d="M0 0 C4.75 0.75 4.75 0.75 7 3 C7.804375 3.433125 8.60875 3.86625 9.4375 4.3125 C12.40955938 6.26970984 13.60205488 7.73812806 15 11 C15.14107823 16.21989465 11.31261927 20.28633723 8 24 C5.25368028 26.21045246 3.93033591 26.95461776 0.4375 27.125 C-2.68411009 25.68425688 -3.32121045 23.74295773 -4.87109375 20.7890625 C-6.90210115 17.57037258 -9.44650797 16.01879046 -13 15 C-19.11164581 14.47248433 -25.01160799 14.63090666 -31 16 C-30.61712558 13.43640603 -30.2228978 12.22236582 -28.36328125 10.3671875 C-27.34814453 9.62855469 -27.34814453 9.62855469 -26.3125 8.875 C-25.64863281 8.37742188 -24.98476563 7.87984375 -24.30078125 7.3671875 C-18.13078501 3.70080604 -12.05038527 3.67042399 -5.046875 3.44140625 C-4.04140625 3.29574219 -3.0359375 3.15007812 -2 3 C-1.34 2.01 -0.68 1.02 0 0 Z " fill="#E28721" transform="translate(333,158)"/>
<path d="M0 0 C0.66 0.33 1.32 0.66 2 1 C1.67 3.64 1.34 6.28 1 9 C-4.75 11 -4.75 11 -7 11 C-7 11.99 -7 12.98 -7 14 C-7.66 14 -8.32 14 -9 14 C-9 14.66 -9 15.32 -9 16 C-10.65788785 17.34423339 -12.32576317 18.67618483 -14 20 C-15.76323505 22.12603185 -15.76323505 22.12603185 -17 24 C-21.19283118 23.35155914 -25.26499921 22.48783354 -29.375 21.4375 C-30.43460937 21.16808594 -31.49421875 20.89867187 -32.5859375 20.62109375 C-33.38257813 20.41613281 -34.17921875 20.21117187 -35 20 C-34.24464574 13.76832738 -31.91656024 9.81528784 -28 5 C-25.09572251 2.78721715 -22.57933008 1.6628389 -19 1 C-19 2.32 -19 3.64 -19 5 C-18.01 4.34 -17.02 3.68 -16 3 C-13.44489249 2.56850833 -10.94595718 2.21537601 -8.375 1.9375 C-3.81587939 1.80318102 -3.81587939 1.80318102 0 0 Z " fill="#29AEAF" transform="translate(337,199)"/>
<path d="M0 0 C2.11198866 4.3257599 2.39870081 8.39149942 2.4375 13.125 C2.47037109 13.84042969 2.50324219 14.55585938 2.53710938 15.29296875 C2.55859375 17.3828125 2.55859375 17.3828125 2 21 C-0.9239882 23.88416735 -2.89440789 23.99224348 -6.98828125 24.29296875 C-8.42998091 24.27321944 -9.87153998 24.23772113 -11.3125 24.1875 C-12.42334961 24.16719727 -12.42334961 24.16719727 -13.55664062 24.14648438 C-15.37141075 24.11135979 -17.18580288 24.05755972 -19 24 C-19.02887512 20.35418313 -19.04675585 16.70839537 -19.0625 13.0625 C-19.07087891 12.02158203 -19.07925781 10.98066406 -19.08789062 9.90820312 C-19.09272461 8.42416992 -19.09272461 8.42416992 -19.09765625 6.91015625 C-19.10289307 5.99371338 -19.10812988 5.07727051 -19.11352539 4.13305664 C-19 2 -19 2 -18 1 C-15.73384646 0.7625376 -13.46128016 0.58502642 -11.1875 0.4375 C-9.32158203 0.31181641 -9.32158203 0.31181641 -7.41796875 0.18359375 C-4.94811577 0.05092736 -2.47341345 0 0 0 Z " fill="#47A5AA" transform="translate(349,250)"/>
<path d="M0 0 C0.66 0 1.32 0 2 0 C2 0.66 2 1.32 2 2 C2.556875 2.103125 3.11375 2.20625 3.6875 2.3125 C6.44176578 3.13133577 8.58727657 4.45853781 11 6 C10.67 6.99 10.34 7.98 10 9 C10.24211911 12.41134978 10.54545088 15.79952473 10.94726562 19.1953125 C11.41751931 24.45051863 11.41751931 24.45051863 9.4921875 26.984375 C6.04307919 28.38996773 3.15166183 28.32261313 -0.5625 28.25 C-1.23474609 28.24484375 -1.90699219 28.2396875 -2.59960938 28.234375 C-5.6534736 28.18585283 -8.08473632 27.97175456 -11 27 C-11 19.74 -11 12.48 -11 5 C-10.67 5 -10.34 5 -10 5 C-9.67 7.97 -9.34 10.94 -9 14 C-5.7 13.67 -2.4 13.34 1 13 C1.33 11.35 1.66 9.7 2 8 C-0.64 8 -3.28 8 -6 8 C-6 7.01 -6 6.02 -6 5 C-7.65 4.67 -9.3 4.34 -11 4 C-10.67 3.34 -10.34 2.68 -10 2 C-7.71484375 1.5859375 -7.71484375 1.5859375 -4.9375 1.375 C-4.01839844 1.30023438 -3.09929687 1.22546875 -2.15234375 1.1484375 C-1.44207031 1.09945312 -0.73179687 1.05046875 0 1 C0 0.67 0 0.34 0 0 Z " fill="#D0EFF1" transform="translate(318,248)"/>
<path d="M0 0 C0.66 0.33 1.32 0.66 2 1 C0.5839401 1.79275148 -0.83287553 2.58415312 -2.25 3.375 C-3.03890625 3.81585938 -3.8278125 4.25671875 -4.640625 4.7109375 C-6.73914197 5.85747823 -8.8536077 6.94649552 -11 8 C-10.505 9.60875 -10.505 9.60875 -10 11.25 C-9 15 -9 15 -9 19 C-9.680625 19.845625 -10.36125 20.69125 -11.0625 21.5625 C-12.0215625 22.7690625 -12.0215625 22.7690625 -13 24 C-12.505 25.485 -12.505 25.485 -12 27 C-11.34 27.33 -10.68 27.66 -10 28 C-9.855625 27.401875 -9.71125 26.80375 -9.5625 26.1875 C-9.1127561 24.43849596 -8.57107659 22.71322977 -8 21 C-7.01 21.33 -6.02 21.66 -5 22 C-8.41472138 27.91675224 -12.33459535 33.01398697 -17 38 C-17.44174561 38.52529297 -17.88349121 39.05058594 -18.33862305 39.59179688 C-20.44548265 41.37759646 -21.50129653 41.35103624 -24.23046875 41.29296875 C-25.03291016 41.28330078 -25.83535156 41.27363281 -26.66210938 41.26367188 C-27.49548828 41.23853516 -28.32886719 41.21339844 -29.1875 41.1875 C-30.4549707 41.16719727 -30.4549707 41.16719727 -31.74804688 41.14648438 C-33.83230384 41.11115799 -35.91623277 41.05735139 -38 41 C-38.495 39.515 -38.495 39.515 -39 38 C-39.99 38.495 -39.99 38.495 -41 39 C-41 38.34 -41 37.68 -41 37 C-41.66 36.67 -42.32 36.34 -43 36 C-43 37.98 -43 39.96 -43 42 C-43.66 41.34 -44.32 40.68 -45 40 C-45 38.02 -45 36.04 -45 34 C-37.74 34 -30.48 34 -23 34 C-22.67 32.35 -22.34 30.7 -22 29 C-19.93359375 26.2109375 -19.93359375 26.2109375 -17.4375 23.375 C-13.87097609 19.71947482 -13.87097609 19.71947482 -13 15 C-14.5442809 13.64625488 -14.5442809 13.64625488 -16.5 12.5 C-18.46875 11.28125 -18.46875 11.28125 -20 10 C-20 9.01 -20 8.02 -20 7 C-17.22927957 6.02051288 -14.45842883 5.04139725 -11.6875 4.0625 C-10.90181641 3.78470703 -10.11613281 3.50691406 -9.30664062 3.22070312 C-8.54931641 2.95322266 -7.79199219 2.68574219 -7.01171875 2.41015625 C-5.96697388 2.04096069 -5.96697388 2.04096069 -4.90112305 1.66430664 C-3.27236434 1.09517187 -1.63679332 0.54559777 0 0 Z M-8 6 C-7.67 6 -7.34 6 -7 6 C-7 7.65 -7 9.3 -7 11 C-7.33 11 -7.66 11 -8 11 C-8 9.35 -8 7.7 -8 6 Z " fill="#FB9F3A" transform="translate(402,107)"/>
<path d="M0 0 C1.98 0 3.96 0 6 0 C6 2.64 6 5.28 6 8 C9.3 8 12.6 8 16 8 C16 5.36 16 2.72 16 0 C17.65 0 19.3 0 21 0 C21 7.26 21 14.52 21 22 C19.35 22 17.7 22 16 22 C16 19.03 16 16.06 16 13 C12.7 13 9.4 13 6 13 C6 15.97 6 18.94 6 22 C4.02 22 2.04 22 0 22 C0 14.74 0 7.48 0 0 Z " fill="#329BA0" transform="translate(256,252)"/>
<path d="M0 0 C1.98 0 3.96 0 6 0 C7.13169701 2.35114592 8.25541381 4.70559335 9.375 7.0625 C9.69210937 7.71927734 10.00921875 8.37605469 10.3359375 9.05273438 C12.34820404 13.30783967 13.82600216 17.44038214 15 22 C12.625 22.1875 12.625 22.1875 10 22 C9.34 21.01 8.68 20.02 8 19 C5.3443272 18.41651248 5.3443272 18.41651248 2.375 18.3125 C1.37210937 18.24675781 0.36921875 18.18101562 -0.6640625 18.11328125 C-1.43492187 18.07589844 -2.20578125 18.03851563 -3 18 C-3.33 19.32 -3.66 20.64 -4 22 C-5.65 22 -7.3 22 -9 22 C-8.46012498 16.60124985 -6.5052721 12.69629405 -4 8 C-3.24591282 6.50205056 -2.49575073 5.00211712 -1.75 3.5 C-1.1725 2.345 -0.595 1.19 0 0 Z " fill="#35A4A9" transform="translate(289,252)"/>
<path d="M0 0 C12.34519435 -0.31209761 21.08542287 0.0162705 31 8 C31.495 8.99 31.495 8.99 32 10 C29.0625 9.625 29.0625 9.625 26 9 C25.505 8.01 25.505 8.01 25 7 C24.34 7 23.68 7 23 7 C22.34 7.99 21.68 8.98 21 10 C17.98828125 10.40625 17.98828125 10.40625 14.3125 10.5 C5.83179036 10.94999684 -0.65442005 13.12047959 -7 19 C-7.33 19.99 -7.66 20.98 -8 22 C-7.34 22.33 -6.68 22.66 -6 23 C-7.98 24.65 -9.96 26.3 -12 28 C-12.37588546 22.80177912 -10.68014246 20.23210004 -7.79296875 16.0625 C-6.00466738 14.00536902 -4.686325 13.0816023 -2.25 11.9375 C1.06037928 10.38942133 1.06037928 10.38942133 1.88671875 7.98828125 C2.53152282 5.51623965 2.53152282 5.51623965 3 2 C2.01 2 1.02 2 0 2 C0 1.34 0 0.68 0 0 Z " fill="#75AE8C" transform="translate(310,152)"/>
<path d="M0 0 C4.26072125 0.30433723 6.24539137 2.97664906 9 6 C10.69854339 7.97699312 12.35427654 9.97811118 14 12 C12 13 12 13 9.875 13.3125 C5.92383245 14.25734442 2.56906707 16.09590715 -1 18 C-1 19.98 -1 21.96 -1 24 C-2.14626322 23.02133662 -3.29199788 22.04205413 -4.4375 21.0625 C-5.39462891 20.24458984 -5.39462891 20.24458984 -6.37109375 19.41015625 C-8.95348798 17.17455837 -9.28687843 16.3349304 -9.5625 12.875 C-9.5625 9.66316365 -9.32044634 8.38768284 -7.25 5.8828125 C-5.22887983 4.1432055 -3.1731221 2.54369773 -1 1 C-0.67 0.67 -0.34 0.34 0 0 Z " fill="#A1A16B" transform="translate(364,197)"/>
<path d="M0 0 C4.75 0.75 4.75 0.75 7 3 C7.804375 3.433125 8.60875 3.86625 9.4375 4.3125 C12.40955938 6.26970984 13.60205488 7.73812806 15 11 C14.6875 13.8125 14.6875 13.8125 14 16 C13.67 16 13.34 16 13 16 C13 14.02 13 12.04 13 10 C12.34 10 11.68 10 11 10 C10.505 9.01 10.505 9.01 10 8 C7.97536745 7.34786708 7.97536745 7.34786708 6 7 C5.67 7.66 5.34 8.32 5 9 C4.02160156 8.7834375 4.02160156 8.7834375 3.0234375 8.5625 C-1.72620177 7.55372706 -6.11409188 6.74284694 -11 7 C-11.33 7.66 -11.66 8.32 -12 9 C-14.5625 9.625 -14.5625 9.625 -17 10 C-17 10.66 -17 11.32 -17 12 C-15.865625 12.12375 -14.73125 12.2475 -13.5625 12.375 C-12.386875 12.58125 -11.21125 12.7875 -10 13 C-9.67 13.66 -9.34 14.32 -9 15 C-10.16917969 14.98839844 -11.33835937 14.97679687 -12.54296875 14.96484375 C-14.09114423 14.95546087 -15.63932145 14.9463612 -17.1875 14.9375 C-17.95642578 14.92912109 -18.72535156 14.92074219 -19.51757812 14.91210938 C-23.48526789 14.89508066 -27.12571234 15.01395885 -31 16 C-30.61712558 13.43640603 -30.2228978 12.22236582 -28.36328125 10.3671875 C-27.34814453 9.62855469 -27.34814453 9.62855469 -26.3125 8.875 C-25.64863281 8.37742188 -24.98476563 7.87984375 -24.30078125 7.3671875 C-18.13078501 3.70080604 -12.05038527 3.67042399 -5.046875 3.44140625 C-4.04140625 3.29574219 -3.0359375 3.15007812 -2 3 C-1.34 2.01 -0.68 1.02 0 0 Z " fill="#B19243" transform="translate(333,158)"/>
<path d="M0 0 C0.99 0.33 1.98 0.66 3 1 C3 2.32 3 3.64 3 5 C3.99 5.33 4.98 5.66 6 6 C6.66 4.68 7.32 3.36 8 2 C9.32 2 10.64 2 12 2 C8.91798637 10.73237195 3.02057915 18.41681191 -5 23 C-5.33 23.99 -5.66 24.98 -6 26 C-7.84765625 26.73046875 -7.84765625 26.73046875 -10.0625 27.1875 C-10.79597656 27.34605469 -11.52945312 27.50460938 -12.28515625 27.66796875 C-12.85105469 27.77753906 -13.41695313 27.88710937 -14 28 C-13.38125 27.4225 -12.7625 26.845 -12.125 26.25 C-10.16404311 24.17369271 -9.188424 22.54662285 -8 20 C-7.34 19.34 -6.68 18.68 -6 18 C-5.67 17.01 -5.34 16.02 -5 15 C-5.99 15 -6.98 15 -8 15 C-8.3125 12.8125 -8.3125 12.8125 -8 10 C-5.6875 7.5 -5.6875 7.5 -3 5 C-1.94712186 3.36622358 -0.9272999 1.70818403 0 0 Z " fill="#77A17B" transform="translate(357,180)"/>
<path d="M0 0 C2.81593609 2.25274887 3.25804908 4.6986179 3.8125 8.125 C3.874375 9.40375 3.93625 10.6825 4 12 C2 14 2 14 -1.6953125 14.1953125 C-3.17200108 14.182009 -4.64862358 14.15814835 -6.125 14.125 C-6.87910156 14.11597656 -7.63320313 14.10695312 -8.41015625 14.09765625 C-10.27357254 14.0740687 -12.13682593 14.03819719 -14 14 C-14.08121924 12.39667209 -14.13929134 10.79215974 -14.1875 9.1875 C-14.22230469 8.29417969 -14.25710938 7.40085938 -14.29296875 6.48046875 C-14 4 -14 4 -12.59765625 2.21875 C-8.90423656 -0.59872419 -4.48565236 -0.40778658 0 0 Z " fill="#FA7D04" transform="translate(383,225)"/>
<path d="M0 0 C4.62 0 9.24 0 14 0 C13.01 0.33 12.02 0.66 11 1 C11 1.66 11 2.32 11 3 C9.02 3 7.04 3 5 3 C5 4.65 5 6.3 5 8 C5.68707031 7.96519531 6.37414062 7.93039062 7.08203125 7.89453125 C7.98308594 7.86746094 8.88414062 7.84039062 9.8125 7.8125 C10.70582031 7.77769531 11.59914063 7.74289062 12.51953125 7.70703125 C15 8 15 8 16.8125 9.28125 C18.71849898 12.03993273 18.18355742 14.7571522 18 18 C17.01 18 16.02 18 15 18 C15 16.35 15 14.7 15 13 C11.7 12.67 8.4 12.34 5 12 C5 13.98 5 15.96 5 18 C7.97 18.33 10.94 18.66 14 19 C14 19.33 14 19.66 14 20 C9.07337118 21.27138808 5.46314577 21 0 21 C0 14.07 0 7.14 0 0 Z " fill="#2D9DA3" transform="translate(331,253)"/>
<path d="M0 0 C6.6 0 13.2 0 20 0 C20 1.32 20 2.64 20 4 C17.69 4 15.38 4 13 4 C13 10.27 13 16.54 13 23 C11.02 23 9.04 23 7 23 C7 16.73 7 10.46 7 4 C4.69 4 2.38 4 0 4 C0 2.68 0 1.36 0 0 Z " fill="#3EA0A4" transform="translate(362,252)"/>
<path d="M0 0 C1.98 0 3.96 0 6 0 C6 5.94 6 11.88 6 18 C9.63 18 13.26 18 17 18 C17 19.65 17 21.3 17 23 C11.39 23 5.78 23 0 23 C0 15.41 0 7.82 0 0 Z " fill="#51AAAC" transform="translate(384,252)"/>
<path d="M0 0 C0.33 0 0.66 0 1 0 C1.33 2.97 1.66 5.94 2 9 C5.3 8.67 8.6 8.34 12 8 C12.33 6.35 12.66 4.7 13 3 C10.36 3 7.72 3 5 3 C5 2.01 5 1.02 5 0 C6.77007714 -0.08114106 8.54122098 -0.13925505 10.3125 -0.1875 C11.29863281 -0.22230469 12.28476562 -0.25710937 13.30078125 -0.29296875 C16 0 16 0 17.86328125 1.35546875 C19 3 19 3 18.875 5.5 C17.91899688 8.2314375 17.27678486 9.25597274 15 11 C12.51953125 11.29296875 12.51953125 11.29296875 9.8125 11.1875 C8.91144531 11.16042969 8.01039063 11.13335937 7.08203125 11.10546875 C6.39496094 11.07066406 5.70789063 11.03585937 5 11 C5 13.31 5 15.62 5 18 C9.62 18 14.24 18 19 18 C18.67 18.66 18.34 19.32 18 20 C14.37918537 21.20693821 11.0749281 21.10782079 7.3125 21.0625 C3.6928125 21.0315625 3.6928125 21.0315625 0 21 C0 14.07 0 7.14 0 0 Z " fill="#33A3A8" transform="translate(307,253)"/>
<path d="M0 0 C2.6875 -0.5 2.6875 -0.5 6 0 C8.08132026 2.45240837 9.55490096 5.1353789 11 8 C11.433125 7.4225 11.86625 6.845 12.3125 6.25 C13.1478125 5.13625 13.1478125 5.13625 14 4 C14.45375 3.2575 14.9075 2.515 15.375 1.75 C17 0 17 0 19.6875 -0.25 C20.450625 -0.1675 21.21375 -0.085 22 0 C20.8694871 3.28876481 19.40062095 5.91312002 17.4375 8.75 C14.65347237 13.04067788 14.12845331 16.95528821 14 22 C12.35 22 10.7 22 9 22 C8.979375 20.906875 8.95875 19.81375 8.9375 18.6875 C8.32619103 13.42083806 5.5442988 9.70472919 2.59375 5.41796875 C1 3 1 3 0 0 Z " fill="#3CA3A4" transform="translate(398,252)"/>
<path d="M0 0 C0.99 0.33 1.98 0.66 3 1 C3.125 8.625 3.125 8.625 2 12 C1.95389217 14.86156696 1.95584669 17.70241117 2 20.5625 C2.05770394 27.12370022 1.84111409 33.4813658 1 40 C1.99 40 2.98 40 4 40 C4 40.66 4 41.32 4 42 C5.32 42 6.64 42 8 42 C8.06058594 41.36191406 8.12117188 40.72382813 8.18359375 40.06640625 C8.26738281 39.24011719 8.35117187 38.41382813 8.4375 37.5625 C8.51871094 36.73878906 8.59992188 35.91507813 8.68359375 35.06640625 C9 33 9 33 10 32 C11.99958364 31.95919217 14.00045254 31.95745644 16 32 C15.5504955 33.31554985 15.09010284 34.62738358 14.625 35.9375 C14.36976563 36.66839844 14.11453125 37.39929688 13.8515625 38.15234375 C13 40 13 40 11 41 C10.8453125 41.928125 10.8453125 41.928125 10.6875 42.875 C10 45 10 45 7.75 46.75 C5 48 5 48 0 48 C0 32.16 0 16.32 0 0 Z " fill="#28AEB4" transform="translate(277,192)"/>
<path d="M0 0 C2.84181867 2.43468133 3.9257435 4.81728946 5.1875 8.3125 C5.70376953 9.69888672 5.70376953 9.69888672 6.23046875 11.11328125 C7 14 7 14 7 20 C19.375 19.505 19.375 19.505 32 19 C31.34 18.01 30.68 17.02 30 16 C31.98 16.33 33.96 16.66 36 17 C36 17.66 36 18.32 36 19 C36.66 19.33 37.32 19.66 38 20 C36 23 36 23 34 23.6875 C26.27989537 24.49167757 18.68519614 23.91568294 11 23 C10.67 23.66 10.34 24.32 10 25 C10 24.34 10 23.68 10 23 C9.195625 22.87625 8.39125 22.7525 7.5625 22.625 C6.2940625 22.315625 6.2940625 22.315625 5 22 C3.81474702 19.62949403 3.79301167 17.89018332 3.625 15.25 C3.2398092 10.86766529 2.1252837 7.88095284 0 4 C0 2.68 0 1.36 0 0 Z " fill="#F8F1E3" transform="translate(361,220)"/>
<path d="M0 0 C1.28132813 0.00902344 2.56265625 0.01804688 3.8828125 0.02734375 C4.87023437 0.03894531 5.85765625 0.05054688 6.875 0.0625 C6.875 0.7225 6.875 1.3825 6.875 2.0625 C2.255 2.0625 -2.365 2.0625 -7.125 2.0625 C-7.00125 3.8878125 -7.00125 3.8878125 -6.875 5.75 C-6.88502649 12.04663682 -8.30361628 18.42781675 -11.125 24.0625 C-13.6875 25.30859375 -13.6875 25.30859375 -16.125 26.0625 C-17.46910262 28.07985205 -17.46910262 28.07985205 -18.125 30.0625 C-19.445 29.4025 -20.765 28.7425 -22.125 28.0625 C-22.53235632 20.59430074 -21.32067905 14.35601857 -17.125 8.0625 C-16.41332014 13.13321901 -16.01837674 17.94458358 -16.125 23.0625 C-15.135 22.7325 -14.145 22.4025 -13.125 22.0625 C-12.9703125 21.0415625 -12.9703125 21.0415625 -12.8125 20 C-12.125 17.0625 -12.125 17.0625 -10.5625 13.8125 C-8.65268761 9.61276693 -8.84755776 5.59405664 -9.125 1.0625 C-6.12186252 -0.43906874 -3.33432478 -0.03031204 0 0 Z " fill="#BF913E" transform="translate(381.125,156.9375)"/>
<path d="M0 0 C0.66 0.99 1.32 1.98 2 3 C2.99 3.33 3.98 3.66 5 4 C2.50410882 11.3408564 -1.65874237 14.77249492 -8 19 C-9.71444889 19.43738696 -11.44667784 19.80848688 -13.1875 20.125 C-14.08855469 20.29257813 -14.98960937 20.46015625 -15.91796875 20.6328125 C-16.60503906 20.75398438 -17.29210937 20.87515625 -18 21 C-18 20.34 -18 19.68 -18 19 C-15.69 18.34 -13.38 17.68 -11 17 C-10.99742187 16.40832031 -10.99484375 15.81664062 -10.9921875 15.20703125 C-10.68194475 8.86773775 -10.68194475 8.86773775 -8.73828125 6.39453125 C-7.1875 5.125 -7.1875 5.125 -4 3 C-3.21625 2.401875 -2.4325 1.80375 -1.625 1.1875 C-1.08875 0.795625 -0.5525 0.40375 0 0 Z " fill="#5FA68A" transform="translate(348,191)"/>
<path d="M0 0 C0.33 0.66 0.66 1.32 1 2 C0.01 3.485 0.01 3.485 -1 5 C-2.91414783 10.94887119 -3.2615121 16.82332583 -3.203125 23.0234375 C-3.21367227 24.72136185 -3.22542847 26.41927904 -3.23828125 28.1171875 C-3.24856839 30.74579779 -3.25001227 33.37338934 -3.22998047 36.00195312 C-3.11582479 55.66618864 -3.11582479 55.66618864 -10 64 C-11.485 64.99 -11.485 64.99 -13 66 C-12.67 64.68 -12.34 63.36 -12 62 C-11.34 62 -10.68 62 -10 62 C-8.63020015 57.56894703 -7.70855541 53.591579 -7.4375 48.9375 C-7.36144531 47.65617187 -7.28539062 46.37484375 -7.20703125 45.0546875 C-7.01537086 40.91517319 -6.91773223 36.77561655 -6.82421875 32.6328125 C-6.77369335 30.61791742 -6.72243491 28.60304175 -6.6711731 26.58816528 C-6.6257642 24.59602617 -6.59679864 22.6035341 -6.56811523 20.61108398 C-6.40335184 13.78197085 -6.14464598 8.13280485 -3 2 C-2.01 1.34 -1.02 0.68 0 0 Z " fill="#4FB8B9" transform="translate(300,170)"/>
<path d="M0 0 C0.66 0.33 1.32 0.66 2 1 C0.5839401 1.79275148 -0.83287553 2.58415312 -2.25 3.375 C-3.43335938 4.03628906 -3.43335938 4.03628906 -4.640625 4.7109375 C-6.73914197 5.85747823 -8.8536077 6.94649552 -11 8 C-10.67 9.0725 -10.34 10.145 -10 11.25 C-9 15 -9 15 -9 19 C-10.2421875 20.921875 -10.2421875 20.921875 -11.875 22.75 C-12.40867187 23.36359375 -12.94234375 23.9771875 -13.4921875 24.609375 C-15 26 -15 26 -17 26 C-17.66 27.32 -18.32 28.64 -19 30 C-19.66 30 -20.32 30 -21 30 C-21 30.66 -21 31.32 -21 32 C-21.66 32 -22.32 32 -23 32 C-21.01154971 27.48935751 -17.83669257 24.07544583 -14.6796875 20.33984375 C-12.70841956 18.07387429 -12.70841956 18.07387429 -13 15 C-14.5442809 13.64625488 -14.5442809 13.64625488 -16.5 12.5 C-18.46875 11.28125 -18.46875 11.28125 -20 10 C-20 9.01 -20 8.02 -20 7 C-17.22927957 6.02051288 -14.45842883 5.04139725 -11.6875 4.0625 C-10.50897461 3.64581055 -10.50897461 3.64581055 -9.30664062 3.22070312 C-8.54931641 2.95322266 -7.79199219 2.68574219 -7.01171875 2.41015625 C-6.31522217 2.16402588 -5.61872559 1.91789551 -4.90112305 1.66430664 C-3.27236434 1.09517187 -1.63679332 0.54559777 0 0 Z M-8 6 C-7.67 6 -7.34 6 -7 6 C-7 7.65 -7 9.3 -7 11 C-7.33 11 -7.66 11 -8 11 C-8 9.35 -8 7.7 -8 6 Z " fill="#ECA14A" transform="translate(402,107)"/>
<path d="M0 0 C0.33 0 0.66 0 1 0 C1.02468447 4.80549747 1.04285255 9.61095818 1.05493164 14.41650391 C1.05996621 16.05192711 1.06679427 17.6873458 1.07543945 19.32275391 C1.08754335 21.67090975 1.093237 24.01900619 1.09765625 26.3671875 C1.10281754 27.10057343 1.10797882 27.83395935 1.11329651 28.58956909 C1.11387171 33.77225659 1.11387171 33.77225659 0 36 C0.99 36 1.98 36 3 36 C2.52583422 40.97874064 1.0900669 44.06718758 -2 48 C-2.66 48 -3.32 48 -4 48 C-4.33 46.68 -4.66 45.36 -5 44 C-6.32 43.67 -7.64 43.34 -9 43 C-8.01881096 41.024481 -7.02968058 39.05623079 -6 37.10546875 C-5.67 36.47253906 -5.34 35.83960938 -5 35.1875 C-4.67 34.56230469 -4.34 33.93710938 -4 33.29296875 C-0.86062709 26.09448477 -0.59659527 19.34141743 -0.375 11.5625 C-0.33632813 10.44939453 -0.29765625 9.33628906 -0.2578125 8.18945312 C-0.16409034 5.45979524 -0.07837706 2.73013437 0 0 Z " fill="#B4B88C" transform="translate(355,140)"/>
<path d="M0 0 C2.4375 0.9375 2.4375 0.9375 3.75 3.5 C4.0903125 4.7065625 4.0903125 4.7065625 4.4375 5.9375 C3.14732586 6.91863243 1.85530894 7.89734199 0.5625 8.875 C-0.51644531 9.69291016 -0.51644531 9.69291016 -1.6171875 10.52734375 C-5.04886376 13.01496449 -7.32213671 13.29086361 -11.5625 12.9375 C-12.2225 11.9475 -12.8825 10.9575 -13.5625 9.9375 C-15.53997122 9.57452064 -15.53997122 9.57452064 -17.6875 9.75 C-18.96625 9.811875 -20.245 9.87375 -21.5625 9.9375 C-19.26247169 8.78471473 -16.9590392 7.63941467 -14.65234375 6.5 C-13.61207031 5.984375 -12.57179688 5.46875 -11.5 4.9375 C-10.45714844 4.421875 -9.41429687 3.90625 -8.33984375 3.375 C-1.7372579 -0.04237214 -1.7372579 -0.04237214 0 0 Z " fill="#7DB8A3" transform="translate(347.5625,183.0625)"/>
<path d="M0 0 C0.33 0 0.66 0 1 0 C1 12.21 1 24.42 1 37 C-5.6 37 -12.2 37 -19 37 C-19 27.43 -19 17.86 -19 8 C-17.02 7.67 -15.04 7.34 -13 7 C-13.66 7.66 -14.32 8.32 -15 9 C-15.99 9 -16.98 9 -18 9 C-18 10.98 -18 12.96 -18 15 C-17.34 15 -16.68 15 -16 15 C-16.33 21.93 -16.66 28.86 -17 36 C-11.72 36 -6.44 36 -1 36 C-1.01160156 34.0715625 -1.02320313 32.143125 -1.03515625 30.15625 C-1.04453891 27.60416764 -1.0536386 25.05208422 -1.0625 22.5 C-1.07087891 21.2315625 -1.07925781 19.963125 -1.08789062 18.65625 C-1.10434137 12.33916501 -1.00091014 6.24189628 0 0 Z " fill="#D89346" transform="translate(351,203)"/>
<path d="M0 0 C2.8125 0.0625 2.8125 0.0625 6 1 C8.74027358 4.34922327 10.76389178 7.84218143 12 12 C11.67 12.99 11.34 13.98 11 15 C8.4345406 12.4345406 8.45953913 10.52313332 8 7 C3.61667943 7.82187261 -0.67940177 8.90154282 -5 10 C-5.33 12.97 -5.66 15.94 -6 19 C-8.00293347 15.99559979 -8.49271626 14.29006055 -9.125 10.8125 C-9.29257812 9.91144531 -9.46015625 9.01039063 -9.6328125 8.08203125 C-9.75398438 7.39496094 -9.87515625 6.70789063 -10 6 C-9.36191406 5.65066406 -8.72382813 5.30132812 -8.06640625 4.94140625 C-7.24011719 4.48636719 -6.41382813 4.03132812 -5.5625 3.5625 C-4.73878906 3.11003906 -3.91507812 2.65757812 -3.06640625 2.19140625 C-1.07691202 1.16337603 -1.07691202 1.16337603 0 0 Z " fill="#D2A24C" transform="translate(372,209)"/>
<path d="M0 0 C1.98 0 3.96 0 6 0 C6 7.59 6 15.18 6 23 C4.02 23 2.04 23 0 23 C0 15.41 0 7.82 0 0 Z " fill="#46ABAD" transform="translate(354,252)"/>
<path d="M0 0 C1.65 1.32 3.3 2.64 5 4 C4.278125 4.391875 3.55625 4.78375 2.8125 5.1875 C-0.1381368 6.94881784 -0.1381368 6.94881784 -2.6875 9.6875 C-3.8321875 10.8321875 -3.8321875 10.8321875 -5 12 C-5.66 12 -6.32 12 -7 12 C-6.93798097 18.43455051 -6.93798097 18.43455051 -3.4375 23.5625 C-2.633125 24.036875 -1.82875 24.51125 -1 25 C-1.66 26.32 -2.32 27.64 -3 29 C-3.33 27.68 -3.66 26.36 -4 25 C-5.32 24.67 -6.64 24.34 -8 24 C-8.33 31.59 -8.66 39.18 -9 47 C-9.33 47 -9.66 47 -10 47 C-10.19836551 41.69830036 -10.34319949 36.39877635 -10.43945312 31.09423828 C-10.47958705 29.2917721 -10.5341109 27.48956483 -10.60351562 25.68798828 C-11.16869106 10.63603675 -11.16869106 10.63603675 -8.25390625 6.55566406 C-6.22466414 5.0722624 -4.25630068 4.08185846 -2 3 C-1.34 2.01 -0.68 1.02 0 0 Z " fill="#F2F6E9" transform="translate(362,193)"/>
<path d="M0 0 C0.86625 0.804375 1.7325 1.60875 2.625 2.4375 C1.965 2.7675 1.305 3.0975 0.625 3.4375 C-1.3125 2.5625 -1.3125 2.5625 -3.375 1.4375 C-4.365 1.1075 -5.355 0.7775 -6.375 0.4375 C-7.035 1.4275 -7.695 2.4175 -8.375 3.4375 C-11.38671875 3.84375 -11.38671875 3.84375 -15.0625 3.9375 C-23.54320964 4.38749684 -30.02942005 6.55797959 -36.375 12.4375 C-36.705 13.4275 -37.035 14.4175 -37.375 15.4375 C-36.715 15.7675 -36.055 16.0975 -35.375 16.4375 C-37.355 18.0875 -39.335 19.7375 -41.375 21.4375 C-41.81064273 15.41287985 -39.14550313 11.92179549 -35.375 7.4375 C-30.21723925 3.41444662 -25.49722731 2.7798581 -19.046875 2.125 C-15.79395619 1.28799165 -15.12530988 0.21291348 -13.375 -2.5625 C-8.51244451 -4.74226625 -3.91351169 -3.25818308 0 0 Z " fill="#8DA36F" transform="translate(339.375,158.5625)"/>
<path d="M0 0 C4.2343706 0.30245504 6.28000977 2.98595678 9 6 C9.33 6.66 9.66 7.32 10 8 C9.030625 8.12375 8.06125 8.2475 7.0625 8.375 C6.051875 8.58125 5.04125 8.7875 4 9 C3.67 9.66 3.34 10.32 3 11 C2.0925 10.938125 1.185 10.87625 0.25 10.8125 C-3.35138165 11.02027202 -4.45163397 11.54264704 -7 14 C-7.66 14.99 -8.32 15.98 -9 17 C-9.51187875 13.86474264 -9.66746065 11.11976051 -9 8 C-6.67150864 5.17142996 -3.97545909 3.11364536 -1 1 C-0.67 0.67 -0.34 0.34 0 0 Z " fill="#88B498" transform="translate(364,197)"/>
<path d="M0 0 C1.98 0 3.96 0 6 0 C6 0.66 6 1.32 6 2 C8.64 2.66 11.28 3.32 14 4 C14 4.66 14 5.32 14 6 C15.32 6 16.64 6 18 6 C18 6.66 18 7.32 18 8 C17.030625 7.814375 16.06125 7.62875 15.0625 7.4375 C14.051875 7.293125 13.04125 7.14875 12 7 C11.67 7.33 11.34 7.66 11 8 C9.33382885 8.04063832 7.66611905 8.042721 6 8 C6 9.65 6 11.3 6 13 C4.02 12.01 2.04 11.02 0 10 C0.33 9.34 0.66 8.68 1 8 C-1.31 7.34 -3.62 6.68 -6 6 C-6 5.34 -6 4.68 -6 4 C-4.35 3.67 -2.7 3.34 -1 3 C-0.67 2.01 -0.34 1.02 0 0 Z " fill="#DC861B" transform="translate(322,164)"/>
<path d="M0 0 C1.18817968 3.73310433 1.11362739 7.27491645 1.09765625 11.171875 C1.09553383 12.1955014 1.09553383 12.1955014 1.09336853 13.23980713 C1.08779084 15.40991684 1.07524254 17.5799217 1.0625 19.75 C1.05748211 21.22525892 1.05291971 22.70051947 1.04882812 24.17578125 C1.03782875 27.78388798 1.02057953 31.39193375 1 35 C1.66 35 2.32 35 3 35 C3.1546875 34.13375 3.1546875 34.13375 3.3125 33.25 C4.10896465 30.64338842 5.19065277 29.0264689 7 27 C7.66 27 8.32 27 9 27 C8.71125 27.70125 8.4225 28.4025 8.125 29.125 C6.97866412 32.05452503 5.97374346 35.00921653 5 38 C5.66386719 38.04898438 6.32773437 38.09796875 7.01171875 38.1484375 C15.78207381 38.89103691 15.78207381 38.89103691 20 41 C19.34 41.66 18.68 42.32 18 43 C17.360625 42.649375 16.72125 42.29875 16.0625 41.9375 C10.96845106 40.37809726 5.99337336 41.33554221 1 43 C1 42.34 1 41.68 1 41 C0.34 40.67 -0.32 40.34 -1 40 C-1.02470935 34.78556667 -1.04286444 29.57116739 -1.05493164 24.35668945 C-1.059962 22.58259487 -1.06678699 20.80850444 -1.07543945 19.03442383 C-1.08756174 16.48517839 -1.09324126 13.93598774 -1.09765625 11.38671875 C-1.10281754 10.59287277 -1.10797882 9.79902679 -1.11329651 8.98112488 C-1.11362877 5.72343714 -1.03772826 3.11318479 0 0 Z " fill="#D6F5F5" transform="translate(297,181)"/>
<path d="M0 0 C0.125 2.375 0.125 2.375 0 5 C-4.72082912 9.72082912 -11.66234076 10.7784557 -18 12 C-18 10.02 -18 8.04 -18 6 C-5.63248503 -0.32185629 -5.63248503 -0.32185629 0 0 Z " fill="#BB6E0B" transform="translate(351,206)"/>
<path d="M0 0 C0.33 2.64 0.66 5.28 1 8 C-2.44069624 10.29379749 -3.72290301 11 -8 11 C-8.28875 10.360625 -8.5775 9.72125 -8.875 9.0625 C-9.82823451 6.84793921 -9.82823451 6.84793921 -12 6 C-12 4.02 -12 2.04 -12 0 C-7.22144261 -2.04795317 -4.77855739 -2.04795317 0 0 Z " fill="#FB7A04" transform="translate(340,172)"/>
<path d="M0 0 C0.309375 0.639375 0.61875 1.27875 0.9375 1.9375 C1.8345163 3.93610821 1.8345163 3.93610821 3 5 C3.99 4.01 4.98 3.02 6 2 C9 5.625 9 5.625 9 9 C7.02 9 5.04 9 3 9 C3 9.66 3 10.32 3 11 C5.64 11.33 8.28 11.66 11 12 C11 12.33 11 12.66 11 13 C7.37 13 3.74 13 0 13 C-0.33 14.32 -0.66 15.64 -1 17 C-2.65 17 -4.3 17 -6 17 C-5.53341459 12.33414589 -4.11993472 8.90002537 -1.9375 4.83203125 C-0.86837089 2.85621068 -0.86837089 2.85621068 0 0 Z " fill="#44B0B4" transform="translate(286,257)"/>
<path d="M0 0 C0.6875 2.0625 0.6875 2.0625 1 4 C-0.2065625 4.4640625 -0.2065625 4.4640625 -1.4375 4.9375 C-3.89080405 5.76335345 -3.89080405 5.76335345 -5 7 C-5.23287008 8.68183948 -5.41264166 10.3712416 -5.5625 12.0625 C-5.706875 13.691875 -5.85125 15.32125 -6 17 C-0.72 16.67 4.56 16.34 10 16 C10.33 14.68 10.66 13.36 11 12 C11.33333333 10.66666667 11.66666667 9.33333333 12 8 C12.98113243 9.29017414 13.95984199 10.58219106 14.9375 11.875 C15.48277344 12.59429687 16.02804687 13.31359375 16.58984375 14.0546875 C18 16 18 16 19 18 C10.42 18 1.84 18 -7 18 C-8.81687612 7.09874327 -8.81687612 7.09874327 -8 2 C-4.95721218 -0.8783128 -4.00764254 -1.33588085 0 0 Z " fill="#E3811A" transform="translate(375,222)"/>
<path d="M0 0 C1 1 1 1 1.0625 4.0625 C1.041875 5.031875 1.02125 6.00125 1 7 C-4.34629602 8.0024305 -8.62374766 7.84888195 -14 7 C-14 4.69 -14 2.38 -14 0 C-12.41773035 -0.19627391 -10.83410729 -0.38165538 -9.25 -0.5625 C-8.36828125 -0.66691406 -7.4865625 -0.77132813 -6.578125 -0.87890625 C-4.09847018 -0.99537489 -2.33708681 -0.79482007 0 0 Z " fill="#399EA4" transform="translate(326,264)"/>
<path d="M0 0 C1.98 0 3.96 0 6 0 C6 2.64 6 5.28 6 8 C9.3 8 12.6 8 16 8 C16 5.36 16 2.72 16 0 C17.65 0 19.3 0 21 0 C19.68 0.33 18.36 0.66 17 1 C17 1.66 17 2.32 17 3 C17.99 3 18.98 3 20 3 C20 6.63 20 10.26 20 14 C19.67 14 19.34 14 19 14 C19 12.35 19 10.7 19 9 C18.30519531 9.16371094 17.61039062 9.32742188 16.89453125 9.49609375 C13.7647184 10.04095996 10.86201917 10.09738483 7.6875 10.0625 C6.61886719 10.05347656 5.55023438 10.04445313 4.44921875 10.03515625 C3.64097656 10.02355469 2.83273437 10.01195312 2 10 C2.03255208 7.94921875 2.06510417 5.8984375 2.09765625 3.84765625 C2.20561184 1.98267859 2.20561184 1.98267859 1 1 C1 7.93 1 14.86 1 22 C0.67 22 0.34 22 0 22 C0 14.74 0 7.48 0 0 Z " fill="#56B4B7" transform="translate(256,252)"/>
<path d="M0 0 C4 0 4 0 6 1 C9.05270463 1.15811388 9.05270463 1.15811388 12 0 C12.33 0.99 12.66 1.98 13 3 C12.67 3.33 12.34 3.66 12 4 C10.02 4 8.04 4 6 4 C6 11.26 6 18.52 6 26 C4.35 25.67 2.7 25.34 1 25 C1.165 24.071875 1.33 23.14375 1.5 22.1875 C2.56765316 14.55919556 2.59284091 7.29236505 0 0 Z " fill="#EAF4F5" transform="translate(348,248)"/>
<path d="M0 0 C0.33 0 0.66 0 1 0 C1 3.96 1 7.92 1 12 C2.32 11.67 3.64 11.34 5 11 C6.86602738 16.59808214 6.85898614 22.67262638 4.5 28.125 C4.005 29.07375 3.51 30.0225 3 31 C2.67 29.68 2.34 28.36 2 27 C1.01 27 0.02 27 -1 27 C-0.67 18.09 -0.34 9.18 0 0 Z " fill="#D6AA5B" transform="translate(356,149)"/>
<path d="M0 0 C0 5.16842105 0 5.16842105 -1 8 C-2.8875266 9.66745623 -4.75358123 10.7504465 -6.9921875 11.89453125 C-9.05453938 13.03002849 -10.42217417 14.26836096 -12 16 C-11.690625 15.319375 -11.38125 14.63875 -11.0625 13.9375 C-9.86629351 10.63034088 -9.40994603 7.48454122 -9 4 C-10.65 4 -12.3 4 -14 4 C-8.59129276 -0.41236643 -6.98723078 -1.16453846 0 0 Z " fill="#5FB9AA" transform="translate(313,154)"/>
<path d="M0 0 C4.29 0 8.58 0 13 0 C13 0.33 13 0.66 13 1 C10.36 1 7.72 1 5 1 C5 1.99 5 2.98 5 4 C7.64 4 10.28 4 13 4 C13.625 5.875 13.625 5.875 14 8 C12 10 12 10 9.6171875 10.1953125 C8.71226562 10.17210937 7.80734375 10.14890625 6.875 10.125 C5.50988281 10.09792969 5.50988281 10.09792969 4.1171875 10.0703125 C3.41851562 10.04710937 2.71984375 10.02390625 2 10 C1.67 10.66 1.34 11.32 1 12 C0.67 8.04 0.34 4.08 0 0 Z " fill="#3AA3A8" transform="translate(307,252)"/>
<path d="M0 0 C0.99 0.33 1.98 0.66 3 1 C3 2.32 3 3.64 3 5 C3.99 5.33 4.98 5.66 6 6 C6.66 4.68 7.32 3.36 8 2 C9.32 2 10.64 2 12 2 C10.80100302 5.0831351 9.52299523 8.06279492 8 11 C6.35 11 4.7 11 3 11 C3 11.66 3 12.32 3 13 C1.68 13.33 0.36 13.66 -1 14 C-2.29456734 11.41086532 -1.93282201 9.86191275 -1.625 7 C-1.53476562 6.113125 -1.44453125 5.22625 -1.3515625 4.3125 C-1 2 -1 2 0 0 Z " fill="#939A60" transform="translate(357,180)"/>
<path d="M0 0 C0.99 0 1.98 0 3 0 C3 5.61 3 11.22 3 17 C2.01 17 1.02 17 0 17 C0 17.66 0 18.32 0 19 C1.32 19 2.64 19 4 19 C4 13.06 4 7.12 4 1 C4.33 1 4.66 1 5 1 C5 7.27 5 13.54 5 20 C3.02 20 1.04 20 -1 20 C-1.02888514 16.85418577 -1.04675923 13.70840531 -1.0625 10.5625 C-1.07087891 9.66466797 -1.07925781 8.76683594 -1.08789062 7.84179688 C-1.09111328 6.98779297 -1.09433594 6.13378906 -1.09765625 5.25390625 C-1.10551147 4.06776733 -1.10551147 4.06776733 -1.11352539 2.85766602 C-1 1 -1 1 0 0 Z " fill="#49AEB2" transform="translate(370,255)"/>
<path d="M0 0 C2.31 0.33 4.62 0.66 7 1 C6.67 5.95 6.34 10.9 6 16 C6.99 16 7.98 16 9 16 C9.33 14.35 9.66 12.7 10 11 C10.66 11 11.32 11 12 11 C11.34 13.31 10.68 15.62 10 18 C8.35 17.67 6.7 17.34 5 17 C5 12.38 5 7.76 5 3 C3.02 3 1.04 3 -1 3 C-1 5.64 -1 8.28 -1 11 C-4.3 11 -7.6 11 -11 11 C-11 8.36 -11 5.72 -11 3 C-10.67 3 -10.34 3 -10 3 C-10 5.31 -10 7.62 -10 10 C-8.35 9.67 -6.7 9.34 -5 9 C-4.34 6.69 -3.68 4.38 -3 2 C-2.01 2 -1.02 2 0 2 C0 1.34 0 0.68 0 0 Z " fill="#D8F6F7" transform="translate(273,249)"/>
<path d="M0 0 C0.33 0 0.66 0 1 0 C1 5.61 1 11.22 1 17 C4.3 17 7.6 17 11 17 C10.67 15.68 10.34 14.36 10 13 C10.66 12.01 11.32 11.02 12 10 C12.33 9.34 12.66 8.68 13 8 C14.625 10.1875 14.625 10.1875 16 13 C15.3125 15.375 15.3125 15.375 14 18 C13.67 19.2375 13.34 20.475 13 21.75 C12.67 22.8225 12.34 23.895 12 25 C11.34 25.33 10.68 25.66 10 26 C10 25.34 10 24.68 10 24 C5.05 24 0.1 24 -5 24 C-5 23.67 -5 23.34 -5 23 C0.28 23 5.56 23 11 23 C11 21.35 11 19.7 11 18 C7.37 18 3.74 18 0 18 C0 12.06 0 6.12 0 0 Z " fill="#DAF6FA" transform="translate(390,252)"/>
<path d="M0 0 C0.125 3.375 0.125 3.375 0 7 C-0.66 7.66 -1.32 8.32 -2 9 C-4.25 8.6875 -4.25 8.6875 -7 8 C-8.99897128 7.66055205 -10.99875639 7.32578384 -13 7 C-13 5.35 -13 3.7 -13 2 C-11.02 2 -9.04 2 -7 2 C-7 1.34 -7 0.68 -7 0 C-3.86650268 -1.04449911 -3.01031744 -0.93423645 0 0 Z " fill="#2FA0A3" transform="translate(349,254)"/>
<path d="M0 0 C1.99840383 4.1217079 2.33775739 7.4402752 2 12 C1.01 13.485 1.01 13.485 0 15 C-1.26086514 11.05979642 -1 8.52419701 -1 4 C-6.61 3.67 -12.22 3.34 -18 3 C-18 9.93 -18 16.86 -18 24 C-18.33 24 -18.66 24 -19 24 C-19.02887512 20.35418313 -19.04675585 16.70839537 -19.0625 13.0625 C-19.07087891 12.02158203 -19.07925781 10.98066406 -19.08789062 9.90820312 C-19.09272461 8.42416992 -19.09272461 8.42416992 -19.09765625 6.91015625 C-19.10289307 5.99371338 -19.10812988 5.07727051 -19.11352539 4.13305664 C-19 2 -19 2 -18 1 C-15.73384646 0.7625376 -13.46128016 0.58502642 -11.1875 0.4375 C-9.32158203 0.31181641 -9.32158203 0.31181641 -7.41796875 0.18359375 C-4.94811577 0.05092736 -2.47341345 0 0 0 Z " fill="#A7DDDF" transform="translate(349,250)"/>
<path d="M0 0 C0.66 0 1.32 0 2 0 C2 1.32 2 2.64 2 4 C4.31 4 6.62 4 9 4 C9 10.27 9 16.54 9 23 C8.67 23 8.34 23 8 23 C7.67 18.05 7.34 13.1 7 8 C5.68 8.33 4.36 8.66 3 9 C1.71553081 11.56893838 1.67022856 13.76576337 1.4375 16.625 C1.35371094 17.62789063 1.26992188 18.63078125 1.18359375 19.6640625 C1.12300781 20.43492187 1.06242187 21.20578125 1 22 C0.67 22 0.34 22 0 22 C0 14.74 0 7.48 0 0 Z " fill="#D7F6F7" transform="translate(360,252)"/>
<path d="M0 0 C2.84181867 2.43468133 3.9257435 4.81728946 5.1875 8.3125 C5.70376953 9.69888672 5.70376953 9.69888672 6.23046875 11.11328125 C7 14 7 14 7 20 C15.91 19.67 24.82 19.34 34 19 C34 19.66 34 20.32 34 21 C24.43 21.33 14.86 21.66 5 22 C3.81474702 19.62949403 3.79301167 17.89018332 3.625 15.25 C3.2398092 10.86766529 2.1252837 7.88095284 0 4 C0 2.68 0 1.36 0 0 Z " fill="#F6D2AC" transform="translate(361,220)"/>
<path d="M0 0 C1.4540625 0.0309375 1.4540625 0.0309375 2.9375 0.0625 C2.4879955 1.37804985 2.02760284 2.68988358 1.5625 4 C1.30726563 4.73089844 1.05203125 5.46179688 0.7890625 6.21484375 C-0.0625 8.0625 -0.0625 8.0625 -2.0625 9.0625 C-2.3925 10.0525 -2.7225 11.0425 -3.0625 12.0625 C-5.12890625 12.79296875 -5.12890625 12.79296875 -7.625 13.25 C-8.45128906 13.40855469 -9.27757812 13.56710938 -10.12890625 13.73046875 C-10.76699219 13.84003906 -11.40507812 13.94960937 -12.0625 14.0625 C-12.0625 12.0825 -12.0625 10.1025 -12.0625 8.0625 C-11.0725 8.0625 -10.0825 8.0625 -9.0625 8.0625 C-9.0625 8.7225 -9.0625 9.3825 -9.0625 10.0625 C-7.7425 10.0625 -6.4225 10.0625 -5.0625 10.0625 C-5.00191406 9.42441406 -4.94132812 8.78632813 -4.87890625 8.12890625 C-4.79511719 7.30261719 -4.71132813 6.47632813 -4.625 5.625 C-4.54378906 4.80128906 -4.46257812 3.97757813 -4.37890625 3.12890625 C-3.8690239 -0.20106615 -3.4903173 0.07123097 0 0 Z " fill="#1AADB3" transform="translate(290.0625,223.9375)"/>
<path d="M0 0 C3.125 -0.1875 3.125 -0.1875 6 0 C6.66 1.98 7.32 3.96 8 6 C7.01 6.495 7.01 6.495 6 7 C5.01 8.485 5.01 8.485 4 10 C3.34 9.34 2.68 8.68 2 8 C1.01 9.32 0.02 10.64 -1 12 C-1.2226746 10.56465159 -1.42761906 9.12654475 -1.625 7.6875 C-1.74101562 6.88699219 -1.85703125 6.08648437 -1.9765625 5.26171875 C-2 3 -2 3 0 0 Z " fill="#31ADB2" transform="translate(289,252)"/>
<path d="M0 0 C0.66 0 1.32 0 2 0 C2 0.66 2 1.32 2 2 C2.66 2 3.32 2 4 2 C4 3.32 4 4.64 4 6 C4.66 6 5.32 6 6 6 C4.52057584 10.43827248 2.48644979 14.80258232 -1 18 C-4.8125 18.4375 -4.8125 18.4375 -8 18 C-7.60167969 17.54109375 -7.20335937 17.0821875 -6.79296875 16.609375 C-5.70106274 15.34478312 -4.6166759 14.07366813 -3.5390625 12.796875 C-2.42275348 11.49357005 -1.25650357 10.23251981 -0.0625 9 C1.58922814 5.89086469 0.70548545 3.3350221 0 0 Z " fill="#F5F2DF" transform="translate(346,166)"/>
<path d="M0 0 C2.64 0 5.28 0 8 0 C8 0.66 8 1.32 8 2 C9.32 2 10.64 2 12 2 C11.67 2.66 11.34 3.32 11 4 C8.36 3.67 5.72 3.34 3 3 C3 4.98 3 6.96 3 9 C5.97 9.33 8.94 9.66 12 10 C12 10.33 12 10.66 12 11 C10.02090602 11.02686553 8.04171029 11.04633375 6.0625 11.0625 C4.96035156 11.07410156 3.85820312 11.08570313 2.72265625 11.09765625 C0 11 0 11 -1 10 C-1.13568319 6.33655389 -1.16461426 3.49384279 0 0 Z " fill="#32A3A7" transform="translate(333,262)"/>
<path d="M0 0 C0.33 0 0.66 0 1 0 C1 6.27 1 12.54 1 19 C1.66 18.67 2.32 18.34 3 18 C5.71760108 17.92818179 8.40859388 17.90700494 11.125 17.9375 C11.87910156 17.94201172 12.63320313 17.94652344 13.41015625 17.95117188 C15.27347127 17.96296501 17.13674555 17.98090058 19 18 C18.67 18.66 18.34 19.32 18 20 C14.37918537 21.20693821 11.0749281 21.10782079 7.3125 21.0625 C3.6928125 21.0315625 3.6928125 21.0315625 0 21 C0 14.07 0 7.14 0 0 Z " fill="#329498" transform="translate(307,253)"/>
<path d="M0 0 C7.92 0 15.84 0 24 0 C24 0.33 24 0.66 24 1 C16.41 1 8.82 1 1 1 C1.02320313 2.65128906 1.04640625 4.30257812 1.0703125 6.00390625 C1.08907811 8.19009963 1.10727746 10.37629792 1.125 12.5625 C1.14175781 13.64853516 1.15851563 14.73457031 1.17578125 15.85351562 C1.21098659 21.64479442 0.98923674 26.54134642 -1 32 C-2.20628008 29.66785852 -3.1654738 27.50357861 -4 25 C-3.01 24.34 -2.02 23.68 -1 23 C-0.49095616 20.5842887 -0.49095616 20.5842887 -0.48828125 17.7734375 C-0.45516846 16.84450684 -0.42205566 15.91557617 -0.38793945 14.95849609 C-0.36304443 13.77594238 -0.33814941 12.59338867 -0.3125 11.375 C-0.209375 7.62125 -0.10625 3.8675 0 0 Z " fill="#F9EACF" transform="translate(354,139)"/>
<path d="M0 0 C0 0.99 0 1.98 0 3 C-5.28339331 7.70911143 -10.06438123 9.06501719 -17 10 C-17 9.34 -17 8.68 -17 8 C-15.88625 7.79375 -14.7725 7.5875 -13.625 7.375 C-9.73400805 6.38371699 -9.73400805 6.38371699 -8.5625 2.875 C-8.376875 1.92625 -8.19125 0.9775 -8 0 C-4.71303767 -0.79953138 -3.28976808 -1.09658936 0 0 Z " fill="#4EA38B" transform="translate(347,202)"/>
<path d="M0 0 C1.98 0 3.96 0 6 0 C5.01 1.175625 5.01 1.175625 4 2.375 C1.79798559 4.71512812 1.79798559 4.71512812 2 7 C3.32 7.33 4.64 7.66 6 8 C6 9.65 6 11.3 6 13 C4.02 12.01 2.04 11.02 0 10 C0.33 9.34 0.66 8.68 1 8 C-1.31 7.34 -3.62 6.68 -6 6 C-6 5.34 -6 4.68 -6 4 C-4.35 3.67 -2.7 3.34 -1 3 C-0.67 2.01 -0.34 1.02 0 0 Z " fill="#C38E31" transform="translate(322,164)"/>
<path d="M0 0 C0 0.99 0 1.98 0 3 C-3.3 3 -6.6 3 -10 3 C-10 5.31 -10 7.62 -10 10 C-11.32 10.33 -12.64 10.66 -14 11 C-14.125 3.25 -14.125 3.25 -13 1 C-10.8203125 0.5859375 -10.8203125 0.5859375 -8.125 0.375 C-7.24070312 0.30023438 -6.35640625 0.22546875 -5.4453125 0.1484375 C-3.63287027 0.03841705 -1.81577843 0 0 0 Z " fill="#26A4A7" transform="translate(322,261)"/>
<path d="M0 0 C0.66 1.65 1.32 3.3 2 5 C1.03320312 5.35191406 1.03320312 5.35191406 0.046875 5.7109375 C-2.2077908 6.81161073 -2.2077908 6.81161073 -2.609375 9.1640625 C-2.65578125 9.97617188 -2.7021875 10.78828125 -2.75 11.625 C-2.80671875 12.44226563 -2.8634375 13.25953125 -2.921875 14.1015625 C-2.94765625 14.72804687 -2.9734375 15.35453125 -3 16 C-5.00293347 12.99559979 -5.49271626 11.29006055 -6.125 7.8125 C-6.29257812 6.91144531 -6.46015625 6.01039063 -6.6328125 5.08203125 C-6.75398438 4.39496094 -6.87515625 3.70789063 -7 3 C-2.25 0 -2.25 0 0 0 Z " fill="#B4964B" transform="translate(369,212)"/>
<path d="M0 0 C0.66386719 0.08378906 1.32773437 0.16757813 2.01171875 0.25390625 C8.54720848 1.05425042 8.54720848 1.05425042 15 0 C15.33 0.99 15.66 1.98 16 3 C16.66 3.33 17.32 3.66 18 4 C16.6875 5.5 16.6875 5.5 15 7 C14.01 7 13.02 7 12 7 C12 6.34 12 5.68 12 5 C10.68 5 9.36 5 8 5 C8 4.34 8 3.68 8 3 C7.236875 3.061875 6.47375 3.12375 5.6875 3.1875 C2.51219194 2.96596688 2.04264341 2.28224968 0 0 Z " fill="#CE8D2B" transform="translate(328,165)"/>
<path d="M0 0 C4.02231313 0.53630842 4.42810176 0.68077222 6.75 3.6875 C8.41668823 6.35854434 8.76882924 7.20500852 8.5625 10.4375 C8.294375 11.118125 8.02625 11.79875 7.75 12.5 C7.42 12.5 7.09 12.5 6.75 12.5 C6.75 10.52 6.75 8.54 6.75 6.5 C6.09 6.5 5.43 6.5 4.75 6.5 C4.42 5.84 4.09 5.18 3.75 4.5 C1.72536745 3.84786708 1.72536745 3.84786708 -0.25 3.5 C-0.58 4.16 -0.91 4.82 -1.25 5.5 C-4.55 4.84 -7.85 4.18 -11.25 3.5 C-11.25 3.17 -11.25 2.84 -11.25 2.5 C-10.115625 2.355625 -8.98125 2.21125 -7.8125 2.0625 C-4.22883782 1.4966586 -3.50720557 0.53957009 0 0 Z " fill="#B7943B" transform="translate(339.25,161.5)"/>
<path d="M0 0 C0 0.66 0 1.32 0 2 C-0.99 2 -1.98 2 -3 2 C-4.35432675 3.31200404 -5.68733482 4.64631404 -7 6 C-7.99 6.33 -8.98 6.66 -10 7 C-10.66 6.67 -11.32 6.34 -12 6 C-12 4.02 -12 2.04 -12 0 C-7.22144261 -2.04795317 -4.77855739 -2.04795317 0 0 Z " fill="#F17E07" transform="translate(340,172)"/>
<path d="M0 0 C4.62 0 9.24 0 14 0 C13.01 0.33 12.02 0.66 11 1 C11 1.66 11 2.32 11 3 C9.02 3 7.04 3 5 3 C5 2.34 5 1.68 5 1 C3.68 1 2.36 1 1 1 C1.33 6.94 1.66 12.88 2 19 C4.31 19.33 6.62 19.66 9 20 C9 20.33 9 20.66 9 21 C6.03 21 3.06 21 0 21 C0 14.07 0 7.14 0 0 Z " fill="#31959A" transform="translate(331,253)"/>
<path d="M0 0 C0.33 0 0.66 0 1 0 C1.04936883 4.80548597 1.08570443 9.61082494 1.10986328 14.41650391 C1.11993254 16.05194672 1.13358881 17.68737149 1.15087891 19.32275391 C1.17508705 21.6709437 1.18647357 24.01889588 1.1953125 26.3671875 C1.20563507 27.10057343 1.21595764 27.83395935 1.22659302 28.58956909 C1.22699368 30.39462697 1.12212755 32.1990783 1 34 C0.34 34.66 -0.32 35.32 -1 36 C-2.125 33.9375 -2.125 33.9375 -3 31 C-2.7009375 30.0409375 -2.401875 29.081875 -2.09375 28.09375 C-0.42015055 22.71149379 -0.5343102 17.15495174 -0.375 11.5625 C-0.33632813 10.44939453 -0.29765625 9.33628906 -0.2578125 8.18945312 C-0.16409034 5.45979524 -0.07837706 2.73013437 0 0 Z " fill="#D4BD8D" transform="translate(355,140)"/>
<path d="M0 0 C3.875 1.75 3.875 1.75 5 4 C2.69 4.33 0.38 4.66 -2 5 C-1.67 5.99 -1.34 6.98 -1 8 C-3.31 10.31 -5.62 12.62 -8 15 C-8.99 14.67 -9.98 14.34 -11 14 C-10.45730469 13.32453125 -9.91460937 12.6490625 -9.35546875 11.953125 C-8.64003906 11.06109375 -7.92460937 10.1690625 -7.1875 9.25 C-6.47980469 8.36828125 -5.77210938 7.4865625 -5.04296875 6.578125 C-3.32494998 4.41007071 -1.64626024 2.22271099 0 0 Z " fill="#FDEDD4" transform="translate(405,136)"/>
<path d="M0 0 C0.99 0.33 1.98 0.66 3 1 C1.37747426 4.14060083 -0.32561081 6.6657138 -3 9 C-6.99735266 9.99528928 -10.78654196 9.76182244 -14.875 9.5 C-15.94492187 9.46390625 -17.01484375 9.4278125 -18.1171875 9.390625 C-20.7484998 9.29664956 -23.37237515 9.16545954 -26 9 C-26 8.67 -26 8.34 -26 8 C-18.78194245 7.2061358 -12.19172157 6.92124177 -5 8 C-4.87753906 7.38640625 -4.75507813 6.7728125 -4.62890625 6.140625 C-3.79138501 3.28993159 -2.17200472 1.96181072 0 0 Z " fill="#FDFAEB" transform="translate(382,130)"/>
<path d="M0 0 C0.33 0 0.66 0 1 0 C1.33 2.64 1.66 5.28 2 8 C-1.61615852 11.50517667 -4.66285559 11.37476332 -9.5625 11.3125 C-10.23474609 11.31572266 -10.90699219 11.31894531 -11.59960938 11.32226562 C-15.26958778 11.28217649 -16.87242617 11.08504922 -20 9 C-18.96359375 8.95101563 -17.9271875 8.90203125 -16.859375 8.8515625 C-15.48955792 8.77650403 -14.11976752 8.70095753 -12.75 8.625 C-12.06808594 8.5940625 -11.38617188 8.563125 -10.68359375 8.53125 C-5.51959655 8.25856385 -5.51959655 8.25856385 -1 6 C-0.18415432 2.94091587 -0.18415432 2.94091587 0 0 Z " fill="#C3EAEC" transform="translate(327,265)"/>
<path d="M0 0 C0.66 0 1.32 0 2 0 C2.66 2.31 3.32 4.62 4 7 C3.34 7.66 2.68 8.32 2 9 C2 9.66 2 10.32 2 11 C-1.63 11 -5.26 11 -9 11 C-8.01 10.67 -7.02 10.34 -6 10 C-6 9.34 -6 8.68 -6 8 C-4.02 8 -2.04 8 0 8 C-0.2784375 6.2984375 -0.2784375 6.2984375 -0.5625 4.5625 C-0.706875 3.386875 -0.85125 2.21125 -1 1 C-0.67 0.67 -0.34 0.34 0 0 Z " fill="#239A9C" transform="translate(295,258)"/>
<path d="M0 0 C5.94 0 11.88 0 18 0 C18 3.63 18 7.26 18 11 C17.67 11 17.34 11 17 11 C16.67 8.03 16.34 5.06 16 2 C14.04233719 1.91917906 12.08373272 1.86089222 10.125 1.8125 C9.03445313 1.77769531 7.94390625 1.74289063 6.8203125 1.70703125 C5.42425781 1.85205078 5.42425781 1.85205078 4 2 C1.70366176 5.44450737 1.45983515 7.93812283 1 12 C0.67 12 0.34 12 0 12 C0 8.04 0 4.08 0 0 Z " fill="#6BC2B9" transform="translate(277,117)"/>
<path d="M0 0 C0 8.91 0 17.82 0 27 C-0.33 27 -0.66 27 -1 27 C-1 19.08 -1 11.16 -1 3 C-4.465 4.485 -4.465 4.485 -8 6 C-11.4375 6.1875 -11.4375 6.1875 -14 6 C-13.443125 5.731875 -12.88625 5.46375 -12.3125 5.1875 C-9.93031489 4.00517661 -9.93031489 4.00517661 -7.5 2.4375 C-5.06167012 1.03546032 -2.85383421 0 0 0 Z " fill="#EF8011" transform="translate(350,212)"/>
<path d="M0 0 C1.65 0 3.3 0 5 0 C3.68 0.33 2.36 0.66 1 1 C1 1.66 1 2.32 1 3 C1.99 3 2.98 3 4 3 C4 6.63 4 10.26 4 14 C3.67 14 3.34 14 3 14 C3 12.35 3 10.7 3 9 C2.34 9.185625 1.68 9.37125 1 9.5625 C-2.89330114 10.13027308 -6.11375479 9.59281707 -10 9 C-10 8.67 -10 8.34 -10 8 C-6.7 8 -3.4 8 0 8 C0 5.36 0 2.72 0 0 Z " fill="#45ADB2" transform="translate(272,252)"/>
<path d="M0 0 C3.3125 -0.3125 3.3125 -0.3125 7 0 C8.9375 2.5 8.9375 2.5 10 5 C8.63875 4.938125 8.63875 4.938125 7.25 4.875 C4.1217954 4.99531556 2.61385994 5.3914708 0 7 C0 6.34 0 5.68 0 5 C-0.66 5 -1.32 5 -2 5 C-1.34 3.35 -0.68 1.7 0 0 Z " fill="#ABB077" transform="translate(368,205)"/>
<path d="M0 0 C2.97 0 5.94 0 9 0 C9.33 1.32 9.66 2.64 10 4 C9 5 9 5 6.93359375 5.09765625 C6.10988281 5.08605469 5.28617187 5.07445312 4.4375 5.0625 C3.61121094 5.05347656 2.78492188 5.04445313 1.93359375 5.03515625 C1.29550781 5.02355469 0.65742188 5.01195312 0 5 C0 3.35 0 1.7 0 0 Z " fill="#D0F5F5" transform="translate(312,265)"/>
<path d="M0 0 C0.33 0 0.66 0 1 0 C1.03738281 0.98742187 1.07476562 1.97484375 1.11328125 2.9921875 C1.17902344 4.27351563 1.24476563 5.55484375 1.3125 6.875 C1.37050781 8.15117187 1.42851562 9.42734375 1.48828125 10.7421875 C1.65714844 11.81726563 1.82601563 12.89234375 2 14 C2.99 14.66 3.98 15.32 5 16 C4.34 17.98 3.68 19.96 3 22 C4.65 22 6.3 22 8 22 C8 22.33 8 22.66 8 23 C2.25 23.125 2.25 23.125 0 22 C0 14.74 0 7.48 0 0 Z " fill="#B2E0E2" transform="translate(277,252)"/>
<path d="M0 0 C0.66 0 1.32 0 2 0 C2.67305018 1.60149886 3.33822227 3.20631029 4 4.8125 C4.37125 5.70582031 4.7425 6.59914062 5.125 7.51953125 C6 10 6 10 6 13 C6.66 13 7.32 13 8 13 C8.66 11.68 9.32 10.36 10 9 C9.67 12.3 9.34 15.6 9 19 C5.36288796 15.84472759 3.89386751 12.87026732 2.25 8.375 C1.82203125 7.22773438 1.3940625 6.08046875 0.953125 4.8984375 C0 2 0 2 0 0 Z " fill="#FCEBD8" transform="translate(382,217)"/>
<path d="M0 0 C0.33 0 0.66 0 1 0 C1 7.26 1 14.52 1 22 C0.34 21.67 -0.32 21.34 -1 21 C-1.37042711 18.3831117 -1.60642274 15.88070589 -1.75 13.25 C-1.83314453 12.17492187 -1.83314453 12.17492187 -1.91796875 11.078125 C-2.17357775 6.86444933 -1.93241759 3.77564668 0 0 Z " fill="#E4FAFA" transform="translate(329,252)"/>
<path d="M0 0 C0.99 1.98 1.98 3.96 3 6 C3.66 6 4.32 6 5 6 C5 7.98 5 9.96 5 12 C5.66 12.33 6.32 12.66 7 13 C6.34 14.32 5.68 15.64 5 17 C3.99539469 14.87717331 2.99644398 12.75166979 2 10.625 C1.443125 9.44164062 0.88625 8.25828125 0.3125 7.0390625 C-1 4 -1 4 -1 2 C-2.98 2 -4.96 2 -7 2 C-4 0 -4 0 0 0 Z " fill="#D5F3F7" transform="translate(296,250)"/>
<path d="M0 0 C0.99 0.33 1.98 0.66 3 1 C2.25 5.75 2.25 5.75 0 8 C-2.70879335 9.35439668 -5.00933268 9.06501451 -8 9 C-7.04270084 7.87411986 -6.08412105 6.7493285 -5.125 5.625 C-4.59132813 4.99851563 -4.05765625 4.37203125 -3.5078125 3.7265625 C-2.38567993 2.44163349 -1.20628025 1.20628025 0 0 Z " fill="#D9F1F4" transform="translate(326,215)"/>
<path d="M0 0 C0.598125 0.20625 1.19625 0.4125 1.8125 0.625 C1.23905063 3.49224686 0.9510485 4.4864515 -1.1875 6.625 C-2.1775 6.625 -3.1675 6.625 -4.1875 6.625 C-4.1875 9.265 -4.1875 11.905 -4.1875 14.625 C-4.5175 14.625 -4.8475 14.625 -5.1875 14.625 C-5.26828641 12.50061661 -5.32659141 10.3753677 -5.375 8.25 C-5.40980469 7.06664062 -5.44460938 5.88328125 -5.48046875 4.6640625 C-5.38378906 3.66117188 -5.28710938 2.65828125 -5.1875 1.625 C-2.1875 -0.375 -2.1875 -0.375 0 0 Z " fill="#C88C33" transform="translate(371.1875,217.375)"/>
<path d="M0 0 C0.33 0 0.66 0 1 0 C1 7.26 1 14.52 1 22 C-0.65 21.67 -2.3 21.34 -4 21 C-3.835 19.88625 -3.67 18.7725 -3.5 17.625 C-2.9544542 14.27967967 -2.9544542 14.27967967 -3 12 C-2.34 11.67 -1.68 11.34 -1 11 C-0.5316735 8.41394668 -0.5316735 8.41394668 -0.375 5.4375 C-0.30023438 4.42558594 -0.22546875 3.41367188 -0.1484375 2.37109375 C-0.09945313 1.58863281 -0.05046875 0.80617187 0 0 Z " fill="#D6F8FA" transform="translate(353,252)"/>
<path d="M0 0 C2.66666667 3.33333333 5.33333333 6.66666667 8 10 C3.05 10 -1.9 10 -7 10 C-7 9.67 -7 9.34 -7 9 C-4.69 8.34 -2.38 7.68 0 7 C0 4.69 0 2.38 0 0 Z " fill="#E38A2F" transform="translate(386,230)"/>
<path d="M0 0 C1.95901454 0.11382653 3.9172338 0.24141125 5.875 0.375 C6.96554687 0.44460937 8.05609375 0.51421875 9.1796875 0.5859375 C12 1 12 1 14 3 C13.071875 3.2475 12.14375 3.495 11.1875 3.75 C7.74972473 5.09814716 7.0396478 6.08621743 5 9 C4.01 9 3.02 9 2 9 C2 8.34 2 7.68 2 7 C2.66 7 3.32 7 4 7 C4.33 5.68 4.66 4.36 5 3 C2.525 2.01 2.525 2.01 0 1 C0 0.67 0 0.34 0 0 Z " fill="#8EAB8C" transform="translate(318,152)"/>
<path d="M0 0 C2.64 0 5.28 0 8 0 C8.33 1.65 8.66 3.3 9 5 C6.03 5 3.06 5 0 5 C0 3.35 0 1.7 0 0 Z " fill="#C8F9FB" transform="translate(336,265)"/>
<path d="M0 0 C2.8125 -0.25 2.8125 -0.25 6 0 C8.04040776 2.04040776 9 3.08325244 9 6 C8.34 6 7.68 6 7 6 C6.67 6.99 6.34 7.98 6 9 C3.72494996 6.83328568 1.76424908 4.60436769 0 2 C0 1.34 0 0.68 0 0 Z " fill="#33A5A7" transform="translate(398,252)"/>
<path d="M0 0 C6.6 0 13.2 0 20 0 C20 0.66 20 1.32 20 2 C13.4 2.33 6.8 2.66 0 3 C0 2.01 0 1.02 0 0 Z " fill="#F8F1E3" transform="translate(332,241)"/>
<path d="M0 0 C2.64 0 5.28 0 8 0 C8.5625 1.9375 8.5625 1.9375 9 4 C8 5 8 5 6.15234375 5.09765625 C4.1015625 5.06510417 2.05078125 5.03255208 0 5 C0 3.35 0 1.7 0 0 Z " fill="#C4EFF3" transform="translate(336,256)"/>
<path d="M0 0 C2.64 0 5.28 0 8 0 C8.5625 1.9375 8.5625 1.9375 9 4 C8 5 8 5 6.15234375 5.09765625 C4.1015625 5.06510417 2.05078125 5.03255208 0 5 C0 3.35 0 1.7 0 0 Z " fill="#CBF4F6" transform="translate(312,256)"/>
<path d="M0 0 C0.33 0 0.66 0 1 0 C1 6.27 1 12.54 1 19 C0.34 19 -0.32 19 -1 19 C-3.14915785 15.77626323 -3.38286803 14.73296326 -3 11 C-2.34 10.34 -1.68 9.68 -1 9 C-0.53993654 6.79749008 -0.53993654 6.79749008 -0.375 4.375 C-0.30023438 3.55773437 -0.22546875 2.74046875 -0.1484375 1.8984375 C-0.09945313 1.27195313 -0.05046875 0.64546875 0 0 Z " fill="#E5F9FB" transform="translate(305,252)"/>
<path d="M0 0 C2.4443896 2.4443896 2.91985673 3.55383944 3 7 C0.6875 9.8125 0.6875 9.8125 -2 12 C-2.66 12 -3.32 12 -4 12 C-4 12.66 -4 13.32 -4 14 C-4.66 13.67 -5.32 13.34 -6 13 C-4.02 9.7 -2.04 6.4 0 3 C-1.65 3 -3.3 3 -5 3 C-5 2.67 -5 2.34 -5 2 C-3.35 2 -1.7 2 0 2 C0 1.34 0 0.68 0 0 Z " fill="#DEF2F5" transform="translate(420,249)"/>
<path d="M0 0 C-3.08290155 4.22797927 -3.08290155 4.22797927 -5 6 C-7.8125 6.375 -7.8125 6.375 -10 6 C-9.63088042 3.32388302 -9.15144437 2.1568531 -7.25 0.1875 C-4.3995411 -1.31690887 -3.01911587 -0.92250763 0 0 Z " fill="#809E73" transform="translate(366,208)"/>
<path d="M0 0 C7.75 -0.125 7.75 -0.125 10 1 C9.67 1.99 9.34 2.98 9 4 C5.9375 5.1875 5.9375 5.1875 3 6 C2.67 5.34 2.34 4.68 2 4 C2.33 3.34 2.66 2.68 3 2 C2.01 2 1.02 2 0 2 C0 1.34 0 0.68 0 0 Z M2 6 C2.66 7.32 3.32 8.64 4 10 C3.34 10 2.68 10 2 10 C2 8.68 2 7.36 2 6 Z " fill="#70B39D" transform="translate(310,152)"/>
<path d="M0 0 C0.33 0 0.66 0 1 0 C1.05454409 2.35448675 1.0939279 4.70767875 1.125 7.0625 C1.14820313 8.37347656 1.17140625 9.68445313 1.1953125 11.03515625 C0.99417522 15.11824299 0.27165462 18.14999053 -1 22 C-1.33 22 -1.66 22 -2 22 C-1.86145912 18.70798357 -1.71292976 15.41649291 -1.5625 12.125 C-1.50352539 10.71927734 -1.50352539 10.71927734 -1.44335938 9.28515625 C-1.40146484 8.38925781 -1.35957031 7.49335937 -1.31640625 6.5703125 C-1.27974854 5.74289551 -1.24309082 4.91547852 -1.20532227 4.06298828 C-1 2 -1 2 0 0 Z " fill="#FDE9C8" transform="translate(420,102)"/>
<path d="M0 0 C0.33 0 0.66 0 1 0 C1 7.26 1 14.52 1 22 C-1.70879335 23.35439668 -4.00933268 23.06501451 -7 23 C-7 22.67 -7 22.34 -7 22 C-5.35 22 -3.7 22 -2 22 C-2.66 21.01 -3.32 20.02 -4 19 C-3.67 18.01 -3.34 17.02 -3 16 C-2.67 16.99 -2.34 17.98 -2 19 C-1.34 19 -0.68 19 0 19 C0 12.73 0 6.46 0 0 Z " fill="#AAE3E7" transform="translate(306,252)"/>
<path d="M0 0 C2.5 0.875 2.5 0.875 3.8125 3.4375 C4.1528125 4.6440625 4.1528125 4.6440625 4.5 5.875 C3.18 6.205 1.86 6.535 0.5 6.875 C0.5 5.885 0.5 4.895 0.5 3.875 C-3.955 4.37 -3.955 4.37 -8.5 4.875 C-3.60769231 -0.18038462 -3.60769231 -0.18038462 0 0 Z " fill="#99B9A0" transform="translate(347.5,183.125)"/>
<path d="M0 0 C0.78375 0.04125 1.5675 0.0825 2.375 0.125 C1.25048273 3.0969385 0.15206209 5.45940687 -1.625 8.125 C-2.615 8.125 -3.605 8.125 -4.625 8.125 C-4.75 5.25 -4.75 5.25 -4.625 2.125 C-2.625 0.125 -2.625 0.125 0 0 Z " fill="#43A5A7" transform="translate(417.625,251.875)"/>
<path d="M0 0 C2.625 -0.1875 2.625 -0.1875 5 0 C5 0.99 5 1.98 5 3 C5.66 3.33 6.32 3.66 7 4 C5.625 6 5.625 6 4 8 C3.34 8 2.68 8 2 8 C1.896875 7.360625 1.79375 6.72125 1.6875 6.0625 C1.460625 5.381875 1.23375 4.70125 1 4 C0.01 3.67 -0.98 3.34 -2 3 C-1.34 2.01 -0.68 1.02 0 0 Z " fill="#9FB68F" transform="translate(349,180)"/>
<path d="M0 0 C0.99 0.495 0.99 0.495 2 1 C2.37890625 3.8359375 2.37890625 3.8359375 2.5625 7.375 C2.82302499 12.27255474 2.82302499 12.27255474 4 17 C2.68 17 1.36 17 0 17 C0 11.39 0 5.78 0 0 Z " fill="#22A5A9" transform="translate(386,255)"/>
<path d="M0 0 C1 2 1 2 0.25 4.5625 C-1 7 -1 7 -4 8 C-5.20882096 10.00016466 -5.20882096 10.00016466 -6 12 C-6.66 12 -7.32 12 -8 12 C-8 12.66 -8 13.32 -8 14 C-8.66 14 -9.32 14 -10 14 C-8.43632643 10.47761953 -6.30504111 7.72876006 -3.875 4.75 C-3.15054687 3.85796875 -2.42609375 2.9659375 -1.6796875 2.046875 C-0.84824219 1.03367187 -0.84824219 1.03367187 0 0 Z " fill="#EBB36A" transform="translate(389,125)"/>
<path d="M0 0 C0.66 0.99 1.32 1.98 2 3 C1.34 3 0.68 3 0 3 C0 6.3 0 9.6 0 13 C-2.64 13 -5.28 13 -8 13 C-7.67 9.7 -7.34 6.4 -7 3 C-6.67 3 -6.34 3 -6 3 C-6 5.64 -6 8.28 -6 11 C-4.35 11 -2.7 11 -1 11 C-1.01160156 10.37351562 -1.02320313 9.74703125 -1.03515625 9.1015625 C-1.04417969 8.28429687 -1.05320312 7.46703125 -1.0625 6.625 C-1.07410156 5.81289063 -1.08570313 5.00078125 -1.09765625 4.1640625 C-1 2 -1 2 0 0 Z " fill="#B7E0E6" transform="translate(413,263)"/>
<path d="M0 0 C1.32 0 2.64 0 4 0 C3.67 3.63 3.34 7.26 3 11 C2.01 11 1.02 11 0 11 C0 7.37 0 3.74 0 0 Z " fill="#1FA1A4" transform="translate(408,262)"/>
<path d="M0 0 C1.98 0.495 1.98 0.495 4 1 C4.25 8.625 4.25 8.625 2 12 C2 10.68 2 9.36 2 8 C1.01 8 0.02 8 -1 8 C-0.67 5.36 -0.34 2.72 0 0 Z " fill="#C3B16D" transform="translate(356,168)"/>
<path d="M0 0 C-1 3 -1 3 -3.25 4.1875 C-5.99791147 4.99938294 -8.15447889 5.16260121 -11 5 C-11 4.01 -11 3.02 -11 2 C-7.17010894 0.19769832 -4.21878192 -0.19622241 0 0 Z " fill="#B7923D" transform="translate(322,164)"/>
<path d="M0 0 C4.29 0 8.58 0 13 0 C13 0.66 13 1.32 13 2 C9.37 2.33 5.74 2.66 2 3 C1.87625 4.134375 1.7525 5.26875 1.625 6.4375 C1.41875 7.613125 1.2125 8.78875 1 10 C0.01 10.495 0.01 10.495 -1 11 C-0.67 7.37 -0.34 3.74 0 0 Z " fill="#FBEAC8" transform="translate(374,159)"/>
<path d="M0 0 C1.75 2 1.75 2 2 5.6875 C1.9175 6.780625 1.835 7.87375 1.75 9 C0.76 9 -0.23 9 -1.25 9 C-1.58 6.69 -1.91 4.38 -2.25 2 C-3.57 2 -4.89 2 -6.25 2 C-6.25 1.34 -6.25 0.68 -6.25 0 C-3.63240554 -1.02834068 -2.61369887 -1.16164394 0 0 Z " fill="#229B9F" transform="translate(347.25,262)"/>
<path d="M0 0 C0.99 0.33 1.98 0.66 3 1 C-0.06093224 4.93548431 -2.49115974 7.68116787 -7 10 C-7.625 8.125 -7.625 8.125 -8 6 C-6 4 -6 4 -3.4375 3 C-0.85158559 2.25129886 -0.85158559 2.25129886 0 0 Z " fill="#72AE95" transform="translate(364,199)"/>
<path d="M0 0 C4.95 0 9.9 0 15 0 C14.67 0.66 14.34 1.32 14 2 C11.05859375 2.4140625 11.05859375 2.4140625 7.4375 2.625 C6.23996094 2.69976562 5.04242188 2.77453125 3.80859375 2.8515625 C2.88175781 2.90054687 1.95492188 2.94953125 1 3 C0.67 2.01 0.34 1.02 0 0 Z " fill="#C6E7ED" transform="translate(331,274)"/>
<path d="M0 0 C0.66 0 1.32 0 2 0 C2 0.66 2 1.32 2 2 C3.32 2.33 4.64 2.66 6 3 C6 3.33 6 3.66 6 4 C0.39 4 -5.22 4 -11 4 C-10.67 3.34 -10.34 2.68 -10 2 C-7.71484375 1.5859375 -7.71484375 1.5859375 -4.9375 1.375 C-4.01839844 1.30023438 -3.09929687 1.22546875 -2.15234375 1.1484375 C-1.44207031 1.09945312 -0.73179687 1.05046875 0 1 C0 0.67 0 0.34 0 0 Z " fill="#D7F2F6" transform="translate(318,248)"/>
<path d="M0 0 C0.33 0.66 0.66 1.32 1 2 C0.01 3.485 0.01 3.485 -1 5 C-1.59739945 7.04705225 -2.13409983 9.11233108 -2.625 11.1875 C-2.88539063 12.27417969 -3.14578125 13.36085937 -3.4140625 14.48046875 C-3.60742188 15.31191406 -3.80078125 16.14335937 -4 17 C-4.33 17 -4.66 17 -5 17 C-5.38393977 6.01505646 -5.38393977 6.01505646 -3 2 C-2.01 1.34 -1.02 0.68 0 0 Z " fill="#62AE9A" transform="translate(300,170)"/>
<path d="M0 0 C0.33 0 0.66 0 1 0 C1 4.62 1 9.24 1 14 C2.65 13.34 4.3 12.68 6 12 C8.3125 12.375 8.3125 12.375 10 13 C6.12731266 15.65555703 4.97993805 16 0 16 C0 10.72 0 5.44 0 0 Z " fill="#33A7AA" transform="translate(277,224)"/>
<path d="M0 0 C-1.32 1.32 -2.64 2.64 -4 4 C-5.32 3.34 -6.64 2.68 -8 2 C-8 1.34 -8 0.68 -8 0 C-9.65 0 -11.3 0 -13 0 C-13 -0.33 -13 -0.66 -13 -1 C-7.96488101 -2.0070238 -4.76052962 -1.97387813 0 0 Z " fill="#E9F4F6" transform="translate(311,276)"/>
<path d="M0 0 C2.64 0 5.28 0 8 0 C8.33 1.32 8.66 2.64 9 4 C6.03 4 3.06 4 0 4 C0 2.68 0 1.36 0 0 Z " fill="#2D9AA0" transform="translate(262,261)"/>
<path d="M0 0 C0.33 0 0.66 0 1 0 C1.3125 2.3125 1.3125 2.3125 1 5 C-1.25 6.6875 -1.25 6.6875 -4 8 C-4.61875 8.391875 -5.2375 8.78375 -5.875 9.1875 C-8.93216858 10.3564174 -11.76304407 10.12449831 -15 10 C-15 9.67 -15 9.34 -15 9 C-13.96875 8.7525 -12.9375 8.505 -11.875 8.25 C-6.75917464 6.78685319 -2.97740202 4.46610304 0 0 Z " fill="#C8F0F3" transform="translate(291,231)"/>
<path d="M0 0 C0 1.65 0 3.3 0 5 C-0.99 4.34 -1.98 3.68 -3 3 C-5.00838196 3.64097297 -7.00827818 4.30899447 -9 5 C-11.19140625 4.56640625 -11.19140625 4.56640625 -13 4 C-4.738041 -0.59225513 -4.738041 -0.59225513 0 0 Z " fill="#AB761C" transform="translate(351,206)"/>
<path d="M0 0 C0 0.66 0 1.32 0 2 C3.3 2.33 6.6 2.66 10 3 C10 3.33 10 3.66 10 4 C9.26394531 4.06058594 8.52789062 4.12117187 7.76953125 4.18359375 C6.79371094 4.26738281 5.81789063 4.35117188 4.8125 4.4375 C3.84957031 4.51871094 2.88664062 4.59992188 1.89453125 4.68359375 C-0.78649602 4.97666151 -3.3662986 5.42703754 -6 6 C-5.6875 4.125 -5.6875 4.125 -5 2 C-2 0 -2 0 0 0 Z " fill="#B09F58" transform="translate(308,168)"/>
<path d="M0 0 C2.475 0.495 2.475 0.495 5 1 C3.30610638 3.31316656 1.97994403 4.83186747 -0.92382812 5.33007812 C-3.21029088 5.3934207 -5.46483482 5.34853117 -7.75 5.25 C-8.93916016 5.22292969 -8.93916016 5.22292969 -10.15234375 5.1953125 C-12.10208348 5.14833082 -14.05119878 5.07659044 -16 5 C-16 4.67 -16 4.34 -16 4 C-15.01257813 3.96261719 -14.02515625 3.92523438 -13.0078125 3.88671875 C-11.72648437 3.82097656 -10.44515625 3.75523437 -9.125 3.6875 C-7.84882813 3.62949219 -6.57265625 3.57148438 -5.2578125 3.51171875 C-4.18273437 3.34285156 -3.10765625 3.17398438 -2 3 C-1.34 2.01 -0.68 1.02 0 0 Z " fill="#A29C55" transform="translate(333,158)"/>
<path d="M0 0 C2.54910223 0.77914255 4.62292077 1.75978475 7 3 C4.58464752 4.20767624 3.52153592 3.97793036 0.8671875 3.66015625 C0.06152344 3.56669922 -0.74414062 3.47324219 -1.57421875 3.37695312 C-2.41597656 3.27318359 -3.25773437 3.16941406 -4.125 3.0625 C-5.39923828 2.91264648 -5.39923828 2.91264648 -6.69921875 2.75976562 C-8.80012277 2.51190616 -10.90015149 2.25664815 -13 2 C-8.73921052 -0.84052632 -5.00344496 -0.5215071 0 0 Z " fill="#E3F4E8" transform="translate(325,150)"/>
<path d="M0 0 C3 0 3 0 5.125 1.6875 C7.16972964 4.20933322 7.64598897 5.81390075 8 9 C7.67 8.525625 7.34 8.05125 7 7.5625 C3.90186733 5.14208385 0.87973208 5.31801083 -3 5 C-1.6875 2.5 -1.6875 2.5 0 0 Z " fill="#EF922B" transform="translate(378,220)"/>
<path d="M0 0 C2.9375 0.1875 2.9375 0.1875 6 1 C7.19140625 3.05078125 7.19140625 3.05078125 8 5 C7.06027344 4.87431641 7.06027344 4.87431641 6.1015625 4.74609375 C4.87566406 4.59333984 4.87566406 4.59333984 3.625 4.4375 C2.40683594 4.28087891 2.40683594 4.28087891 1.1640625 4.12109375 C-1.04899186 3.81762672 -1.04899186 3.81762672 -3 5 C-1.125 1.125 -1.125 1.125 0 0 Z " fill="#C6AA63" transform="translate(372,209)"/>
<path d="M0 0 C2.21919552 1.14539123 4.07216907 2.33452595 5.9375 4 C5.9375 4.66 5.9375 5.32 5.9375 6 C4.6175 6 3.2975 6 1.9375 6 C1.6075 5.01 1.2775 4.02 0.9375 3 C-0.0525 2.67 -1.0425 2.34 -2.0625 2 C-2.7225 3.32 -3.3825 4.64 -4.0625 6 C-5.0525 5.67 -6.0425 5.34 -7.0625 5 C-2.6722561 0 -2.6722561 0 0 0 Z " fill="#99BDAE" transform="translate(366.0625,197)"/>
<path d="M0 0 C-2.82229513 1.88153009 -5.27890171 3.00034705 -8.4375 4.1875 C-9.85869141 4.73470703 -9.85869141 4.73470703 -11.30859375 5.29296875 C-14.07083217 6.01860758 -15.36366738 5.97849698 -18 5 C-15.59881473 2.59881473 -13.94503958 2.24779139 -10.6875 1.375 C-9.74261719 1.11460938 -8.79773438 0.85421875 -7.82421875 0.5859375 C-5.12148098 0.02520352 -2.74968152 -0.1101876 0 0 Z " fill="#FEF1D2" transform="translate(399,108)"/>
<path d="M0 0 C1.60725635 3.21451269 1.05748185 6.43612536 1 10 C-0.65 10 -2.3 10 -4 10 C-3.5205537 5.78087253 -2.83374881 3.20336822 0 0 Z " fill="#399C9F" transform="translate(284,264)"/>
<path d="M0 0 C-0.33 1.32 -0.66 2.64 -1 4 C-3.31 4.66 -5.62 5.32 -8 6 C-8 4.35 -8 2.7 -8 1 C-2.25 -1.125 -2.25 -1.125 0 0 Z " fill="#CC6B02" transform="translate(350,209)"/>
<path d="M0 0 C-2.26882087 0.83919398 -4.53977027 1.67151724 -6.8125 2.5 C-7.45509766 2.73847656 -8.09769531 2.97695312 -8.75976562 3.22265625 C-11.64933739 4.27068746 -13.90076061 5 -17 5 C-17 4.34 -17 3.68 -17 3 C-14.73194205 2.30190555 -12.46133393 1.61628983 -10.1875 0.9375 C-9.54490234 0.73833984 -8.90230469 0.53917969 -8.24023438 0.33398438 C-3.33984375 -1.11328125 -3.33984375 -1.11328125 0 0 Z " fill="#FEEEC8" transform="translate(416,103)"/>
<path d="M0 0 C0.23460937 0.63421875 0.46921875 1.2684375 0.7109375 1.921875 C1.82290908 4.18250739 1.82290908 4.18250739 4.1640625 4.828125 C4.97617187 4.96734375 5.78828125 5.1065625 6.625 5.25 C7.44226563 5.39953125 8.25953125 5.5490625 9.1015625 5.703125 C9.72804688 5.80109375 10.35453125 5.8990625 11 6 C11 6.33 11 6.66 11 7 C7.04 7 3.08 7 -1 7 C-2 4 -2 4 -1.0625 1.8125 C-0.5365625 0.9153125 -0.5365625 0.9153125 0 0 Z " fill="#25A1A4" transform="translate(334,266)"/>
<path d="M0 0 C3 2 3 2 3.875 3.875 C4 6 4 6 2.5625 8.25 C2.046875 8.8275 1.53125 9.405 1 10 C-1 9 -1 9 -1.75 7.125 C-2 5 -2 5 0 2 C0 1.34 0 0.68 0 0 Z " fill="#D9EDEF" transform="translate(402,260)"/>
<path d="M0 0 C1.65 0 3.3 0 5 0 C4.5 2.875 4.5 2.875 3 6 C0.31689039 7.18275852 -2.0681289 7.52711756 -5 8 C-4.0409375 7.13375 -4.0409375 7.13375 -3.0625 6.25 C-1.01776132 4.01937599 -0.41794801 2.92563609 0 0 Z " fill="#759566" transform="translate(348,200)"/>
<path d="M0 0 C0.33 0 0.66 0 1 0 C1 2.97 1 5.94 1 9 C0.34 9 -0.32 9 -1 9 C-1.28875 9.639375 -1.5775 10.27875 -1.875 10.9375 C-3 13 -3 13 -5 14 C-3.45730076 9.27934033 -1.92205381 4.58335908 0 0 Z " fill="#F5EBD3" transform="translate(372,173)"/>
<path d="M0 0 C3.63 0 7.26 0 11 0 C11.66 1.65 12.32 3.3 13 5 C12.01 4.67 11.02 4.34 10 4 C10 3.01 10 2.02 10 1 C7.36 1 4.72 1 2 1 C1.67 2.65 1.34 4.3 1 6 C-0.0625 4.125 -0.0625 4.125 -1 2 C-0.67 1.34 -0.34 0.68 0 0 Z " fill="#C9F2F4" transform="translate(286,270)"/>
<path d="M0 0 C1.98 0 3.96 0 6 0 C6.66 1.98 7.32 3.96 8 6 C7.01 5.67 6.02 5.34 5 5 C5 4.01 5 3.02 5 2 C3.68 2 2.36 2 1 2 C1 2.66 1 3.32 1 4 C0.01 4.33 -0.98 4.66 -2 5 C-1.34 3.35 -0.68 1.7 0 0 Z " fill="#4CA9AD" transform="translate(289,252)"/>
<path d="M0 0 C0.66 0 1.32 0 2 0 C1.67 2.31 1.34 4.62 1 7 C-0.65 6.67 -2.3 6.34 -4 6 C-1.125 1.125 -1.125 1.125 0 0 Z " fill="#15B0B8" transform="translate(309,210)"/>
<path d="M0 0 C2.31 1.98 4.62 3.96 7 6 C6.34 7.32 5.68 8.64 5 10 C4.67 8.68 4.34 7.36 4 6 C2.68 5.67 1.36 5.34 0 5 C-0.33 6.32 -0.66 7.64 -1 9 C-0.67 6.03 -0.34 3.06 0 0 Z " fill="#EEF1E3" transform="translate(354,212)"/>
<path d="M0 0 C3.875 1.75 3.875 1.75 5 4 C3.8553125 4.1546875 3.8553125 4.1546875 2.6875 4.3125 C-0.17059424 5.04364039 -1.15742885 5.76951913 -3 8 C-3.66 7.67 -4.32 7.34 -5 7 C-3.35 4.69 -1.7 2.38 0 0 Z " fill="#FDE5C0" transform="translate(405,136)"/>
<path d="M0 0 C2.97 0 5.94 0 9 0 C8.67 0.99 8.34 1.98 8 3 C5.36 3 2.72 3 0 3 C0 2.01 0 1.02 0 0 Z " fill="#299398" transform="translate(312,253)"/>
<path d="M0 0 C2.67927341 4.01891012 2.15601248 6.24161923 2 11 C1.01 11 0.02 11 -1 11 C-1.125 3.375 -1.125 3.375 0 0 Z " fill="#CC8B2C" transform="translate(363,165)"/>
<path d="M0 0 C4.0042343 3.49087093 5.62671065 5.64951939 6 11 C5.01 11.495 5.01 11.495 4 12 C4 10.02 4 8.04 4 6 C3.34 6 2.68 6 2 6 C1.67 5.34 1.34 4.68 1 4 C0.01 3.34 -0.98 2.68 -2 2 C-1.34 2 -0.68 2 0 2 C0 1.34 0 0.68 0 0 Z " fill="#CB9F57" transform="translate(342,162)"/>
<path d="M0 0 C1.65 0 3.3 0 5 0 C5.33 1.32 5.66 2.64 6 4 C5.01 4.495 5.01 4.495 4 5 C4 4.34 4 3.68 4 3 C3.34 2.67 2.68 2.34 2 2 C2 3.98 2 5.96 2 8 C0 6 0 6 -0.125 2.875 C-0.08375 1.92625 -0.0425 0.9775 0 0 Z " fill="#F4942F" transform="translate(357,141)"/>
<path d="M0 0 C2.31 0 4.62 0 7 0 C7.33 0.66 7.66 1.32 8 2 C7.030625 2.12375 6.06125 2.2475 5.0625 2.375 C4.051875 2.58125 3.04125 2.7875 2 3 C1.67 3.66 1.34 4.32 1 5 C0.01 4.67 -0.98 4.34 -2 4 C-1.34 2.68 -0.68 1.36 0 0 Z " fill="#9FB48C" transform="translate(366,203)"/>
<path d="M0 0 C3.375 0.3125 3.375 0.3125 7 1 C7.66 1.99 8.32 2.98 9 4 C8.67 4.99 8.34 5.98 8 7 C2.25 3.375 2.25 3.375 0 0 Z " fill="#E19343" transform="translate(407,136)"/>
<path d="M0 0 C2.72647685 2.35468455 3.98756342 4.5408417 5 8 C4.546875 10.16015625 4.546875 10.16015625 4 12 C3.32332002 10.75539217 2.65905281 9.50403104 2 8.25 C1.62875 7.55390625 1.2575 6.8578125 0.875 6.140625 C0 4 0 4 0 0 Z " fill="#F4E5C9" transform="translate(361,220)"/>
<path d="M0 0 C0 0.66 0 1.32 0 2 C-4.62197306 4.21854707 -7.76824163 5.38281159 -13 5 C-12.443125 4.731875 -11.88625 4.46375 -11.3125 4.1875 C-8.92119421 3.00911317 -8.92119421 3.00911317 -6.5 1.375 C-4 0 -4 0 0 0 Z " fill="#EC7B08" transform="translate(349,213)"/>
<path d="M0 0 C1.32 1.32 2.64 2.64 4 4 C1.69027779 5.1548611 -0.47517333 5.49503467 -3 6 C-3.99 6.495 -3.99 6.495 -5 7 C-4.67 5.68 -4.34 4.36 -4 3 C-2.68 2.67 -1.36 2.34 0 2 C0 1.34 0 0.68 0 0 Z " fill="#BEB178" transform="translate(374,205)"/>
<path d="M0 0 C-0.33 0.99 -0.66 1.98 -1 3 C-3.97 3 -6.94 3 -10 3 C-6.68152292 -0.06320961 -4.44849969 -0.3033068 0 0 Z " fill="#6BB8B1" transform="translate(330,193)"/>
<path d="M0 0 C1.5 1.3125 1.5 1.3125 3 3 C3 3.99 3 4.98 3 6 C1.35 6 -0.3 6 -2 6 C-1.125 1.125 -1.125 1.125 0 0 Z " fill="#C2F3F4" transform="translate(291,259)"/>
<path d="M0 0 C-1.3125 1.5 -1.3125 1.5 -3 3 C-3.99 3 -4.98 3 -6 3 C-6 5.64 -6 8.28 -6 11 C-6.33 11 -6.66 11 -7 11 C-7.28782489 7.94905619 -7.44653726 5.03968138 -7 2 C-3.05660377 -1.52830189 -3.05660377 -1.52830189 0 0 Z " fill="#D3892C" transform="translate(373,221)"/>
<path d="M0 0 C1.32 0 2.64 0 4 0 C2.7508258 3.45925163 1.32472205 6.14693203 -1 9 C-1.09765625 2.84765625 -1.09765625 2.84765625 -1 1 C-0.67 0.67 -0.34 0.34 0 0 Z " fill="#A99E65" transform="translate(365,182)"/>
<path d="M0 0 C1.43088528 2.86177057 0.59991697 4.93375773 0 8 C-2.31 8 -4.62 8 -7 8 C-6.02133662 6.85373678 -5.04205413 5.70800212 -4.0625 4.5625 C-3.51722656 3.92441406 -2.97195313 3.28632813 -2.41015625 2.62890625 C-1.63204305 1.73008851 -0.84063472 0.84063472 0 0 Z " fill="#F7E4C6" transform="translate(345,176)"/>
<path d="M0 0 C0.33 0 0.66 0 1 0 C0.85851011 1.6045556 0.71164314 3.20863767 0.5625 4.8125 C0.48128906 5.70582031 0.40007812 6.59914062 0.31640625 7.51953125 C0 10 0 10 -1 13 C-2.32 12.67 -3.64 12.34 -5 12 C-4.54625 11.505 -4.0925 11.01 -3.625 10.5 C-1.41840633 7.10524051 -0.85608575 3.95116502 0 0 Z " fill="#CD9649" transform="translate(373,163)"/>
<path d="M0 0 C-0.33 4.62 -0.66 9.24 -1 14 C-1.33 14 -1.66 14 -2 14 C-2 10.04 -2 6.08 -2 2 C-3.32 1.67 -4.64 1.34 -6 1 C-4 0 -4 0 0 0 Z " fill="#DD9F55" transform="translate(420,102)"/>
<path d="M0 0 C2.31 0 4.62 0 7 0 C7 0.99 7 1.98 7 3 C4.69 3 2.38 3 0 3 C0 2.01 0 1.02 0 0 Z " fill="#E6F8F7" transform="translate(337,266)"/>
<path d="M0 0 C1.98 0 3.96 0 6 0 C6 0.99 6 1.98 6 3 C5.34 2.67 4.68 2.34 4 2 C3.67 3.32 3.34 4.64 3 6 C0 2.25 0 2.25 0 0 Z " fill="#5BA9AA" transform="translate(398,252)"/>
<path d="M0 0 C1.32 0.33 2.64 0.66 4 1 C4 2.65 4 4.3 4 6 C2.02 5.01 0.04 4.02 -2 3 C-1.34 2.67 -0.68 2.34 0 2 C0 1.34 0 0.68 0 0 Z " fill="#DF9138" transform="translate(324,171)"/>
<path d="M0 0 C-0.66 1.65 -1.32 3.3 -2 5 C-4.31 5 -6.62 5 -9 5 C-8.360625 4.896875 -7.72125 4.79375 -7.0625 4.6875 C-6.381875 4.460625 -5.70125 4.23375 -5 4 C-4.67 3.01 -4.34 2.02 -4 1 C-2 0 -2 0 0 0 Z " fill="#95A060" transform="translate(333,157)"/>
<path d="M0 0 C0.66 0 1.32 0 2 0 C0.92598892 2.91517292 0.22189824 4.77810176 -2 7 C-2.99 7 -3.98 7 -5 7 C-5 6.34 -5 5.68 -5 5 C-4.34 5 -3.68 5 -3 5 C-2.5359375 4.0409375 -2.5359375 4.0409375 -2.0625 3.0625 C-1 1 -1 1 0 0 Z " fill="#83A87D" transform="translate(325,154)"/>
<path d="M0 0 C0.33 0 0.66 0 1 0 C1 3.3 1 6.6 1 10 C0.01 9.67 -0.98 9.34 -2 9 C-2.20140476 5.37471432 -1.85776765 3.13498292 0 0 Z " fill="#62BFBB" transform="translate(294,145)"/>
<path d="M0 0 C0.33 0.99 0.66 1.98 1 3 C3.00016466 4.20882096 3.00016466 4.20882096 5 5 C1.71023192 6.09658936 0.28696233 5.79953138 -3 5 C-2.625 3.0625 -2.625 3.0625 -2 1 C-1.34 0.67 -0.68 0.34 0 0 Z " fill="#FCF3DA" transform="translate(381,114)"/>
<path d="M0 0 C0 1.98 0 3.96 0 6 C-0.66 6 -1.32 6 -2 6 C-2 4.68 -2 3.36 -2 2 C-2.99 2.495 -2.99 2.495 -4 3 C-4.66 2.67 -5.32 2.34 -6 2 C-6.33 2.66 -6.66 3.32 -7 4 C-7 3.01 -7 2.02 -7 1 C-4 0 -4 0 0 0 Z " fill="#E6F4F8" transform="translate(271,266)"/>
<path d="M0 0 C-2.71182212 2.60334924 -3.89133813 2.99456691 -7.75 3.1875 C-8.8225 3.125625 -9.895 3.06375 -11 3 C-11 2.34 -11 1.68 -11 1 C-7.32589215 -0.17571451 -3.83070817 -0.07366746 0 0 Z " fill="#F9860E" transform="translate(383,225)"/>
<path d="M0 0 C1.43088528 2.86177057 0.59991697 4.93375773 0 8 C-2.97 7.505 -2.97 7.505 -6 7 C-4.02 4.69 -2.04 2.38 0 0 Z " fill="#86A376" transform="translate(355,184)"/>
<path d="M0 0 C0.66 0.66 1.32 1.32 2 2 C5.08347826 2.16681109 5.08347826 2.16681109 8 2 C8.33 2.66 8.66 3.32 9 4 C6.36 4.33 3.72 4.66 1 5 C0.67 3.35 0.34 1.7 0 0 Z " fill="#F5D6AA" transform="translate(330,182)"/>
<path d="M0 0 C0.66 0.33 1.32 0.66 2 1 C0.515 6.445 0.515 6.445 -1 12 C-1.66 12 -2.32 12 -3 12 C-2.69230293 10.18667846 -2.37870936 8.37435655 -2.0625 6.5625 C-1.80146484 5.04849609 -1.80146484 5.04849609 -1.53515625 3.50390625 C-1 1 -1 1 0 0 Z " fill="#FEF9EB" transform="translate(376,161)"/>
<path d="M0 0 C1.33332095 2.6666419 0.67102033 4.16680303 0 7 C-1.65 7 -3.3 7 -5 7 C-1.125 1.125 -1.125 1.125 0 0 Z " fill="#FADEBA" transform="translate(393,151)"/>
<path d="M0 0 C0.99 0.33 1.98 0.66 3 1 C0.03 4.96 0.03 4.96 -3 9 C-3.33 7.68 -3.66 6.36 -4 5 C-3.34 5 -2.68 5 -2 5 C-1.7834375 4.0409375 -1.7834375 4.0409375 -1.5625 3.0625 C-1 1 -1 1 0 0 Z " fill="#FEF4DA" transform="translate(382,130)"/>
<path d="M0 0 C1.98 0.99 1.98 0.99 4 2 C3.37611108 5.61855575 2.8290723 6.1709277 0 9 C0 6.03 0 3.06 0 0 Z " fill="#FDF0D2" transform="translate(386,120)"/>
<path d="M0 0 C0.33 0 0.66 0 1 0 C1 1.65 1 3.3 1 5 C-0.98 5.99 -0.98 5.99 -3 7 C-3 7.66 -3 8.32 -3 9 C-3.66 8.67 -4.32 8.34 -5 8 C-4.19185349 6.66402348 -3.37836819 5.331275 -2.5625 4 C-2.11003906 3.2575 -1.65757812 2.515 -1.19140625 1.75 C-0.79824219 1.1725 -0.40507812 0.595 0 0 Z " fill="#BEEEEF" transform="translate(419,254)"/>
<path d="M0 0 C0.99 0.33 1.98 0.66 3 1 C2.6875 2.875 2.6875 2.875 2 5 C1.01 5.66 0.02 6.32 -1 7 C-1 3 -1 3 0 0 Z " fill="#EEF1F4" transform="translate(292,233)"/>
<path d="M0 0 C0.99 0 1.98 0 3 0 C3 2.31 3 4.62 3 7 C2.01 6.67 1.02 6.34 0 6 C0 4.02 0 2.04 0 0 Z " fill="#E8F7F1" transform="translate(328,213)"/>
<path d="M0 0 C0.33 0.99 0.66 1.98 1 3 C-0.8125 5.6875 -0.8125 5.6875 -3 8 C-3.66 8 -4.32 8 -5 8 C-3.8141763 4.62496331 -2.72426311 2.35277269 0 0 Z " fill="#59BAB8" transform="translate(311,202)"/>
<path d="M0 0 C1.32 0 2.64 0 4 0 C3.25 1.9375 3.25 1.9375 2 4 C-0.125 4.75 -0.125 4.75 -2 5 C-1.125 1.125 -1.125 1.125 0 0 Z " fill="#42A7A0" transform="translate(340,203)"/>
<path d="M0 0 C1.32 0.33 2.64 0.66 4 1 C2.35 2.98 0.7 4.96 -1 7 C-1.625 5.1875 -1.625 5.1875 -2 3 C-1.34 2.01 -0.68 1.02 0 0 Z " fill="#92A481" transform="translate(360,191)"/>
<path d="M0 0 C1 3 1 3 0.25 5.125 C-1 7 -1 7 -4 8 C-3.50168276 4.31245243 -2.89932357 2.39509338 0 0 Z " fill="#EFF0DA" transform="translate(302,175)"/>
<path d="M0 0 C0.66 0.33 1.32 0.66 2 1 C1.01 2.485 1.01 2.485 0 4 C-0.33 4.99 -0.66 5.98 -1 7 C-2.32 6.34 -3.64 5.68 -5 5 C-5 4.34 -5 3.68 -5 3 C-2.625 1.3125 -2.625 1.3125 0 0 Z " fill="#CD8B27" transform="translate(324,165)"/>
<path d="M0 0 C3.91402949 1.26941497 5.79072873 2.51167694 8 6 C2.46153846 5.50769231 2.46153846 5.50769231 0.125 2.9375 C-0.431875 1.9784375 -0.431875 1.9784375 -1 1 C-0.67 0.67 -0.34 0.34 0 0 Z " fill="#B0A671" transform="translate(334,156)"/>
<path d="M0 0 C2.31 0.33 4.62 0.66 7 1 C7.33 2.32 7.66 3.64 8 5 C5.36 3.68 2.72 2.36 0 1 C0 0.67 0 0.34 0 0 Z " fill="#F2F1DD" transform="translate(332,154)"/>
<path d="M0 0 C1.98 0.495 1.98 0.495 4 1 C2.63016497 4.16115776 2.0109362 4.9927092 -1 7 C-0.67 4.69 -0.34 2.38 0 0 Z " fill="#F2A342" transform="translate(390,122)"/>
<path d="M0 0 C-1.65 1.32 -3.3 2.64 -5 4 C-5.66 2.68 -6.32 1.36 -7 0 C-2.25 -1.125 -2.25 -1.125 0 0 Z " fill="#FC8102" transform="translate(416,107)"/>
<path d="M0 0 C1.20628008 2.33214148 2.1654738 4.49642139 3 7 C1.35 7 -0.3 7 -2 7 C-2 6.34 -2 5.68 -2 5 C-1.34 5 -0.68 5 0 5 C-0.2784375 4.0409375 -0.2784375 4.0409375 -0.5625 3.0625 C-0.7790625 2.0415625 -0.7790625 2.0415625 -1 1 C-0.67 0.67 -0.34 0.34 0 0 Z " fill="#3C9EA1" transform="translate(301,267)"/>
<path d="M0 0 C0 1.65 0 3.3 0 5 C-2.475 4.01 -2.475 4.01 -5 3 C-5 2.34 -5 1.68 -5 1 C-2 0 -2 0 0 0 Z " fill="#1CA3A8" transform="translate(275,261)"/>
<path d="M0 0 C0 1.66666667 0 3.33333333 0 5 C-1.98 5.99 -1.98 5.99 -4 7 C-4.33 6.01 -4.66 5.02 -5 4 C-4.34 4 -3.68 4 -3 4 C-3 3.34 -3 2.68 -3 2 C-2.01 1.34 -1.02 0.68 0 0 Z " fill="#E6F2F7" transform="translate(419,259)"/>
<path d="M0 0 C0.33 0 0.66 0 1 0 C1.33 2.97 1.66 5.94 2 9 C0.68 8.34 -0.64 7.68 -2 7 C-1.34 4.69 -0.68 2.38 0 0 Z " fill="#BCEDEE" transform="translate(326,256)"/>
<path d="M0 0 C0.66 0.33 1.32 0.66 2 1 C1.67 3.31 1.34 5.62 1 8 C-1 5 -1 5 -0.625 2.3125 C-0.41875 1.549375 -0.2125 0.78625 0 0 Z " fill="#259A9C" transform="translate(288,256)"/>
<path d="M0 0 C0.66 0 1.32 0 2 0 C2.33 0.66 2.66 1.32 3 2 C3.99 1.67 4.98 1.34 6 1 C5.34 2.65 4.68 4.3 4 6 C1 4 1 4 0.3125 1.875 C0.209375 1.25625 0.10625 0.6375 0 0 Z " fill="#C9F4F6" transform="translate(406,255)"/>
<path d="M0 0 C0.99 0.33 1.98 0.66 3 1 C1.515 4.465 1.515 4.465 0 8 C-0.33 8 -0.66 8 -1 8 C-1.625 5.125 -1.625 5.125 -2 2 C-1.34 1.34 -0.68 0.68 0 0 Z " fill="#D6F1F3" transform="translate(286,252)"/>
<path d="M0 0 C2.26185454 2.26185454 3.03921617 3.96983561 4 7 C3.67 7.99 3.34 8.98 3 10 C-0.00617269 6.99382731 0.40414684 4.17618402 0 0 Z " fill="#E0AB64" transform="translate(380,214)"/>
<path d="M0 0 C-0.33 0.66 -0.66 1.32 -1 2 C-1.99 1.67 -2.98 1.34 -4 1 C-4.33 1.99 -4.66 2.98 -5 4 C-5.66 4 -6.32 4 -7 4 C-7.33 3.01 -7.66 2.02 -8 1 C-4.93251126 -0.86240388 -3.40254489 -1.2151946 0 0 Z " fill="#DD983A" transform="translate(380,216)"/>
<path d="M0 0 C0.99 0.33 1.98 0.66 3 1 C3 1.66 3 2.32 3 3 C3.66 3.33 4.32 3.66 5 4 C3.02 4.33 1.04 4.66 -1 5 C-0.67 3.35 -0.34 1.7 0 0 Z " fill="#CC6D09" transform="translate(335,213)"/>
<path d="M0 0 C0.99 0.33 1.98 0.66 3 1 C2.67 1.99 2.34 2.98 2 4 C0.02 4.33 -1.96 4.66 -4 5 C-2.68 3.35 -1.36 1.7 0 0 Z " fill="#939961" transform="translate(365,209)"/>
<path d="M0 0 C1.65 1.32 3.3 2.64 5 4 C3.35 4.66 1.7 5.32 0 6 C-0.66 5.01 -1.32 4.02 -2 3 C-1.34 2.01 -0.68 1.02 0 0 Z " fill="#DFF0E5" transform="translate(362,193)"/>
<path d="M0 0 C2.75 0.8125 2.75 0.8125 5 2 C5 2.33 5 2.66 5 3 C2.03 3 -0.94 3 -4 3 C-2.3125 1.375 -2.3125 1.375 0 0 Z " fill="#8EBCAC" transform="translate(337,188)"/>
<path d="" fill="#FFFFFF" transform="translate(0,0)"/>
<path d="" fill="#FFFFFF" transform="translate(0,0)"/>
<path d="" fill="#FFFFFF" transform="translate(0,0)"/>
<path d="" fill="#FFFFFF" transform="translate(0,0)"/>
<path d="" fill="#FFFFFF" transform="translate(0,0)"/>
<path d="" fill="#FFFFFF" transform="translate(0,0)"/>
<path d="" fill="#FFFFFF" transform="translate(0,0)"/>
<path d="" fill="#FFFFFF" transform="translate(0,0)"/>
<path d="" fill="#FFFFFF" transform="translate(0,0)"/>
<path d="" fill="#FFFFFF" transform="translate(0,0)"/>
<path d="" fill="#FFFFFF" transform="translate(0,0)"/>
<path d="" fill="#FFFFFF" transform="translate(0,0)"/>
<path d="" fill="#FFFFFF" transform="translate(0,0)"/>
<path d="" fill="#FFFFFF" transform="translate(0,0)"/>
<path d="" fill="#FFFFFF" transform="translate(0,0)"/>
<path d="" fill="#FFFFFF" transform="translate(0,0)"/>
<path d="" fill="#FFFFFF" transform="translate(0,0)"/>
<path d="" fill="#FFFFFF" transform="translate(0,0)"/>
<path d="" fill="#FFFFFF" transform="translate(0,0)"/>
<path d="" fill="#FFFFFF" transform="translate(0,0)"/>
<path d="" fill="#FFFFFF" transform="translate(0,0)"/>
<path d="" fill="#FFFFFF" transform="translate(0,0)"/>
<path d="" fill="#FFFFFF" transform="translate(0,0)"/>
<path d="" fill="#FFFFFF" transform="translate(0,0)"/>
<path d="" fill="#FFFFFF" transform="translate(0,0)"/>
<path d="" fill="#FFFFFF" transform="translate(0,0)"/>
<path d="" fill="#FFFFFF" transform="translate(0,0)"/>
<path d="" fill="#FFFFFF" transform="translate(0,0)"/>
<path d="" fill="#FFFFFF" transform="translate(0,0)"/>
<path d="" fill="#FFFFFF" transform="translate(0,0)"/>
<path d="" fill="#FFFFFF" transform="translate(0,0)"/>
<path d="" fill="#FFFFFF" transform="translate(0,0)"/>
<path d="" fill="#FFFFFF" transform="translate(0,0)"/>
<path d="" fill="#FFFFFF" transform="translate(0,0)"/>
<path d="" fill="#FFFFFF" transform="translate(0,0)"/>
<path d="" fill="#FFFFFF" transform="translate(0,0)"/>
<path d="" fill="#FFFFFF" transform="translate(0,0)"/>
<path d="" fill="#FFFFFF" transform="translate(0,0)"/>
<path d="" fill="#FFFFFF" transform="translate(0,0)"/>
<path d="" fill="#FFFFFF" transform="translate(0,0)"/>
<path d="" fill="#FFFFFF" transform="translate(0,0)"/>
<path d="" fill="#FFFFFF" transform="translate(0,0)"/>
<path d="" fill="#FFFFFF" transform="translate(0,0)"/>
<path d="" fill="#FFFFFF" transform="translate(0,0)"/>
<path d="" fill="#FFFFFF" transform="translate(0,0)"/>
<path d="" fill="#FFFFFF" transform="translate(0,0)"/>
<path d="" fill="#FFFFFF" transform="translate(0,0)"/>
<path d="" fill="#FFFFFF" transform="translate(0,0)"/>
<path d="" fill="#FFFFFF" transform="translate(0,0)"/>
<path d="" fill="#FFFFFF" transform="translate(0,0)"/>
<path d="" fill="#FFFFFF" transform="translate(0,0)"/>
<path d="" fill="#FFFFFF" transform="translate(0,0)"/>
<path d="" fill="#FFFFFF" transform="translate(0,0)"/>
<path d="" fill="#FFFFFF" transform="translate(0,0)"/>
<path d="" fill="#FFFFFF" transform="translate(0,0)"/>
<path d="" fill="#FFFFFF" transform="translate(0,0)"/>
<path d="" fill="#FFFFFF" transform="translate(0,0)"/>
<path d="" fill="#FFFFFF" transform="translate(0,0)"/>
<path d="" fill="#FFFFFF" transform="translate(0,0)"/>
<path d="" fill="#FFFFFF" transform="translate(0,0)"/>
<path d="" fill="#FFFFFF" transform="translate(0,0)"/>
<path d="" fill="#FFFFFF" transform="translate(0,0)"/>
<path d="" fill="#FFFFFF" transform="translate(0,0)"/>
<path d="" fill="#FFFFFF" transform="translate(0,0)"/>
<path d="" fill="#FFFFFF" transform="translate(0,0)"/>
<path d="" fill="#FFFFFF" transform="translate(0,0)"/>
<path d="" fill="#FFFFFF" transform="translate(0,0)"/>
<path d="" fill="#FFFFFF" transform="translate(0,0)"/>
<path d="" fill="#FFFFFF" transform="translate(0,0)"/>
</svg>
